<svg width="107" height="61" viewBox="0 0 107 61" fill="none" xmlns="http://www.w3.org/2000/svg">
<path d="M12.7011 0L16.3194 24.387H9.83963L9.50733 20.0117H7.23663L6.84895 24.387H0.295288L3.52597 0H12.7011ZM9.34118 15.6734C9.02735 12.9042 8.69505 9.48896 8.38121 5.42754C7.73508 10.0982 7.32893 13.5135 7.16278 15.6734H9.34118Z" fill="#050505"/>
<path d="M24.3685 0V19.5133H28.2269V24.387H18.0179V0H24.3685Z" fill="#050505"/>
<path d="M36.8113 19.5133V0H30.4607V24.387H40.245L40.8173 19.5133H36.8113Z" fill="#050505"/>
<path d="M10.3751 25.8085V43.2541H6.40597L4.04296 35.3159V43.2541H0.23999V25.8085H4.04296L6.59058 33.6729V25.8085H10.3751Z" fill="#050505"/>
<path d="M21.9685 36.0174C21.9685 37.7712 21.9316 39.0081 21.8393 39.7465C21.7654 40.485 21.507 41.1496 21.0639 41.7403C20.6209 42.3496 20.0486 42.8111 19.3101 43.1249C18.5717 43.4572 17.704 43.6049 16.7256 43.6049C15.7841 43.6049 14.9533 43.4572 14.2149 43.1434C13.4765 42.8295 12.8672 42.3865 12.4242 41.7773C11.9627 41.168 11.7042 40.5034 11.6119 39.7835C11.5196 39.0635 11.4827 37.8081 11.4827 36.0174V33.0267C11.4827 31.2729 11.5196 30.0361 11.6119 29.2976C11.6857 28.5592 11.9442 27.8946 12.3873 27.3038C12.8303 26.6946 13.4026 26.2331 14.141 25.9193C14.8795 25.587 15.7472 25.4393 16.7256 25.4393C17.6671 25.4393 18.4978 25.587 19.2363 25.9008C19.9747 26.2146 20.5839 26.6577 21.027 27.2669C21.4701 27.8761 21.747 28.5407 21.8393 29.2607C21.9316 29.9807 21.9685 31.236 21.9685 33.0267V36.0174ZM17.4271 30.2945C17.4271 29.4822 17.3902 28.9653 17.2979 28.7438C17.2056 28.5223 17.021 28.4115 16.744 28.4115C16.5041 28.4115 16.3194 28.5038 16.2087 28.6884C16.0795 28.873 16.0241 29.4084 16.0241 30.313V38.4543C16.0241 39.4696 16.061 40.0973 16.1533 40.3373C16.2271 40.5773 16.4302 40.6881 16.7256 40.6881C17.0394 40.6881 17.224 40.5588 17.3163 40.2819C17.4086 40.005 17.4456 39.3589 17.4456 38.3251V30.2945H17.4271Z" fill="#050505"/>
<path d="M35.6666 25.8085C35.0759 29.8514 34.6513 33.9867 34.3928 38.2143L33.8944 31.5683C33.6359 28.2453 33.4698 26.3254 33.3959 25.8085H28.6884C28.0238 30.7376 27.5992 34.7436 27.433 37.7897L26.9715 31.9006L26.4915 25.8085H22.0793L24.1101 43.2541H29.7407C30.4053 38.6204 30.8299 35.5743 31.0145 34.0975C31.4206 37.5127 31.8637 40.5773 32.3806 43.2541H38.0481L40.0604 25.8085H35.6666Z" fill="#050505"/>
<path d="M9.56278 51.4323H5.51981V48.737C5.51981 47.9432 5.48289 47.4632 5.39059 47.2602C5.29828 47.0571 5.11367 46.9648 4.8183 46.9648C4.486 46.9648 4.28293 47.0755 4.19062 47.3155C4.09832 47.5555 4.06139 48.0724 4.06139 48.8478V56.0661C4.06139 56.823 4.09832 57.3214 4.19062 57.5429C4.28293 57.7645 4.486 57.8937 4.79983 57.8937C5.09521 57.8937 5.29828 57.7829 5.39059 57.5429C5.48289 57.3029 5.53827 56.7676 5.53827 55.9184V53.9615H9.58124V54.5707C9.58124 56.1768 9.47047 57.3214 9.24894 58.0045C9.02741 58.6691 8.5105 59.2598 7.73514 59.7767C6.95977 60.2752 5.9998 60.5336 4.85522 60.5336C3.67371 60.5336 2.69528 60.3121 1.91992 59.8875C1.14455 59.4629 0.646107 58.8721 0.387653 58.0968C0.129199 57.3399 0.0184326 56.1953 0.0184326 54.663V50.1216C0.0184326 48.9955 0.0553546 48.1647 0.129199 47.5925C0.203043 47.0386 0.443036 46.4848 0.812256 45.9679C1.19994 45.451 1.71685 45.0448 2.3999 44.7495C3.08296 44.4541 3.85832 44.3064 4.72599 44.3064C5.92596 44.3064 6.90439 44.5279 7.67975 44.9895C8.45511 45.451 8.97202 46.0233 9.21202 46.7063C9.45201 47.3894 9.58124 48.4601 9.58124 49.9185V51.4323H9.56278Z" fill="#868787"/>
<path d="M20.2517 53.7769C20.2517 55.3461 20.2148 56.4538 20.1409 57.0999C20.0671 57.746 19.8456 58.3368 19.4579 58.8906C19.0702 59.426 18.5533 59.8506 17.8887 60.1275C17.2241 60.4229 16.4672 60.5521 15.5811 60.5521C14.7503 60.5521 13.9934 60.4229 13.3288 60.146C12.6642 59.869 12.1289 59.4629 11.7227 58.9275C11.3166 58.3922 11.0766 57.7829 11.0027 57.1553C10.9289 56.4907 10.892 55.383 10.892 53.7769V51.1185C10.892 49.5493 10.9289 48.4417 11.0027 47.7955C11.0766 47.1494 11.2981 46.5586 11.6858 46.0048C12.0735 45.4694 12.5904 45.0448 13.255 44.7679C13.9196 44.4726 14.6765 44.3433 15.5626 44.3433C16.3933 44.3433 17.1502 44.4725 17.8148 44.7495C18.4794 45.0264 19.0148 45.4325 19.421 45.9679C19.8271 46.5033 20.0671 47.1125 20.1409 47.7402C20.2148 48.3863 20.2517 49.4939 20.2517 51.1001V53.7769V53.7769ZM16.2087 48.6632C16.2087 47.9432 16.1718 47.4817 16.0795 47.2786C16.0057 47.0756 15.8395 46.9832 15.5811 46.9832C15.378 46.9832 15.2118 47.0571 15.1011 47.2232C14.9903 47.3894 14.9349 47.8694 14.9349 48.6632V55.9184C14.9349 56.823 14.9719 57.3768 15.0457 57.5983C15.1195 57.8014 15.2857 57.9122 15.5626 57.9122C15.8395 57.9122 16.0057 57.783 16.098 57.543C16.1718 57.303 16.2087 56.7122 16.2087 55.8076V48.6632V48.6632Z" fill="#868787"/>
<path d="M21.7655 44.6572H24.627C26.5284 44.6572 27.8207 44.731 28.5038 44.8787C29.1868 45.0264 29.7222 45.3956 30.1653 46.0048C30.5899 46.614 30.8114 47.574 30.8114 48.9032C30.8114 50.1216 30.6637 50.9339 30.3683 51.34C30.073 51.7647 29.4822 52.0046 28.5961 52.0969C29.3899 52.3 29.9437 52.5585 30.2022 52.8908C30.4791 53.2231 30.6453 53.5369 30.7191 53.8138C30.7929 54.0907 30.8114 54.8661 30.8114 56.1214V60.2198H27.0638V55.0507C27.0638 54.22 26.99 53.7031 26.8607 53.5C26.7315 53.2969 26.3808 53.2046 25.8269 53.2046V60.2198H21.784V44.6572H21.7655ZM25.8085 47.334V50.7862C26.27 50.7862 26.5838 50.7308 26.7684 50.6016C26.9531 50.4724 27.0454 50.0662 27.0454 49.3832V48.534C27.0454 48.0355 26.9531 47.7217 26.7869 47.5555C26.5838 47.4079 26.27 47.334 25.8085 47.334Z" fill="#868787"/>
<path d="M32.3621 44.6572H36.4419C37.5496 44.6572 38.3988 44.7495 38.9896 44.9156C39.5803 45.0818 40.0234 45.3402 40.3188 45.6725C40.6141 46.0048 40.8172 46.3925 40.928 46.854C41.0387 47.3156 41.0941 48.0355 41.0941 49.014V50.3616C41.0941 51.3585 40.9834 52.0785 40.7803 52.54C40.5772 53.0015 40.208 53.3523 39.6542 53.5923C39.1003 53.8323 38.3988 53.9615 37.5127 53.9615H36.4235V60.2198H32.3805V44.6572H32.3621ZM36.405 47.334V51.2847C36.5158 51.2847 36.6266 51.3031 36.7004 51.3031C37.0696 51.3031 37.3281 51.2108 37.4758 51.0262C37.6234 50.8416 37.6973 50.4724 37.6973 49.8816V48.6078C37.6973 48.0724 37.605 47.7217 37.4388 47.574C37.2727 47.4079 36.9219 47.334 36.405 47.334Z" fill="#868787"/>
<path d="M51.4692 53.7769C51.4692 55.3461 51.4323 56.4538 51.3585 57.0999C51.2846 57.746 51.0631 58.3368 50.6754 58.8906C50.2877 59.426 49.7708 59.8506 49.1062 60.1275C48.4416 60.4229 47.6847 60.5521 46.7986 60.5521C45.9678 60.5521 45.2109 60.4229 44.5463 60.146C43.8818 59.8691 43.3464 59.4629 42.9402 58.9276C42.5341 58.3922 42.2941 57.783 42.2203 57.1553C42.1464 56.5092 42.1095 55.4015 42.1095 53.7954V51.137C42.1095 49.5678 42.1464 48.4602 42.2203 47.814C42.2941 47.1679 42.5156 46.5771 42.9033 46.0233C43.291 45.4879 43.8079 45.0633 44.4725 44.7864C45.1371 44.491 45.894 44.3618 46.7801 44.3618C47.6109 44.3618 48.3678 44.491 49.0324 44.768C49.697 45.0449 50.2323 45.451 50.6385 45.9864C51.0446 46.5218 51.2846 47.131 51.3585 47.7586C51.4323 48.4048 51.4692 49.5124 51.4692 51.1185V53.7769ZM47.4263 48.6632C47.4263 47.9433 47.3893 47.4817 47.297 47.2787C47.2232 47.0756 47.057 46.9833 46.7986 46.9833C46.5955 46.9833 46.4294 47.0571 46.3186 47.2233C46.2078 47.3894 46.1525 47.8694 46.1525 48.6632V55.9184C46.1525 56.823 46.1894 57.3768 46.2632 57.5984C46.3371 57.8014 46.5032 57.9122 46.7801 57.9122C47.057 57.9122 47.2232 57.783 47.3155 57.543C47.3893 57.303 47.4263 56.7122 47.4263 55.8076V48.6632V48.6632Z" fill="#868787"/>
<path d="M52.9832 44.6572H55.8446C57.7461 44.6572 59.0384 44.731 59.7214 44.8787C60.4045 45.0264 60.9399 45.3956 61.3829 46.0048C61.8075 46.614 62.0291 47.574 62.0291 48.9032C62.0291 50.1216 61.8814 50.9339 61.586 51.34C61.2906 51.7647 60.6999 52.0046 59.8137 52.0969C60.6076 52.3 61.1614 52.5585 61.4198 52.8908C61.6968 53.2231 61.8629 53.5369 61.9367 53.8138C62.0106 54.0907 62.0291 54.8661 62.0291 56.1214V60.2198H58.2815V55.0507C58.2815 54.22 58.2076 53.7031 58.0784 53.5C57.9492 53.2969 57.5984 53.2046 57.0446 53.2046V60.2198H52.9832V44.6572ZM57.0261 47.334V50.7862C57.4876 50.7862 57.8015 50.7308 57.9861 50.6016C58.1707 50.4724 58.263 50.0662 58.263 49.3832V48.534C58.263 48.0355 58.1707 47.7217 58.0046 47.5555C57.8199 47.4079 57.4876 47.334 57.0261 47.334Z" fill="#868787"/>
<path d="M70.5764 44.6572L72.884 60.2013H68.7487L68.5272 57.4137H67.0872L66.8472 60.2013H62.675L64.7427 44.6572H70.5764V44.6572ZM68.4164 54.663C68.2134 52.9092 68.0103 50.7308 67.8072 48.1278C67.4011 51.1001 67.1426 53.2785 67.0318 54.663H68.4164Z" fill="#868787"/>
<path d="M80.6192 44.6572V47.7771H78.2192V60.2198H74.1763V47.7771H71.7764V44.6572H80.6192V44.6572Z" fill="#868787"/>
<path d="M85.6038 44.6572V60.2013H81.5608V44.6572H85.6038V44.6572Z" fill="#868787"/>
<path d="M96.4589 53.7769C96.4589 55.3461 96.4219 56.4538 96.3481 57.0999C96.2742 57.746 96.0527 58.3368 95.665 58.8906C95.2774 59.426 94.7604 59.8506 94.0958 60.1275C93.4313 60.4229 92.6744 60.5521 91.7882 60.5521C90.9575 60.5521 90.2006 60.4229 89.536 60.146C88.8714 59.8691 88.336 59.4629 87.9299 58.9276C87.5237 58.3922 87.2837 57.783 87.2099 57.1553C87.136 56.5092 87.0991 55.4015 87.0991 53.7954V51.137C87.0991 49.5678 87.136 48.4602 87.2099 47.814C87.2837 47.1679 87.5053 46.5771 87.8929 46.0233C88.2806 45.4879 88.7975 45.0633 89.4621 44.7864C90.1267 44.491 90.8836 44.3618 91.7698 44.3618C92.6005 44.3618 93.3574 44.491 94.022 44.768C94.6866 45.0449 95.222 45.451 95.6281 45.9864C96.0343 46.5218 96.2742 47.131 96.3481 47.7586C96.4219 48.4048 96.4589 49.5124 96.4589 51.1185V53.7769ZM92.4159 48.6632C92.4159 47.9433 92.379 47.4817 92.2867 47.2787C92.2128 47.0756 92.0467 46.9833 91.7882 46.9833C91.5852 46.9833 91.419 47.0571 91.3082 47.2233C91.1975 47.3894 91.1421 47.8694 91.1421 48.6632V55.9184C91.1421 56.823 91.179 57.3768 91.2528 57.5984C91.3267 57.8014 91.4928 57.9122 91.7698 57.9122C92.0467 57.9122 92.2128 57.783 92.3051 57.543C92.379 57.303 92.4159 56.7122 92.4159 55.8076V48.6632V48.6632Z" fill="#868787"/>
<path d="M107 44.6572V60.2013H103.455L101.351 53.1492V60.2198H97.9724V44.6756H101.351L103.622 51.6723V44.6756H107V44.6572Z" fill="#868787"/>
</svg>
