<svg width="107" height="19" viewBox="0 0 107 19" fill="none" xmlns="http://www.w3.org/2000/svg">
<g clip-path="url(#clip0_17_2026)">
<path d="M98.3672 0C93.4267 0 89.7604 2.47023 89.7604 7.4627V17.4736H93.4007V7.4627C93.4007 4.65444 95.1169 2.93827 98.3672 2.91227C101.617 2.91227 103.36 4.65444 103.36 7.4627V17.4736H107V7.4627C107 2.47023 103.308 0 98.3932 0H98.3672ZM78.8134 0C76.5772 0 73.8729 0.416039 72.1567 1.76817C70.8046 2.83426 73.5609 4.16039 76.0051 3.01628C76.6032 2.73026 77.4612 2.49623 78.3453 2.49623C82.1157 2.47023 83.3898 4.08238 83.4938 6.73463C81.8557 6.73463 80.0875 6.73463 77.8513 6.81264C71.8447 6.96865 68.8804 8.78882 68.8804 12.5072C68.8804 15.7575 72.0267 18.1237 76.4211 18.1237C81.2836 18.1237 86.068 17.1876 86.068 17.1876C87.4462 15.8355 87.2382 6.05857 87.2382 6.05857C87.2382 1.74216 83.5458 0 78.8134 0ZM72.8328 12.4032C72.8328 10.375 74.887 9.77691 78.3973 9.6729C80.5555 9.56889 82.2197 9.56889 83.4938 9.56889C83.3378 13.1312 84.5079 15.4974 77.2272 15.4974C74.1849 15.4714 72.8328 13.8073 72.8328 12.4032ZM9.93293 0C7.69672 0 4.99247 0.416039 3.27631 1.76817C1.92418 2.83426 4.68044 4.16039 7.12467 3.01628C7.72272 2.73026 8.5808 2.49623 9.46489 2.49623C13.2352 2.47023 14.5094 4.08238 14.6134 6.73463C12.9752 6.73463 11.207 6.73463 8.97084 6.81264C2.96428 6.94265 0 8.78882 0 12.4812C0 15.7315 3.14629 18.0977 7.5407 18.0977C12.4032 18.0977 17.1876 17.1616 17.1876 17.1616C18.5397 15.8095 18.3577 6.03256 18.3577 6.03256C18.3317 1.74216 14.6654 0 9.93293 0ZM3.92637 12.4032C3.92637 10.375 5.98056 9.77691 9.51689 9.6729C11.6751 9.56889 13.3392 9.56889 14.6134 9.56889C14.4574 13.1312 15.6275 15.4974 8.34678 15.4974C5.3045 15.4714 3.92637 13.8073 3.92637 12.4032ZM60.1956 0.182017H49.5866V17.4736H53.461V10.661H58.1674C61.6778 10.713 62.9259 11.4671 62.9259 14.7434V17.4736H66.8523V14.3273C66.8523 11.8051 66.3582 10.271 64.226 9.6209C65.8382 8.68481 66.8523 7.17667 66.8523 5.3825C66.8523 1.95018 63.992 0.182017 60.1956 0.182017ZM53.461 3.01628H58.8955C60.9497 3.01628 62.8999 3.2243 62.8999 5.3045C62.8999 7.38469 61.0277 7.95674 58.7395 7.95674H53.461V3.01628ZM30.0588 0.182017V3.01628H33.8032C36.6374 3.01628 36.6634 3.01628 36.6634 5.77254V17.4736H40.5378V5.77254C40.5378 3.01628 40.5378 3.01628 43.3201 3.01628H47.1164V0.182017H30.0588ZM20.4639 0.182017V13.5993C20.4639 17.4996 24.3383 17.4736 24.3383 17.4736H33.8552V14.6654H28.1866C24.3383 14.6654 24.3383 14.6654 24.3383 10.817V0.182017H20.4639Z" fill="url(#paint0_linear_17_2026)"/>
</g>
<defs>
<linearGradient id="paint0_linear_17_2026" x1="107.004" y1="9.06535" x2="0.000242362" y2="9.06535" gradientUnits="userSpaceOnUse">
<stop stop-color="#00B4EB"/>
<stop offset="0.45" stop-color="#0089CF"/>
<stop offset="1" stop-color="#1E398D"/>
</linearGradient>
<clipPath id="clip0_17_2026">
<rect width="107" height="18.1237" fill="white"/>
</clipPath>
</defs>
</svg>
