<svg width="74" height="97" viewBox="0 0 74 97" fill="none" xmlns="http://www.w3.org/2000/svg">
<g clip-path="url(#clip0_17_2028)">
<path fill-rule="evenodd" clip-rule="evenodd" d="M22.0856 35.0465C22.293 31.1582 23.0188 27.6328 23.7965 25.1443C25.9739 26.5441 28.8253 28.7734 31.4694 31.6248C32.9728 28.0476 34.8911 24.9888 36.4464 22.915C38.0017 24.9888 39.9199 28.0476 41.4234 31.6248C44.0674 28.7734 46.9188 26.596 49.0963 25.1443C49.8739 27.6328 50.5998 31.1582 50.8071 35.0465C54.2807 33.2838 57.7024 32.1951 60.2427 31.573C60.0872 34.1652 59.6206 37.7424 58.48 41.4233C62.3165 40.9567 65.9456 41.0604 68.5378 41.3715C67.5009 43.7563 65.8419 46.9706 63.5089 50.0294C67.2935 50.9108 70.6115 52.2587 72.9445 53.4511C71.1818 55.3693 68.4859 57.7542 65.2198 59.8798C68.4859 62.0054 71.13 64.3902 72.9445 66.3084C70.6115 67.5008 67.2935 68.8488 63.5089 69.7301C65.8419 72.8408 67.5527 76.0032 68.5378 78.388C65.9456 78.6991 62.3683 78.8546 58.48 78.3362C59.6206 82.069 60.139 85.5944 60.2427 88.1866C57.7024 87.6163 54.2807 86.4757 50.8071 84.713C50.5998 88.6013 49.8739 92.1267 49.0963 94.6152C46.9188 93.2154 44.0674 90.9861 41.4234 88.1347C39.9199 91.7119 38.0017 94.7707 36.4464 96.8445C34.8911 94.7707 32.9728 91.7119 31.4694 88.1347C28.8253 90.9861 25.9739 93.1636 23.7965 94.6152C23.0188 92.1267 22.293 88.6013 22.0856 84.713C18.6121 86.4757 15.1904 87.5644 12.65 88.1866C12.8055 85.5944 13.2721 82.0171 14.4127 78.2844C10.5762 78.751 6.94717 78.6473 4.35498 78.3362C5.39186 75.9514 7.05086 72.7371 9.38384 69.6783C5.59923 68.7969 2.28122 67.449 -0.0517578 66.2566C1.71094 64.3383 4.40682 61.9535 7.67299 59.8279C4.45866 57.8578 1.76278 55.473 8.61235e-05 53.5548C2.33306 52.3624 5.65108 51.0145 9.43568 50.1331C7.10271 47.0225 5.39186 43.86 4.40682 41.4752C6.99902 41.1641 10.5762 41.0086 14.4645 41.4752C13.324 37.7424 12.8055 34.217 12.7019 31.6248C15.1904 32.1951 18.6121 33.2838 22.0856 35.0465Z" fill="#009640"/>
<path fill-rule="evenodd" clip-rule="evenodd" d="M15.2941 63.7162C12.5463 62.783 9.95414 61.4351 7.72485 59.9834C10.006 58.5318 12.5463 57.1839 15.2941 56.2507C13.0129 54.4361 11.0947 52.3105 9.4357 50.1331C12.0797 49.511 14.9312 49.1481 17.8344 49.1999C16.3309 46.7114 15.1904 44.0674 14.4127 41.4752C17.1086 41.7862 19.9082 42.4602 22.6041 43.4971C22.0338 40.6457 21.8782 37.7424 22.0338 35.0465C24.5223 36.2908 26.9589 37.8461 29.1364 39.7643C29.5511 36.9129 30.4325 34.1133 31.4694 31.6248C33.3357 33.5949 35.0984 35.9279 36.4464 38.4682C37.8462 35.9279 39.6089 33.6467 41.4752 31.6248C42.5121 34.1133 43.3935 36.8611 43.8082 39.7643C45.9857 37.8461 48.4223 36.2908 50.859 35.0465C51.0145 37.7424 50.859 40.6457 50.2887 43.4971C52.9846 42.4602 55.836 41.7862 58.48 41.4752C57.7024 44.0674 56.5618 46.7632 55.0583 49.1999C57.9616 49.1481 60.813 49.511 63.4571 50.1331C61.7981 52.3105 59.8798 54.4361 57.5987 56.2507C60.3464 57.1839 62.9386 58.5318 65.1679 59.9834C62.8868 61.4351 60.3464 62.783 57.5987 63.7162C59.8798 65.5307 61.7981 67.6563 63.4571 69.8338C60.813 70.4559 57.9616 70.8188 55.0583 70.767C56.5618 73.2555 57.7024 75.8995 58.48 78.4917C55.7842 78.1807 52.9846 77.5067 50.2887 76.4698C50.859 79.3212 51.0145 82.2245 50.859 84.9204C48.4223 83.6761 45.9857 82.1208 43.8082 80.2026C43.3935 83.054 42.5121 85.8536 41.4752 88.3421C39.6089 86.372 37.8462 84.039 36.4982 81.4987C35.0984 84.039 33.3357 86.3202 31.5212 88.3421C30.4843 85.8536 29.603 83.1058 29.1882 80.2026C27.0108 82.1208 24.5741 83.6761 22.1375 84.9204C21.9819 82.2245 22.1375 79.3212 22.7077 76.4698C20.0119 77.5067 17.1604 78.1807 14.5164 78.4917C15.2941 75.8995 16.4346 73.2036 17.9381 70.767C15.0348 70.8188 12.1834 70.4559 9.53939 69.8338C11.0947 67.6563 13.0129 65.5307 15.2941 63.7162Z" fill="#AFCA0B"/>
<path fill-rule="evenodd" clip-rule="evenodd" d="M33.9058 45.4671C34.3724 42.9786 35.3056 40.6456 36.4462 38.4682C37.6386 40.6456 38.52 42.9786 38.9866 45.4671C40.2826 43.2897 41.9417 41.3715 43.7562 39.7643C44.1191 42.201 44.1709 44.6895 43.7562 47.2298C45.7263 45.6227 47.9037 44.4303 50.2367 43.4971C49.7701 45.9337 48.9406 48.2667 47.6963 50.496C50.0812 49.6665 52.5697 49.2517 55.0582 49.1999C53.7621 51.2737 52.2068 53.2437 50.2885 54.9027C52.8289 54.9546 55.3174 55.4212 57.6504 56.1988C55.7321 57.7542 53.5547 59.0503 51.2217 59.9316C53.6065 60.8129 55.7321 62.109 57.6504 63.6644C55.3174 64.442 52.8289 64.9605 50.2885 64.9605C52.2068 66.6195 53.8139 68.5895 55.0582 70.6633C52.6215 70.6115 50.133 70.1967 47.6963 69.3672C48.9406 71.5965 49.7701 73.9813 50.2367 76.3661C47.9556 75.4848 45.7263 74.2405 43.7562 72.6334C44.1709 75.1219 44.1191 77.6622 43.7562 80.0989C41.8898 78.4917 40.2826 76.5735 38.9866 74.3961C38.52 76.8846 37.5868 79.2175 36.4462 81.395C35.2538 79.2175 34.3724 76.8846 33.9058 74.3961C32.6097 76.5735 30.9507 78.4917 29.0844 80.0989C28.7215 77.6622 28.6696 75.1737 29.0844 72.6334C27.1143 74.2405 24.9368 75.4329 22.6039 76.3661C23.0705 73.9295 23.9 71.5965 25.1442 69.3672C22.7594 70.1967 20.2709 70.6115 17.7824 70.6633C19.0785 68.5895 20.6338 66.6195 22.552 64.9605C20.0117 64.9086 17.5232 64.442 15.1902 63.6644C17.1084 62.109 19.2859 60.8129 21.6188 59.9316C19.234 59.0503 17.1084 57.7542 15.1902 56.1988C17.5232 55.4212 20.0117 54.9027 22.552 54.9027C20.6338 53.2437 19.0266 51.2737 17.7824 49.1999C20.219 49.2517 22.7076 49.6665 25.1442 50.496C23.9 48.2667 23.0705 45.8819 22.6039 43.4971C24.885 44.3784 27.1143 45.6227 29.0844 47.2298C28.6696 44.7413 28.7215 42.201 29.0844 39.7643C30.9507 41.4233 32.6097 43.2897 33.9058 45.4671Z" fill="#FFDA00"/>
<path fill-rule="evenodd" clip-rule="evenodd" d="M33.8541 52.8808C33.3875 50.2886 33.4394 47.852 33.906 45.519C35.0984 47.5409 36.0316 49.8739 36.4463 52.4661C36.9129 49.8739 37.7943 47.5927 38.9867 45.519C39.4533 47.852 39.5051 50.3405 39.0385 52.8808C40.3346 50.5997 41.9936 48.7333 43.8082 47.2298C43.4453 49.5628 42.6158 51.8958 41.3197 54.1769C43.3416 52.4661 45.4672 51.2737 47.7483 50.496C46.6077 52.5698 45.0524 54.488 43.0305 56.147C45.4672 55.2138 47.9557 54.8509 50.2887 54.9027C48.4741 56.4581 46.3485 57.7542 43.9119 58.6355C46.5559 58.6355 48.9407 59.1021 51.17 59.9316C48.9407 60.7611 46.504 61.2795 43.9119 61.2277C46.4004 62.109 48.4741 63.4051 50.2887 64.9605C47.9038 65.0123 45.4672 64.5976 43.0305 63.7162C45.0524 65.3752 46.6077 67.2934 47.7483 69.3672C45.519 68.5895 43.3416 67.3971 41.3197 65.6863C42.6158 67.9674 43.4453 70.3004 43.8082 72.6334C41.9936 71.1299 40.3346 69.2635 39.0385 66.9824C39.5051 69.5746 39.4533 72.0112 38.9867 74.3442C37.7943 72.3223 36.8611 69.9893 36.4463 67.3971C35.9797 69.9893 35.0984 72.2705 33.906 74.3442C33.4394 72.0112 33.3875 69.5227 33.8541 66.9824C32.558 69.2635 30.899 71.1299 29.0845 72.6334C29.4474 70.3004 30.2769 67.9674 31.573 65.6863C29.5511 67.3971 27.4255 68.5895 25.1444 69.3672C26.2849 67.2934 27.8402 65.3752 29.8621 63.6644C27.4255 64.5976 24.937 64.9605 22.604 64.9086C24.4185 63.3533 26.5441 62.0572 28.9808 61.1759C26.3368 61.1759 23.9519 60.7093 21.7227 59.8798C23.9519 59.0503 26.3886 58.5318 28.9808 58.5837C26.4923 57.7023 24.4185 56.4062 22.604 54.8509C24.9888 54.7991 27.4255 55.2138 29.8621 56.0951C27.8402 54.4361 26.2849 52.5179 25.1444 50.4442C27.3736 51.2218 29.5511 52.4142 31.573 54.1251C30.2769 51.8439 29.4474 49.511 29.0845 47.178C30.9509 48.7333 32.558 50.5997 33.8541 52.8808Z" fill="white"/>
<path fill-rule="evenodd" clip-rule="evenodd" d="M46.2966 0V18.0935H48.9925V16.3827C50.0812 17.8862 51.3255 18.5601 53.14 18.5601C56.458 18.5601 58.8429 15.8642 58.8429 11.5612C58.8429 7.15446 56.4062 4.45858 53.1919 4.45858C51.4292 4.45858 50.0294 5.23624 49.0444 6.63602V0H46.2966ZM52.4661 6.8434C54.5917 6.8434 55.9396 8.50241 55.9396 11.5094C55.9396 14.3608 54.5917 16.0198 52.4661 16.0198C50.2368 16.0198 48.9407 14.4126 48.9407 11.4575C48.9407 8.39872 50.1849 6.8434 52.4661 6.8434Z" fill="#009640"/>
<path fill-rule="evenodd" clip-rule="evenodd" d="M66.775 6.8434C68.9006 6.8434 70.2485 8.50241 70.2485 11.3538C70.2485 14.3608 68.9006 16.0198 66.775 16.0198C64.4938 16.0198 63.2496 14.4645 63.2496 11.5094C63.2496 8.45056 64.5457 6.8434 66.775 6.8434ZM63.3014 16.4345C64.2346 17.7825 65.6344 18.5083 67.4489 18.5083C70.7151 18.5083 73.0999 15.8124 73.0999 11.4057C73.0999 7.10262 70.7151 4.40674 67.3971 4.40674C65.5826 4.40674 64.3383 5.13255 63.2496 6.68787V4.82149H60.5537V23.3298H63.2496V16.4345H63.3014Z" fill="#009640"/>
</g>
<defs>
<clipPath id="clip0_17_2028">
<rect width="73.0999" height="97" fill="white"/>
</clipPath>
</defs>
</svg>
