<svg width="40" height="42" viewBox="0 0 40 42" fill="none" xmlns="http://www.w3.org/2000/svg">
<path d="M12.2614 25.5961C8.33873 24.6886 4.76338 22.6629 1.96856 19.7646C1.09999 18.8589 -0.0500068 17.4575 0.00142179 15.7432C0.0225678 15.1427 0.191347 14.5567 0.492836 14.0369C0.794324 13.5172 1.21923 13.0797 1.72999 12.7632C2.49046 12.3075 3.37536 12.1036 4.25856 12.1804C4.35583 12.7067 4.49143 13.2252 4.66428 13.7318C4.30466 13.6019 3.92011 13.5561 3.54004 13.5977C3.15996 13.6393 2.79444 13.7672 2.47142 13.9718C2.16174 14.1668 1.90397 14.434 1.72022 14.7505C1.53647 15.067 1.43223 15.4233 1.41642 15.7889C1.38928 16.6889 1.88928 17.6411 2.98785 18.7889C5.77312 21.6753 9.38496 23.6268 13.3257 24.3746C12.9449 24.7584 12.5894 25.1664 12.2614 25.5961V25.5961ZM39.9757 13.9268C39.84 14.4268 39.1543 14.6725 38.44 14.4789C38.1753 14.4092 37.9306 14.2783 37.7257 14.0968C37.5815 13.9577 37.4161 13.8425 37.2357 13.7554C36.6818 13.6616 36.1222 13.6048 35.5607 13.5854C35.0725 13.568 34.5837 13.5847 34.0978 13.6354C33.6159 13.6891 33.1385 13.7775 32.6693 13.8996C31.9611 14.0924 31.2805 14.3752 30.6443 14.7411C31.1534 14.8491 31.6438 15.0312 32.1 15.2818C33.3712 15.9159 34.388 16.9649 34.9821 18.2554C35.2281 18.8004 35.3144 19.404 35.2309 19.9961C35.1475 20.5883 34.8977 21.1445 34.5107 21.6004C34.122 22.0645 33.6097 22.409 33.0332 22.5938C32.4568 22.7787 31.8397 22.7963 31.2536 22.6446L31.2157 22.6346C30.4154 22.4358 29.6357 22.1615 28.8871 21.8154C28.84 21.3296 28.7914 20.6868 28.755 20.1668C29.6385 20.6453 30.5781 21.0119 31.5521 21.2582L31.6021 21.2711C31.9305 21.359 32.2773 21.3509 32.6012 21.2475C32.925 21.1442 33.2125 20.9501 33.4293 20.6882C33.6466 20.4365 33.7869 20.1275 33.8332 19.7981C33.8796 19.4688 33.8301 19.133 33.6907 18.8311C33.2222 17.8307 32.4272 17.0195 31.4364 16.5311C31.125 16.3298 30.7758 16.1942 30.4101 16.1328C30.0444 16.0714 29.6701 16.0854 29.31 16.1739C29.0539 16.2692 28.8192 16.4141 28.6194 16.6005C28.4196 16.7868 28.2586 17.0108 28.1457 17.2596C27.901 17.7709 27.7946 18.3373 27.8371 18.9025C27.8207 19.4668 28.0086 22.2761 28.03 22.6339C28.1014 23.7768 28.1514 24.9375 28.1157 26.0839C28.0953 27.2098 27.9306 28.3285 27.6257 29.4125C27.197 30.9049 26.4564 32.2893 25.4529 33.4743C24.4494 34.6592 23.2058 35.6176 21.8043 36.2861C20.1145 36.9709 18.3423 37.4314 16.5328 37.6561C15.7286 37.7904 14.895 37.9289 14.1 38.1104C12.8963 38.3769 11.7319 38.7975 10.6357 39.3618C9.77142 39.8318 8.69642 40.6046 8.50571 41.6289L7.11428 41.3675C7.11378 41.3659 7.11378 41.3641 7.11428 41.3625C8.16928 35.7196 9.63356 31.6246 11.8643 28.0868C12.8085 26.5545 13.9096 25.1246 15.15 23.8204C14.1023 23.3123 13.1016 22.7129 12.1593 22.0289C5.01642 16.8646 2.58785 7.98608 6.74285 2.23608L6.78714 2.17393C6.96937 1.90637 7.17339 1.65432 7.39714 1.42036C7.67405 1.09669 8.01717 0.83617 8.40334 0.656392C8.78951 0.476614 9.20975 0.381756 9.63571 0.37822C10.1078 0.438943 10.5615 0.600013 10.9662 0.850605C11.3709 1.1012 11.7173 1.43551 11.9821 1.83108C12.7728 2.81965 13.6607 4.04536 14.6921 5.45679C17.7064 9.60393 21.8528 15.3068 26.4207 18.6825C26.4026 18.1174 26.498 17.5544 26.7013 17.0269C26.9046 16.4993 27.2116 16.0179 27.6043 15.6111C27.7471 15.4554 27.8814 15.2896 28.0286 15.1368C28.4198 14.7369 28.8452 14.372 29.3 14.0461C30.2126 13.3975 31.2297 12.9104 32.3071 12.6061C32.8433 12.4586 33.3895 12.3507 33.9414 12.2832C34.4901 12.2213 35.0423 12.1975 35.5943 12.2118C36.6868 12.2398 37.7729 12.3884 38.8328 12.6546L38.9328 12.6775C39.6443 12.8704 40.1128 13.4275 39.9771 13.9275L39.9757 13.9268ZM12.6443 37.0246C12.62 37.0118 12.5978 36.9989 12.5728 36.9868C11.697 36.5199 10.8459 36.008 10.0228 35.4532C9.70285 36.4439 9.40856 37.4911 9.13999 38.6089C9.4034 38.4277 9.67642 38.2607 9.95785 38.1089C10.8146 37.6576 11.7149 37.2943 12.645 37.0246H12.6443ZM20.2686 35.3711C18.9707 35.0597 17.7064 34.6224 16.4936 34.0654C14.7893 33.3381 13.1704 32.4249 11.6664 31.3425C11.3807 31.9282 11.11 32.5354 10.8543 33.1639C11.9713 33.9746 13.17 34.6664 14.4307 35.2282C15.2017 35.5816 15.9904 35.8951 16.7936 36.1675C17.972 35.9975 19.1344 35.7312 20.2693 35.3711H20.2686ZM25.0471 31.6411C23.1152 31.459 21.226 30.9625 19.4543 30.1711C17.568 29.4177 15.7784 28.4417 14.1236 27.2639C13.7378 27.7968 13.3807 28.3282 13.0578 28.8354C12.9864 28.9546 12.9114 29.0754 12.8378 29.1925C14.4324 30.4995 16.2503 31.5074 18.2036 32.1675C19.9272 32.8546 21.7493 33.2626 23.6014 33.3761C24.1491 32.8552 24.6347 32.2728 25.0486 31.6404L25.0471 31.6411ZM26.5614 21.8646C26.5314 21.4046 26.5021 20.9361 26.4757 20.4696C21.4236 17.1246 16.9957 11.0339 13.5471 6.29108C12.5293 4.89108 11.6493 3.68036 10.8778 2.71965C10.5722 2.25447 10.1002 1.92379 9.55856 1.79536C9.33261 1.81649 9.11326 1.88306 8.91367 1.99107C8.71409 2.09909 8.53839 2.24632 8.39713 2.42393C8.2278 2.6059 8.07259 2.80051 7.93285 3.00608L7.88999 3.06536C4.18999 8.18322 6.47714 16.1754 12.9864 20.8796C14.0095 21.6221 15.1062 22.2574 16.2593 22.7754C17.642 21.5171 19.3414 20.6595 21.175 20.2946L21.1807 20.2875L21.39 20.2589C21.67 20.1967 21.958 20.1788 22.2436 20.2061C22.7481 20.2542 23.2289 20.4434 23.6309 20.752C24.033 21.0606 24.34 21.4761 24.517 21.951C24.694 22.4259 24.7338 22.9411 24.6317 23.4375C24.5297 23.9339 24.29 24.3916 23.94 24.7582C23.6885 25.0235 23.3854 25.2345 23.0493 25.3782C22.7132 25.5219 22.3512 25.5954 21.9857 25.5939C21.9257 25.5939 21.8664 25.5939 21.8071 25.5882L21.7128 25.5825C20.3544 25.4905 19.0117 25.2378 17.7128 24.8296C18.1154 24.4206 18.5562 24.0511 19.0293 23.7261C19.9381 23.9551 20.8656 24.1019 21.8007 24.1646L21.8957 24.1696H21.9864C22.1608 24.1699 22.3334 24.1346 22.4938 24.066C22.6541 23.9974 22.7988 23.8969 22.9191 23.7706C23.0393 23.6444 23.1327 23.4949 23.1934 23.3314C23.254 23.1679 23.2809 22.9938 23.2721 22.8196C23.2633 22.6455 23.2192 22.475 23.1425 22.3184C23.0657 22.1619 22.9579 22.0226 22.8256 21.909C22.6933 21.7954 22.5393 21.7099 22.3729 21.6577C22.2066 21.6055 22.0313 21.5877 21.8578 21.6054L21.8486 21.6154L21.6128 21.6489C21.0563 21.7296 20.5117 21.8783 19.9914 22.0918C19.87 22.1368 19.7386 22.1954 19.6057 22.2589C18.9645 22.5624 18.3573 22.9331 17.7943 23.3646H17.805C17.6086 23.5075 17.4428 23.6289 17.3293 23.7168C16.9164 24.0616 16.524 24.4303 16.1543 24.8211C15.9786 25.0025 15.8064 25.1854 15.6378 25.3732C17.2746 26.6466 19.1303 27.61 21.1136 28.2161C22.7456 28.7997 24.4511 29.1523 26.1807 29.2639C26.2093 29.1761 26.24 29.0896 26.2664 29.0011C26.5371 28.0325 26.6823 27.0331 26.6986 26.0275C26.7428 24.6704 26.6514 23.2418 26.5628 21.8611L26.5614 21.8646Z" fill="#001D3E"/>
</svg>
