<svg width="107" height="23" viewBox="0 0 107 23" fill="none" xmlns="http://www.w3.org/2000/svg">
<g clip-path="url(#clip0_17_2014)">
<path fill-rule="evenodd" clip-rule="evenodd" d="M11.8602 0.852827C10.3133 0.158665 8.32994 0.0198332 6.14829 0H0V0.0594995C0 0.0793327 0 0.0991659 0 0.158665C0 0.634662 0 1.09082 0 1.56682C0 6.48545 0 11.3842 0 16.3029V17.8499H6.14829C8.29027 17.8499 10.2736 17.6912 11.8007 17.0367C14.6766 15.7872 16.3425 13.0701 16.3425 8.94476C16.3624 4.7798 14.7162 2.16182 11.8602 0.852827ZM11.2057 11.8007C10.1943 13.8436 7.69527 13.9229 4.64096 13.8039C4.64096 10.5909 4.64096 7.39778 4.64096 4.1848C4.64096 4.1253 4.64096 4.0658 4.68063 4.04597C8.68693 3.74847 11.1859 4.58146 11.6817 7.81427C11.8801 9.18276 11.6817 10.7892 11.2057 11.8007Z" fill="black"/>
<path fill-rule="evenodd" clip-rule="evenodd" d="M26.9334 5.09712C25.3666 4.38313 22.7288 4.38313 21.162 5.01779C18.3853 6.12844 16.2433 9.10342 17.0565 13.0701C17.6912 16.1839 19.9918 17.9094 23.4031 18.187C26.6954 18.4647 29.7101 16.9574 30.4042 13.9031C29.1151 13.9031 27.8061 13.9031 26.5169 13.9031C25.9814 14.9939 24.5138 15.688 23.0263 15.212C21.9156 14.855 21.2413 13.7642 21.1818 12.4156C24.3353 12.4156 27.5086 12.4156 30.662 12.4156C30.7414 8.76626 29.3729 6.20778 26.9334 5.09712ZM21.162 9.99592C21.4396 8.52826 22.3321 7.3581 23.9188 7.37794C25.3864 7.39777 26.1996 8.56793 26.4177 9.99592C24.6724 9.99592 22.9073 9.99592 21.162 9.99592Z" fill="black"/>
<path fill-rule="evenodd" clip-rule="evenodd" d="M62.7521 4.87897H58.6863V6.52513C57.8334 5.27564 56.6831 4.36331 54.4816 4.54181C53.1528 4.66081 52.1215 5.21614 51.3678 5.89046C50.2373 6.92179 49.6225 8.50844 49.4837 10.2538C49.3448 12.0189 49.7018 13.9626 50.6737 15.2914C51.586 16.5409 53.252 17.3144 55.037 17.2945C56.5839 17.2945 57.6153 16.5607 58.3094 15.7277C58.3888 15.6286 58.4681 15.4699 58.6069 15.4699C58.6268 17.0169 58.6664 18.4449 57.9128 19.139C57.1591 19.8134 55.2155 19.7737 54.5411 19.139C54.4221 19.02 54.3428 18.8614 54.2833 18.7027C54.2238 18.5639 54.1445 18.4052 54.0651 18.2267C52.6768 18.2267 51.2885 18.2267 49.92 18.2267C50.158 20.329 51.3678 21.4992 53.2916 22.0347C55.1956 22.5702 57.7938 22.5503 59.5788 21.8562C61.2447 21.2215 62.3752 19.6944 62.6331 17.7507C62.8116 16.5012 62.7124 15.0534 62.7124 13.5064C62.7521 10.6108 62.7521 4.87897 62.7521 4.87897ZM56.5839 14.0221C54.9973 14.2402 53.9065 13.1097 53.7478 11.6223C53.5296 9.57944 54.2238 8.05228 55.8501 7.81428C56.5641 7.71512 57.2384 7.89362 57.6351 8.21095C59.2218 9.42077 59.2019 13.6849 56.5839 14.0221Z" fill="black"/>
<path fill-rule="evenodd" clip-rule="evenodd" d="M89.8642 12.5742C89.8642 11.0868 89.9633 9.57943 89.8642 8.29027C89.6063 5.0178 86.433 4.28397 82.8631 4.52197C80.1062 4.7203 77.8254 5.94996 77.7064 8.88527C79.0154 8.88527 80.3244 8.88527 81.6334 8.88527C81.7921 8.5481 81.7921 8.29027 81.9904 8.01261C82.7044 7.00112 85.4017 6.94162 85.7587 8.27044C86.1157 9.63893 84.9257 9.75793 83.7952 9.93643C81.4152 10.3133 79.0154 10.4323 77.8453 11.9396C76.7544 13.3477 77.1313 15.9459 78.2023 17.0169C78.9559 17.7705 80.1261 18.1275 81.3161 18.2069C83.0217 18.306 84.5291 17.711 85.4215 16.9772C85.5604 16.8582 85.719 16.7392 85.8975 16.6797C85.8777 16.997 85.9769 17.5127 86.1157 17.8102C87.5239 17.8102 88.9518 17.8102 90.36 17.8102C89.7452 16.5012 89.8642 14.4981 89.8642 12.5742ZM84.3505 15.4302C83.2994 15.7872 81.7524 15.5889 81.4549 14.5972C81.3557 14.2799 81.3557 13.9031 81.4946 13.5461C81.9706 12.3164 84.3505 12.4354 85.6397 11.8801C85.6397 11.8404 85.6595 11.8404 85.6794 11.8404C85.719 11.8404 85.719 11.8602 85.719 11.8801C85.838 13.4866 85.5604 15.0137 84.3505 15.4302Z" fill="black"/>
<path fill-rule="evenodd" clip-rule="evenodd" d="M39.2299 14.7559C38.3771 15.7475 35.2038 15.7475 35.3823 13.9626C35.4418 13.3279 36.2351 12.9907 36.9094 12.8321C39.0514 12.2966 41.7091 12.0784 42.8197 10.6901C43.375 9.97609 43.613 8.56793 43.3949 7.53661C43.2362 6.82261 42.6809 6.12845 42.2644 5.79129C41.0546 4.79963 38.8729 4.38313 36.6318 4.52196C33.9543 4.70046 31.8321 5.77145 31.5941 8.6671H35.5013C35.5806 8.3101 35.6203 8.0126 35.8781 7.75477C36.6516 6.96144 39.2696 7.06061 39.2497 8.23077C39.2299 8.76626 38.6151 9.10343 38.1193 9.28193C36.5128 9.87692 34.0931 9.89675 32.8635 10.6306C32.0106 11.1462 31.2173 12.0982 31.1578 13.4667C31.1182 14.8154 31.5941 15.8467 32.3478 16.5805C34.6088 18.782 40.5191 18.782 42.661 16.4417C43.2957 15.7475 43.6329 14.736 43.7122 13.5659H39.6662C39.5671 14.0419 39.5076 14.4386 39.2299 14.7559Z" fill="black"/>
<path fill-rule="evenodd" clip-rule="evenodd" d="M72.4109 10.7298C72.4109 11.3049 72.3712 11.8801 72.3117 12.3759C72.272 12.7131 72.1332 13.0899 72.0539 13.2882C71.6175 14.3394 70.0309 15.3112 68.6426 14.3791C68.1864 14.0816 67.9286 13.4469 67.9087 12.8122C67.8096 10.4323 67.8492 4.8988 67.8492 4.8988C67.8492 4.8988 66.8972 4.8988 65.4891 4.8988H65.3701C64.8742 4.8988 64.3189 4.8988 63.7239 4.8988H63.6248V10.6901H63.6446C63.5653 13.9229 63.7636 16.7987 66.0047 17.8102C66.3419 17.9689 66.7981 18.0879 67.1947 18.1672C68.9797 18.4647 70.5664 17.949 71.5184 17.1557C71.8754 16.8582 72.1134 16.4417 72.4307 16.1442V17.8499H76.5758V4.87897H72.4307V10.7298H72.4109Z" fill="black"/>
<path d="M95.1597 0.0198364H90.9551V17.8102H95.1597V0.0198364Z" fill="black"/>
<path d="M48.7697 4.91864H44.5254V17.8102H48.7697V4.91864Z" fill="black"/>
<path d="M48.7697 0.0198364H44.5254V3.29231H48.7697V0.0198364Z" fill="black"/>
<path d="M104.045 15.6682C104.025 15.6484 103.985 15.6286 103.965 15.5492C103.946 15.4699 103.946 15.2914 103.946 15.2319V14.9741C103.946 14.6766 103.906 14.4584 103.827 14.3196C103.787 14.2402 103.708 14.1609 103.628 14.1014C103.747 14.0221 103.846 13.9229 103.906 13.7841C104.005 13.5857 104.065 13.3874 104.065 13.1891C104.065 13.0304 104.045 12.8717 103.985 12.7329C103.926 12.6139 103.866 12.4949 103.767 12.3759C103.648 12.2371 103.509 12.1379 103.351 12.0784C103.192 12.0189 102.974 11.9792 102.696 11.9594H100.733V16.045H101.784V14.5576H102.418C102.656 14.5576 102.736 14.6171 102.775 14.6369C102.795 14.6567 102.855 14.7361 102.855 15.0137V15.3707C102.855 15.4897 102.875 15.6087 102.894 15.7079C102.894 15.7475 102.914 15.8269 102.954 15.926L102.974 16.0252H104.104V15.7079L104.045 15.6682ZM101.804 12.9114H102.537C102.676 12.9114 102.775 12.9312 102.835 12.9511C102.875 12.9709 102.974 13.0304 102.974 13.2882C102.974 13.4866 102.894 13.5461 102.835 13.5857C102.795 13.6056 102.696 13.6254 102.518 13.6254H101.804V12.9114Z" fill="black"/>
<path d="M102.419 18.5837C99.8998 18.5837 97.8372 16.5211 97.8372 14.0022C97.8372 11.4834 99.8998 9.42078 102.419 9.42078C104.937 9.42078 107 11.4834 107 14.0022C107 16.5211 104.957 18.5837 102.419 18.5837ZM102.419 10.8488C100.673 10.8488 99.2651 12.2569 99.2651 14.0022C99.2651 15.7476 100.673 17.1557 102.419 17.1557C104.164 17.1557 105.572 15.7476 105.572 14.0022C105.572 12.2569 104.164 10.8488 102.419 10.8488Z" fill="black"/>
</g>
<defs>
<clipPath id="clip0_17_2014">
<rect width="107" height="22.3917" fill="white"/>
</clipPath>
</defs>
</svg>
