<svg width="107" height="29" viewBox="0 0 107 29" fill="none" xmlns="http://www.w3.org/2000/svg">
<g clip-path="url(#clip0_17_1913)">
<path d="M55.2846 3.02985C55.9902 3.02985 56.7041 3.03815 57.4097 3.02985C57.4014 8.4587 57.418 13.8959 57.4014 19.3247C56.7456 19.3164 56.0898 19.3247 55.4424 19.3247C55.4424 18.8267 55.4424 18.3369 55.4424 17.8388C54.9028 18.6357 54.081 19.2334 53.143 19.4492C51.7235 19.7896 50.1712 19.5156 48.9676 18.6855C47.7722 17.8969 47.0252 16.5771 46.7097 15.1991C46.3694 13.6053 46.4773 11.9036 47.0833 10.3845C47.4319 9.49633 48.0213 8.68283 48.8182 8.14326C49.8724 7.42108 51.1923 7.13884 52.454 7.27996C53.5497 7.41278 54.5957 7.99385 55.2763 8.86545C55.2763 6.92302 55.2846 4.98058 55.2846 3.02985ZM51.3998 8.97336C50.8104 9.08128 50.2625 9.38841 49.8392 9.82007C49.1336 10.5007 48.868 11.4969 48.7684 12.4432C48.677 13.4725 48.6937 14.5267 49.0091 15.5146C49.2498 16.3031 49.7728 17.0004 50.4618 17.4487C51.35 18.0381 52.5536 18.0962 53.5082 17.6313C54.2055 17.2827 54.7783 16.685 55.0688 15.9628C55.4922 14.9335 55.5088 13.7879 55.4258 12.6922C55.3344 11.5965 55.0024 10.4426 54.1391 9.71215C53.4086 9.03977 52.3544 8.79074 51.3998 8.97336Z" fill="#190704"/>
<path d="M90.4479 5.34583C90.4064 4.57383 90.4313 3.80184 90.4396 3.02985C91.1452 3.03815 91.8507 3.02985 92.5646 3.02985C92.5646 3.80184 92.5646 4.56553 92.5646 5.33753C91.8507 5.33753 91.1452 5.32923 90.4479 5.34583Z" fill="#190704"/>
<path d="M36.79 7.36298C38.1514 7.13055 39.6041 7.23846 40.8492 7.87764C41.9948 8.46701 42.9079 9.49634 43.3478 10.7083C43.7297 11.7376 43.821 12.8416 43.7712 13.9291C40.65 13.9208 37.5288 13.9291 34.4159 13.9208C34.4823 14.9916 34.7978 16.1122 35.5781 16.8842C36.7402 18.0796 38.7656 18.2871 40.1602 17.3906C40.8243 16.9506 41.2394 16.2368 41.5133 15.5063C42.2521 15.5976 42.9909 15.6806 43.7214 15.7636C43.4059 16.9008 42.7169 17.9634 41.7291 18.6275C40.4425 19.5157 38.7989 19.69 37.2798 19.5406C35.8686 19.4077 34.4657 18.7852 33.5443 17.6811C32.6229 16.6103 32.2576 15.1659 32.2327 13.7797C32.1912 12.3104 32.4486 10.7664 33.3202 9.53784C34.1088 8.384 35.4037 7.59541 36.79 7.36298ZM35.7275 9.73707C34.9804 10.3596 34.5819 11.3309 34.5321 12.2938C36.8647 12.2938 39.1973 12.2938 41.5216 12.2938C41.4469 11.6048 41.3058 10.8992 40.9156 10.3098C40.4342 9.62915 39.6788 9.13109 38.8487 8.98168C37.7695 8.77415 36.5742 8.99828 35.7275 9.73707Z" fill="#190704"/>
<path d="M65.3206 7.40448C66.4246 7.17206 67.5951 7.18866 68.6908 7.5041C69.9194 7.86104 70.9985 8.69114 71.6626 9.77857C72.418 11.0154 72.6006 12.5013 72.5342 13.9291C69.413 13.9291 66.2918 13.9291 63.1706 13.9291C63.2453 15.0497 63.5857 16.2284 64.449 17.0004C65.3372 17.8471 66.6571 18.1045 67.8358 17.8471C68.475 17.706 69.081 17.3657 69.5043 16.8593C69.8364 16.4692 70.0854 16.0043 70.2597 15.5229C70.9985 15.5893 71.7373 15.6889 72.4761 15.7719C72.2271 16.6103 71.812 17.4155 71.1895 18.0381C70.459 18.8018 69.4628 19.2749 68.4252 19.4575C67.2464 19.6651 66.0179 19.6319 64.864 19.3164C63.594 18.9595 62.4567 18.1211 61.8009 16.9755C61.1203 15.8134 60.9376 14.4271 60.9874 13.099C61.0289 11.9036 61.3112 10.6751 61.9836 9.67066C62.7307 8.51682 63.9675 7.68672 65.3206 7.40448ZM64.175 10.0442C63.6189 10.6585 63.3449 11.472 63.2868 12.2938C65.6194 12.2938 67.952 12.2938 70.2846 12.2938C70.2016 11.4471 69.9858 10.5423 69.3549 9.92799C68.0184 8.49191 65.4534 8.58323 64.175 10.0442Z" fill="#190704"/>
<path d="M79.0174 8.11839C79.7894 7.55392 80.744 7.28829 81.6903 7.26338C82.7695 7.21358 83.8818 7.446 84.7949 8.02708C85.4009 8.40892 85.7993 9.0481 86.0151 9.72048C86.2393 10.3846 86.231 11.0984 86.2476 11.7874C86.2476 14.3026 86.2476 16.8095 86.2476 19.3247C85.5337 19.3247 84.8281 19.3247 84.1142 19.3247C84.1142 16.9258 84.1142 14.5185 84.1142 12.1195C84.1059 11.5052 84.081 10.866 83.8486 10.2932C83.5747 9.64577 82.9189 9.23072 82.2631 9.073C81.4579 8.89868 80.5863 8.99829 79.8392 9.36354C79.3412 9.61257 78.8846 9.97781 78.6273 10.4842C78.2288 11.2728 78.1707 12.1693 78.1707 13.0326C78.1707 15.1327 78.1707 17.2246 78.1707 19.3247C77.4568 19.333 76.7513 19.3247 76.0374 19.3247C76.0291 15.3901 76.0374 11.4554 76.0374 7.52071C76.6766 7.52071 77.3157 7.52071 77.9549 7.52071C77.9466 8.06858 77.9549 8.62475 77.9549 9.17261C78.2703 8.78247 78.6024 8.40062 79.0174 8.11839Z" fill="#190704"/>
<path d="M98.0017 8.50023C99.114 7.63693 100.542 7.22188 101.936 7.25508C103.132 7.26338 104.36 7.57882 105.298 8.35081C106.112 9.00659 106.61 9.98611 106.809 10.9988C106.112 11.0652 105.423 11.2313 104.726 11.2728C104.56 10.534 104.169 9.79519 103.522 9.37184C102.85 8.90698 101.986 8.82397 101.198 8.95679C100.509 9.0647 99.8611 9.38844 99.3797 9.8865C98.8567 10.3929 98.5662 11.0985 98.425 11.7957C98.2507 12.6673 98.2424 13.5639 98.3337 14.4521C98.4334 15.3403 98.6741 16.2617 99.305 16.9258C100.392 18.1128 102.393 18.2871 103.688 17.3574C104.443 16.8179 104.775 15.8964 104.925 15.0165C105.622 15.0912 106.319 15.1743 107.017 15.2739C106.817 16.5854 106.145 17.8555 105.041 18.6275C103.688 19.6153 101.887 19.7813 100.276 19.4493C98.7986 19.1421 97.4538 18.1626 96.7731 16.8096C96.0842 15.4482 95.9928 13.871 96.1423 12.3768C96.3 10.9241 96.8396 9.42995 98.0017 8.50023Z" fill="#190704"/>
<path d="M90.4229 11.5384C90.4395 10.1936 90.398 8.84885 90.4395 7.51239C91.145 7.53729 91.8506 7.52069 92.5561 7.52069C92.5478 11.4554 92.5561 15.39 92.5478 19.3247C91.8423 19.3164 91.1284 19.3247 90.4146 19.3247C90.4229 16.7348 90.4229 14.1366 90.4229 11.5384Z" fill="#190704"/>
<path d="M27.6341 14.5351C27.5179 12.7088 26.9784 10.9075 26.0486 9.33033C26.0071 9.26393 25.9656 9.18922 25.9241 9.12281C25.8992 9.16431 25.8411 9.24732 25.8162 9.28883C25.8411 9.23902 25.8909 9.14771 25.9158 9.09791C24.8699 7.3879 23.4089 5.94352 21.757 4.81458C19.3331 3.16268 16.3697 2.41559 13.456 2.5069C13.5722 2.24957 13.3979 1.99224 13.2319 1.80132C12.3022 0.8218 11.057 0.0747091 9.68735 0H9.08138C7.75322 0.132816 6.47486 0.705586 5.44554 1.55229C6.86501 1.84282 8.27618 2.14996 9.69565 2.41559C10.2767 2.52351 10.8661 2.64802 11.4555 2.69783C9.47153 2.93026 7.56229 3.71055 5.89379 4.81458C3.86004 6.19255 2.13343 8.06858 1.09581 10.3099C0.0664813 12.5428 -0.207452 15.0912 0.149491 17.5068C0.232501 18.1709 0.46493 18.8101 0.63095 19.4659C0.780368 20.0386 1.0543 20.5699 1.31993 21.0929C1.74329 21.9562 2.24965 22.7863 2.90543 23.5002C3.81024 24.5627 4.85616 25.509 6.01831 26.2893C6.8318 26.8289 7.71171 27.2688 8.65803 27.5178C8.97347 27.5926 9.36361 27.6175 9.61264 27.3767C9.87828 27.0945 9.84507 26.6379 9.60434 26.3557C9.10628 25.7331 8.33429 25.4675 7.67851 25.0607C5.71117 23.8737 4.09247 22.1139 3.02164 20.0718C1.8761 17.8306 1.39464 15.1659 2.08363 12.7088C2.7062 10.4261 4.21699 8.49193 5.9851 6.98115C7.71171 5.50357 9.86167 4.49915 12.1278 4.23351C15.2656 3.86827 18.5113 4.65687 21.1926 6.30877C22.1638 6.91474 23.0188 7.71164 23.6497 8.66625C23.7742 8.85718 23.9153 9.0481 23.9817 9.27223C23.7742 8.95679 23.4836 8.69946 23.1931 8.45873C22.5373 7.92746 21.8151 7.48751 21.0846 7.06416C19.9308 6.39178 18.5943 6.05144 17.2662 6.00993C14.8008 5.92692 12.2607 6.48309 10.1937 7.87766C8.39239 9.0813 7.08914 11.0071 6.59938 13.1156C6.35035 14.1864 6.42505 15.2988 6.65748 16.3613C6.87331 17.3325 7.29666 18.2788 8.01055 18.9761C8.36749 19.3247 8.76594 19.6236 9.18099 19.8892C10.0858 20.462 11.0902 20.8687 12.1195 21.1842C14.0122 21.732 15.7969 22.6784 17.2662 24.0065C17.7642 24.4631 18.1544 25.0607 18.254 25.7331C18.3536 26.3557 18.1959 26.9949 17.922 27.551C17.8472 27.7171 17.7227 27.8665 17.6978 28.0574H17.7559C18.503 27.7918 19.275 27.5676 19.9889 27.2107C21.4499 26.5217 22.7697 25.5505 23.9153 24.4133C25.6585 22.7033 26.9535 20.4952 27.4183 18.0879C27.6756 16.9175 27.6756 15.7221 27.6341 14.5351Z" fill="url(#paint0_linear_17_1913)"/>
<path d="M36.0265 22.587C37.1969 22.3546 38.4836 22.4459 39.5212 23.0768C39.6291 23.1598 39.7952 23.2179 39.845 23.359C39.5461 23.4586 39.2556 23.5665 38.9568 23.6662C38.301 23.0934 37.3713 22.9274 36.5329 23.0851C36.0265 23.1764 35.5533 23.5001 35.3458 23.9816C35.0968 24.5793 35.1051 25.3264 35.4703 25.8825C35.8107 26.3889 36.4499 26.5798 37.0309 26.5964C37.6037 26.6047 38.1848 26.5549 38.7243 26.3557C38.716 25.9739 38.716 25.5837 38.7243 25.2019C38.0519 25.1686 37.3796 25.1936 36.7072 25.1853C36.7072 25.0109 36.7072 24.8283 36.7072 24.654C37.7365 24.654 38.7658 24.654 39.7952 24.654C39.7952 25.3181 39.7952 25.9905 39.7952 26.6545C38.7326 27.0696 37.5622 27.2273 36.4332 27.0945C35.7609 27.0115 35.0636 26.7791 34.5904 26.2644C33.9429 25.5588 33.8765 24.405 34.3912 23.5998C34.7564 23.0436 35.3873 22.7198 36.0265 22.587Z" fill="#658E02"/>
<path d="M101.322 22.7863C102.119 22.446 103.007 22.4211 103.854 22.5207C104.568 22.6037 105.315 22.9357 105.655 23.6081C105.306 23.6496 104.958 23.7326 104.609 23.7658C104.427 23.3425 103.995 23.11 103.555 23.0519C103.057 22.9855 102.526 23.0021 102.053 23.193C101.837 23.2761 101.621 23.4919 101.72 23.7409C101.803 24.0065 102.102 24.1062 102.335 24.1809C103.082 24.3884 103.845 24.5461 104.593 24.737C104.983 24.8533 105.389 25.0193 105.63 25.3596C105.879 25.7166 105.763 26.2312 105.448 26.5135C105.033 26.887 104.468 27.0198 103.937 27.1028C103.107 27.1941 102.235 27.1775 101.447 26.887C100.948 26.6961 100.467 26.3391 100.309 25.8079C100.633 25.7581 100.948 25.6917 101.272 25.6502C101.405 25.9988 101.679 26.2893 102.028 26.4221C102.584 26.6463 103.206 26.638 103.796 26.5467C104.111 26.4803 104.485 26.364 104.642 26.0486C104.759 25.8162 104.642 25.5339 104.427 25.4094C103.995 25.1438 103.48 25.0857 103.007 24.9695C102.385 24.8117 101.737 24.7287 101.164 24.4465C100.865 24.3054 100.6 24.0149 100.616 23.6662C100.608 23.2429 100.973 22.944 101.322 22.7863Z" fill="#658E02"/>
<path d="M50.1382 26.97C51.0181 25.4924 51.898 24.0148 52.7862 22.5372C53.2511 22.5455 53.7159 22.5289 54.1808 22.5455C55.0524 24.0231 55.9323 25.4924 56.8205 26.9617C56.4635 27.0281 56.1066 27.0945 55.7497 27.1775C55.4923 26.7375 55.235 26.2976 54.986 25.841C53.9899 25.8161 52.9937 25.8327 51.9893 25.8327C51.7403 26.281 51.4663 26.7126 51.2173 27.1609C50.8604 27.1194 50.5034 27.0364 50.1382 26.97ZM52.2964 25.3098C53.085 25.3015 53.8819 25.3098 54.6705 25.3098C54.2555 24.6291 53.8819 23.9235 53.4752 23.2345C53.085 23.9235 52.6866 24.6125 52.2964 25.3098Z" fill="#658E02"/>
<path d="M67.064 22.5455C67.5371 22.5455 68.0103 22.5455 68.4834 22.5455C68.9898 23.2013 69.4962 23.8488 69.9942 24.5046C70.4923 23.8488 70.9987 23.2096 71.4967 22.5538C71.9699 22.5289 72.4513 22.5538 72.9245 22.5455C73.049 24.0563 73.1486 25.5671 73.2648 27.0696C72.883 27.0696 72.5011 27.0696 72.1193 27.0696C72.0446 25.8576 71.9782 24.6374 71.9118 23.4171C71.2311 24.1642 70.65 25.0192 69.9942 25.7912C69.3551 24.9943 68.7408 24.1808 68.085 23.3922C68.0186 24.6125 67.9439 25.8327 67.8775 27.0613C67.4956 27.0779 67.1055 27.0613 66.7236 27.0696C66.8398 25.5588 66.9561 24.048 67.064 22.5455Z" fill="#658E02"/>
<path d="M84.2056 27.053C84.2139 25.5505 84.2056 24.0397 84.2139 22.5372C85.9571 22.5455 87.7003 22.5372 89.4435 22.5372C89.4435 22.7116 89.4435 22.8859 89.4435 23.0685C88.0572 23.0768 86.671 23.0519 85.293 23.0851C85.3013 23.5168 85.3013 23.9567 85.293 24.3967C86.4385 24.4465 87.5841 24.405 88.7296 24.4216C88.7296 24.5959 88.7296 24.7702 88.7296 24.9528C87.5841 24.9528 86.4468 24.9528 85.3013 24.9528C85.3013 25.4841 85.2847 26.0237 85.3096 26.5549C86.6876 26.5383 88.0572 26.5632 89.4352 26.5466C89.4518 26.7209 89.4684 26.9119 89.4352 27.0862C87.692 27.053 85.9488 27.0862 84.2056 27.053Z" fill="#658E02"/>
<path opacity="0.85" d="M19.466 22.2384C22.1662 22.2384 24.3553 20.0494 24.3553 17.3491C24.3553 14.6488 22.1662 12.4598 19.466 12.4598C16.7657 12.4598 14.5767 14.6488 14.5767 17.3491C14.5767 20.0494 16.7657 22.2384 19.466 22.2384Z" fill="url(#paint1_radial_17_1913)"/>
</g>
<defs>
<linearGradient id="paint0_linear_17_1913" x1="5.58488" y1="0.523271" x2="21.3533" y2="29.1353" gradientUnits="userSpaceOnUse">
<stop stop-color="#008724"/>
<stop offset="0.3136" stop-color="#09901C"/>
<stop offset="0.8244" stop-color="#21A808"/>
<stop offset="0.9955" stop-color="#2BB100"/>
</linearGradient>
<radialGradient id="paint1_radial_17_1913" cx="0" cy="0" r="1" gradientUnits="userSpaceOnUse" gradientTransform="translate(19.4643 17.3492) scale(4.88874)">
<stop offset="0.00446926" stop-color="#7BBB00"/>
<stop offset="0.2207" stop-color="#78BA00" stop-opacity="0.7827"/>
<stop offset="0.3966" stop-color="#6EB801" stop-opacity="0.6061"/>
<stop offset="0.5583" stop-color="#5DB501" stop-opacity="0.4437"/>
<stop offset="0.7114" stop-color="#45B003" stop-opacity="0.2899"/>
<stop offset="0.8571" stop-color="#26AA04" stop-opacity="0.1435"/>
<stop offset="0.998" stop-color="#01A306" stop-opacity="0.01"/>
<stop offset="1" stop-color="#00A306" stop-opacity="0"/>
</radialGradient>
<clipPath id="clip0_17_1913">
<rect width="107" height="28.0574" fill="white"/>
</clipPath>
</defs>
</svg>
