<svg width="107" height="53" viewBox="0 0 107 53" fill="none" xmlns="http://www.w3.org/2000/svg">
<g clip-path="url(#clip0_17_1888)">
<path fill-rule="evenodd" clip-rule="evenodd" d="M106.798 5.83207C108.079 17.9682 104.135 57.2083 87.2115 44.0608C63.2764 25.4521 45.0048 49.2861 40.5886 34.3856C38.6671 27.913 44.3306 5.36011 68.8051 4.75331C91.6277 4.1465 105.517 -6.30403 106.798 5.83207Z" fill="#9AAE04"/>
<path fill-rule="evenodd" clip-rule="evenodd" d="M61.6583 13.9565C61.6245 13.2823 61.456 12.7429 61.1863 12.2709C60.9166 11.799 60.4109 11.563 59.6693 11.5293C58.9276 11.563 58.3208 11.799 57.8826 12.3047C57.4443 12.7766 57.2084 13.316 57.1409 13.9565H61.6583V13.9565ZM57.4443 16.7208C57.6803 17.3614 58.0511 17.867 58.5568 18.2716C59.0625 18.6761 59.7367 18.8784 60.5795 18.8784C61.0852 18.8784 61.6245 18.7098 62.1302 18.4064C62.6359 18.103 63.0404 17.7659 63.3775 17.3614L63.445 17.2602L63.9169 17.5973L63.8495 17.6985C63.3438 18.4064 62.737 19.0132 62.0291 19.4852C61.2874 19.9571 60.4784 20.1931 59.5344 20.2268C58.6242 20.2268 57.8826 20.0246 57.2421 19.62C56.6353 19.2155 56.1633 18.6761 55.8599 17.9682C55.5565 17.2939 55.3879 16.5186 55.3879 15.6421C55.3879 14.7656 55.5902 13.9565 55.9947 13.2486C56.3993 12.5406 56.9387 11.9338 57.6129 11.4956C58.2871 11.0573 59.0625 10.8214 59.939 10.8214C61.0852 10.8214 62.0291 11.1922 62.6696 11.8664C63.3101 12.5406 63.6472 13.4508 63.6809 14.597V14.7319H57.0735C57.1072 15.4398 57.2084 16.0803 57.4443 16.7208Z" fill="white"/>
<path fill-rule="evenodd" clip-rule="evenodd" d="M73.3224 11.5967H73.2213C73.019 11.6304 72.8167 11.6979 72.6145 11.8664C72.4122 12.0013 72.2436 12.3384 72.1088 12.7092L69.5467 19.9909L67.8611 20.0246L65.3665 13.3497C65.1979 12.8103 64.9957 12.4395 64.7597 12.1698C64.5237 11.9001 64.1866 11.6642 63.7484 11.6304H63.6472V10.9899C63.6472 10.9899 67.6252 10.9899 67.76 10.9899H67.8949V11.6304H67.76C67.3892 11.6642 67.1532 11.7316 67.0184 11.799C66.8835 11.9001 66.8498 12.0013 66.8498 12.1698C66.8498 12.2373 66.8835 12.3721 66.9172 12.5407C66.9509 12.7092 68.6702 17.3277 69.1422 18.6424C69.6141 17.3614 71.2323 12.8441 71.266 12.6755C71.3334 12.4732 71.3671 12.3047 71.3334 12.1361C71.3334 12.0013 71.266 11.9001 71.1312 11.799C70.9963 11.6979 70.7603 11.6304 70.3895 11.6304H70.2547V10.9899H70.3895C70.5243 10.9899 73.3561 10.9899 73.3561 10.9899L73.3224 11.5967Z" fill="white"/>
<path fill-rule="evenodd" clip-rule="evenodd" d="M79.5252 13.9565C79.4915 13.2823 79.3229 12.7429 79.0532 12.2709C78.7836 11.799 78.2779 11.563 77.5362 11.5293C76.7946 11.563 76.1878 11.799 75.7495 12.3047C75.3113 12.7766 75.0753 13.316 75.0079 13.9565H79.5252V13.9565ZM75.3113 16.7208C75.5473 17.3614 75.9181 17.867 76.4238 18.2716C76.9294 18.6761 77.6037 18.8784 78.4464 18.8784C78.9521 18.8784 79.4915 18.7098 79.9972 18.4064C80.5028 18.103 80.9074 17.7659 81.2445 17.3614L81.3119 17.2602L81.7839 17.5973L81.7164 17.6985C81.2108 18.4064 80.604 19.0132 79.896 19.4852C79.1544 19.9571 78.3453 20.1931 77.4014 20.2268C76.4912 20.2268 75.7495 20.0246 75.109 19.62C74.5022 19.2155 74.0302 18.6761 73.7268 17.9682C73.4234 17.2939 73.2549 16.5186 73.2549 15.6421C73.2549 14.7656 73.4572 13.9565 73.8617 13.2486C74.2662 12.5406 74.8056 11.9338 75.4798 11.4956C76.1541 11.0573 76.9631 10.8214 77.8059 10.8214C78.9521 10.8214 79.896 11.1922 80.5365 11.8664C81.1771 12.5406 81.5142 13.4508 81.5479 14.597V14.7319H74.9405C74.9742 15.4398 75.0753 16.0803 75.3113 16.7208Z" fill="white"/>
<path fill-rule="evenodd" clip-rule="evenodd" d="M86.672 11.3944C87.2451 11.0236 87.8856 10.8214 88.5936 10.8214C88.7621 10.8214 88.9307 10.8551 89.1667 10.9225C89.369 10.9899 89.5712 11.0236 89.7061 11.091L89.7735 11.1248V12.9789H88.4925L88.4587 12.8777C88.425 12.6418 88.3239 12.4395 88.2228 12.2372C88.1216 12.035 87.9194 11.9338 87.6497 11.9338C87.1777 11.9675 86.7395 12.1361 86.3349 12.4395C85.9304 12.7429 85.5596 13.0463 85.2562 13.3834V18.5076C85.2562 18.7772 85.2899 18.9458 85.3573 19.0806C85.4247 19.1818 85.5596 19.2829 85.8293 19.3503C86.0652 19.3841 86.4361 19.4178 86.9417 19.4178H87.0766V20.0583H81.885V19.4178H82.0199C82.6941 19.4178 83.0649 19.3503 83.2335 19.2492C83.402 19.1481 83.4695 18.9121 83.4357 18.5076V12.7766C83.4695 12.4058 83.3683 12.1698 83.2335 12.035C83.0649 11.9338 82.6941 11.8664 82.0199 11.8664H81.885V11.2259H82.0199C82.5592 11.1922 83.0312 11.1248 83.5369 11.091C84.0088 11.0236 84.4808 10.9562 84.919 10.8551L85.0539 10.8214L85.2224 12.6081C85.6607 12.1361 86.1327 11.7316 86.672 11.3944Z" fill="white"/>
<path fill-rule="evenodd" clip-rule="evenodd" d="M97.3922 17.5299C97.527 18.2379 97.7967 18.7435 98.1675 19.0132C98.5721 19.3166 99.1451 19.4515 99.8868 19.4515C100.156 19.4515 100.46 19.4178 100.763 19.3166C101.067 19.2155 101.303 19.0806 101.505 18.8784C101.707 18.6761 101.808 18.4401 101.808 18.103C101.808 17.7322 101.64 17.3951 101.303 17.1591C100.966 16.8894 100.527 16.6871 99.9879 16.4512C99.4486 16.2489 98.9429 16.0129 98.4035 15.7769C97.8641 15.5409 97.4259 15.2038 97.055 14.833C96.6842 14.4285 96.5157 13.9228 96.482 13.316C96.482 12.7429 96.6842 12.2709 97.0213 11.9001C97.3584 11.5293 97.7967 11.2596 98.3024 11.091C98.808 10.9225 99.3137 10.8214 99.8194 10.8214C100.325 10.8214 100.797 10.8888 101.303 11.0236C101.775 11.1585 102.247 11.2933 102.685 11.4619H102.82V13.1811H101.943L101.909 13.08C101.808 12.5743 101.572 12.1698 101.202 11.9001C100.831 11.5967 100.359 11.4619 99.8194 11.4619C99.3811 11.4619 98.9766 11.563 98.6395 11.799C98.3024 12.0012 98.1001 12.3384 98.1001 12.8103C98.1001 13.1137 98.2687 13.3834 98.6395 13.6194C98.9766 13.8554 99.4148 14.0914 99.9542 14.3273C100.494 14.5633 100.999 14.7993 101.539 15.0353C102.078 15.305 102.516 15.6084 102.853 15.9792C103.224 16.35 103.426 16.822 103.426 17.3614C103.426 18.0019 103.258 18.5413 102.955 18.9795C102.651 19.4178 102.213 19.7212 101.707 19.9234C101.202 20.1257 100.628 20.2268 100.022 20.2268C99.3811 20.2268 98.7406 20.1257 98.1001 19.9909C97.4596 19.8223 96.9202 19.62 96.5157 19.384L96.4482 17.4625H97.4596L97.3922 17.5299Z" fill="white"/>
<path fill-rule="evenodd" clip-rule="evenodd" d="M93.9536 8.49528C93.7513 8.73126 93.4479 8.83239 93.1108 8.83239C92.7737 8.83239 92.504 8.69755 92.268 8.49528C92.0658 8.2593 91.9309 7.98961 91.9309 7.65249C91.9309 7.31538 92.0658 7.04569 92.268 6.80971C92.4703 6.57373 92.7737 6.4726 93.1108 6.4726C93.4479 6.4726 93.7176 6.60744 93.9536 6.80971C94.1559 7.04569 94.2907 7.31538 94.2907 7.65249C94.2907 8.02332 94.1896 8.29301 93.9536 8.49528Z" fill="white"/>
<path fill-rule="evenodd" clip-rule="evenodd" d="M90.7511 11.8327H90.6162V11.1922H90.7511C91.8298 11.1248 92.9086 10.9899 93.9536 10.8214L94.1222 10.7877C94.1222 10.7877 94.0885 16.9231 94.0885 17.8333C94.0548 18.4739 94.1559 18.8784 94.3245 19.0807C94.493 19.2492 94.8301 19.3504 95.4707 19.3841H95.6055V20.0246H90.6162V19.3841H90.7511C91.459 19.3504 91.8635 19.2492 92.0658 19.0807C92.2344 18.9121 92.3355 18.5076 92.3018 17.8333V13.0126C92.3355 12.4732 92.2344 12.1698 92.0321 12.035C91.7961 11.9001 91.3916 11.799 90.7511 11.8327Z" fill="white"/>
<path d="M0.134826 48.6119C0.438228 48.2747 0.910188 48.1399 1.38215 48.1399C2.29236 48.1399 2.69689 48.5781 2.69689 49.4546V50.8031C2.69689 50.9717 2.7306 51.1739 2.7306 51.3425H2.22493C2.19122 51.2076 2.19122 51.0054 2.19122 50.8705C1.98895 51.1739 1.65184 51.4099 1.17988 51.4099C0.539362 51.4099 0.0336914 51.1065 0.0336914 50.4997C0.0336914 49.4883 1.21359 49.4209 1.98895 49.4209H2.19122V49.3198C2.19122 48.8815 1.92153 48.6456 1.41586 48.6456C1.07874 48.6456 0.741631 48.7467 0.505651 48.9827L0.134826 48.6119ZM1.65184 49.8255C0.977611 49.8255 0.573074 49.994 0.573074 50.4323C0.573074 50.8368 0.876476 50.9717 1.2473 50.9717C1.85411 50.9717 2.15751 50.5334 2.15751 50.0277V49.8255H1.65184Z" fill="#848483"/>
<path d="M3.64089 48.949C3.64089 48.6793 3.60718 48.4096 3.60718 48.2073H4.11285C4.11285 48.3759 4.11285 48.5445 4.11285 48.713C4.24769 48.4096 4.65223 48.1062 5.1579 48.1062C5.96698 48.1062 6.3378 48.6119 6.3378 49.3872V51.3088H5.83213V49.4547C5.83213 48.949 5.59615 48.6119 5.12419 48.6119C4.44996 48.6119 4.14656 49.0838 4.14656 49.7918V51.3088H3.64089V48.949Z" fill="#848483"/>
<path d="M9.03467 46.6229H10.4505L12.4395 49.8929V46.6229H13.4846V51.3087H12.1361L10.0797 47.9713V51.3087H9.03467V46.6229V46.6229Z" fill="#848483"/>
<path d="M15.305 47.5331H13.9565V46.6229H17.6648V47.5331H16.3163V51.3087H15.2713L15.305 47.5331Z" fill="#848483"/>
<path d="M19.0806 47.5331H17.7322V46.6229H21.4404V47.5331H20.092V51.3087H19.0469L19.0806 47.5331Z" fill="#848483"/>
<path d="M23.834 46.6229H25.3847C26.9017 46.6229 28.1828 47.2634 28.1828 48.9827C28.1828 50.4997 26.9354 51.3087 25.5533 51.3087H23.8677L23.834 46.6229ZM24.879 50.3648H25.4184C26.3961 50.3648 27.104 49.994 27.104 48.9152C27.104 48.005 26.3623 47.5668 25.4858 47.5668H24.879V50.3648Z" fill="#848483"/>
<path d="M30.374 46.6229H31.2168L33.2732 51.3087H32.0933L31.6888 50.2974H29.8684L29.4638 51.3087H28.3176L30.374 46.6229ZM30.7786 48.005L30.2055 49.4546H31.3517L30.7786 48.005Z" fill="#848483"/>
<path d="M34.0147 47.5331H32.6663V46.6229H36.3745V47.5331H35.0261V51.3087H33.981L34.0147 47.5331Z" fill="#848483"/>
<path d="M37.7568 46.6229H38.5996L40.656 51.3087H39.4761L39.0716 50.2974H37.2511L36.8466 51.3087H35.7341L37.7568 46.6229ZM38.1614 48.005L37.5883 49.4546H38.7344L38.1614 48.005Z" fill="#848483"/>
<path d="M48.9153 48.1399C49.8592 48.1399 50.5671 48.8141 50.5671 49.758C50.5671 50.7357 49.8592 51.3762 48.9153 51.3762C47.9714 51.3762 47.2634 50.702 47.2634 49.758C47.2634 48.8141 47.9714 48.1399 48.9153 48.1399ZM48.9153 50.9379C49.5895 50.9379 50.0278 50.4323 50.0278 49.7918C50.0278 49.1512 49.5895 48.6456 48.9153 48.6456C48.2411 48.6456 47.8028 49.1512 47.8028 49.7918C47.8365 50.4323 48.2748 50.9379 48.9153 50.9379Z" fill="#848483"/>
<path d="M51.3426 48.949C51.3426 48.6793 51.3088 48.4096 51.3088 48.2073H51.8145C51.8145 48.3759 51.8145 48.5445 51.8145 48.713C51.9494 48.4096 52.3539 48.1062 52.8596 48.1062C53.5338 48.1062 53.7361 48.477 53.8372 48.713C54.0732 48.3422 54.3429 48.1062 54.8148 48.1062C55.6913 48.1062 55.9947 48.6119 55.9947 49.4209V51.3088H55.4891V49.4547C55.4891 49.0164 55.3205 48.6119 54.7474 48.6119C54.3092 48.6119 53.9383 48.9827 53.9383 49.5221V51.3088H53.4327V49.5558C53.4327 48.8816 53.2641 48.6119 52.8259 48.6119C52.1516 48.6119 51.8482 49.0838 51.8482 49.7918V51.3088H51.3426V48.949Z" fill="#848483"/>
<path d="M56.8037 48.241H57.3094V48.6793C57.5791 48.3422 57.9836 48.1399 58.4219 48.1399C59.3995 48.1399 60.04 48.8141 60.04 49.758C60.04 50.702 59.3658 51.3762 58.4893 51.3762C57.9162 51.3762 57.478 51.1065 57.2757 50.7357V52.7921H56.77V48.241H56.8037V48.241ZM58.4219 50.9379C59.0961 50.9379 59.5344 50.4323 59.5344 49.7917C59.5344 49.1512 59.0961 48.6456 58.4219 48.6456C57.7477 48.6456 57.3094 49.1512 57.3094 49.7917C57.3094 50.4323 57.7477 50.9379 58.4219 50.9379Z" fill="#848483"/>
<path d="M60.7479 48.6119C61.0513 48.2747 61.5232 48.1399 61.9952 48.1399C62.9054 48.1399 63.3099 48.5781 63.3099 49.4546V50.8031C63.3099 50.9717 63.3437 51.1739 63.3437 51.3425H62.838C62.8043 51.2076 62.8043 51.0054 62.8043 50.8705C62.602 51.1739 62.2649 51.4099 61.7929 51.4099C61.1524 51.4099 60.6467 51.1065 60.6467 50.4997C60.6467 49.4883 61.8266 49.4209 62.602 49.4209H62.8043V49.3198C62.8043 48.8815 62.5346 48.6456 62.0289 48.6456C61.6918 48.6456 61.3547 48.7467 61.1187 48.9827L60.7479 48.6119ZM62.2649 49.8255C61.6244 49.8255 61.1861 49.994 61.1861 50.4323C61.1861 50.8368 61.4895 50.9717 61.8603 50.9717C62.4672 50.9717 62.7706 50.5334 62.7706 50.0277V49.8255H62.2649Z" fill="#848483"/>
<path d="M64.1529 48.949C64.1529 48.6793 64.1191 48.4096 64.1191 48.2073H64.6248C64.6248 48.3759 64.6248 48.5445 64.6248 48.713C64.7597 48.4096 65.1642 48.1062 65.6699 48.1062C66.4789 48.1062 66.8498 48.6119 66.8498 49.3872V51.3088H66.3441V49.4547C66.3441 48.949 66.1081 48.6119 65.6361 48.6119C64.9619 48.6119 64.6585 49.0838 64.6585 49.7918V51.3088H64.1529V48.949Z" fill="#848483"/>
<path d="M68.9399 52.0504C68.7376 52.5898 68.5354 52.9269 67.8948 52.9269C67.76 52.9269 67.5577 52.9269 67.4229 52.8595L67.4903 52.4212C67.5914 52.4549 67.7263 52.4886 67.8611 52.4886C68.1983 52.4886 68.3331 52.2864 68.4342 51.983L68.6365 51.4099L67.3555 48.2747H67.9623L68.9399 50.7019L69.8501 48.2747H70.4232L68.9399 52.0504Z" fill="#848483"/>
<path d="M46.2858 47.5668C46.0161 47.196 45.5779 46.9937 45.1059 46.9937C44.0608 46.9937 43.3192 47.9039 43.3192 48.949C43.3192 50.0277 44.0608 50.9042 45.1059 50.9042C45.679 50.9042 46.1172 50.6683 46.4543 50.2637L46.8589 50.6008C46.4543 51.1739 45.8475 51.4099 45.1059 51.4099C43.7574 51.4099 42.7461 50.3648 42.7461 48.949C42.7461 47.5668 43.7237 46.488 45.1059 46.488C45.7464 46.488 46.3532 46.6903 46.7577 47.2297L46.2858 47.5668Z" fill="#848483"/>
</g>
<defs>
<clipPath id="clip0_17_1888">
<rect width="107" height="52.9269" fill="white"/>
</clipPath>
</defs>
</svg>
