<svg width="107" height="19" viewBox="0 0 107 19" fill="none" xmlns="http://www.w3.org/2000/svg">
<g clip-path="url(#clip0_17_2050)">
<path d="M25.413 15.4853H27.4964C27.5832 15.4853 27.6591 15.4105 27.6591 15.325V10.548H31.3918C31.4569 10.548 31.522 10.5052 31.5437 10.4411L32.2056 8.6457C32.2381 8.56021 32.1947 8.47471 32.1079 8.44265C32.0862 8.43196 32.0754 8.43196 32.0537 8.43196H27.6591V5.43962H33.269C33.3341 5.43962 33.3992 5.39687 33.4209 5.33275L34.0936 3.53735C34.1262 3.45185 34.0828 3.36636 33.996 3.3343C33.9743 3.32361 33.9634 3.32361 33.9417 3.32361H25.413C25.3262 3.32361 25.2502 3.39842 25.2502 3.48391V15.325C25.2502 15.4212 25.3262 15.4853 25.413 15.4853V15.4853Z" fill="#1F375B"/>
<path d="M38.7594 3.43048L34.3865 15.2716C34.354 15.3571 34.3974 15.4426 34.4842 15.4747C34.5059 15.4853 34.5167 15.4853 34.5385 15.4853H36.7086C36.7737 15.4853 36.8388 15.4426 36.8605 15.3785L37.5658 13.3373H41.9604L42.6548 15.3785C42.6765 15.4426 42.7416 15.4853 42.8067 15.4853H44.966C45.0528 15.4853 45.1288 15.4105 45.1288 15.325C45.1288 15.3037 45.1288 15.293 45.118 15.2716L40.7342 3.43048C40.7125 3.36636 40.6474 3.32361 40.5823 3.32361H38.9222C38.8462 3.32361 38.792 3.36636 38.7594 3.43048ZM38.2494 11.3388L39.8119 6.91442L41.3202 11.3388H38.2494Z" fill="#1F375B"/>
<path d="M54.9922 10.7724L50.1419 3.39842C50.1094 3.35567 50.0551 3.32361 50.0009 3.32361H48.102C48.0152 3.32361 47.9392 3.39842 47.9392 3.48391V15.325C47.9392 15.4105 48.0152 15.4853 48.102 15.4853H50.1853C50.2721 15.4853 50.3481 15.4105 50.3481 15.325V8.01517L55.1984 15.4105C55.231 15.4533 55.2852 15.4853 55.3395 15.4853H57.2383C57.3252 15.4853 57.4011 15.4105 57.4011 15.325V3.48391C57.4011 3.39842 57.3252 3.32361 57.2383 3.32361H55.155C55.0682 3.32361 54.9922 3.39842 54.9922 3.48391V10.7724Z" fill="#1F375B"/>
<path d="M80.6544 11.2319C80.6544 12.6319 79.808 13.4762 78.506 13.4762C77.2039 13.4762 76.3683 12.6426 76.3683 11.2319V3.48391C76.3683 3.39842 76.2924 3.32361 76.2056 3.32361H74.1222C74.0354 3.32361 73.9595 3.39842 73.9595 3.48391V11.3174C73.9595 13.9037 75.9777 15.5922 78.506 15.5922C81.0342 15.5922 83.0524 13.9037 83.0524 11.3174V3.48391C83.0524 3.39842 82.9765 3.32361 82.8897 3.32361H80.828C80.7412 3.32361 80.6653 3.39842 80.6653 3.48391L80.6544 11.2319Z" fill="#1F375B"/>
<path d="M95.1294 5.33275L95.7913 3.53735C95.8239 3.45185 95.7805 3.36636 95.6937 3.3343C95.672 3.32361 95.6611 3.32361 95.6394 3.32361H87.1215C87.0347 3.32361 86.9587 3.39842 86.9587 3.48391V15.325C86.9587 15.4105 87.0347 15.4853 87.1215 15.4853H95.6394C95.7262 15.4853 95.8022 15.4105 95.8022 15.325C95.8022 15.3037 95.8022 15.293 95.7913 15.2716L95.1294 13.4762C95.1077 13.4121 95.0426 13.3693 94.9775 13.3693H89.3676V10.409H93.8816C93.9684 10.409 94.0443 10.3342 94.0443 10.2487V8.45334C94.0443 8.36784 93.9684 8.29303 93.8816 8.29303H89.3676V5.43962H94.9775C95.0426 5.43962 95.1077 5.39687 95.1294 5.33275Z" fill="#1F375B"/>
<path d="M106.186 13.3693H101.086V3.48391C101.086 3.39842 101.01 3.32361 100.923 3.32361C100.923 3.32361 100.923 3.32361 100.913 3.32361H98.8293C98.7425 3.32361 98.6665 3.39842 98.6665 3.48391V15.325C98.6665 15.4105 98.7425 15.4853 98.8293 15.4853H106.837C106.924 15.4853 107 15.4105 107 15.325C107 15.3037 107 15.293 106.989 15.2716L106.327 13.4762C106.316 13.4121 106.251 13.3693 106.186 13.3693V13.3693Z" fill="#1F375B"/>
<path d="M69.2177 4.48848C68.4039 3.68696 67.2428 3.32361 65.9516 3.32361H61.047C60.9602 3.32361 60.8843 3.39842 60.8843 3.48391C60.8843 3.4946 60.8843 3.50529 60.8843 3.51597L61.2424 5.31138C61.2641 5.38619 61.3183 5.43962 61.3943 5.43962H65.702C66.5375 5.43962 67.0909 5.69611 67.5032 6.18771C67.959 6.73274 68.0241 7.5022 68.0241 9.35104C68.0241 11.1999 67.959 12.0655 67.5032 12.6106C67.0909 13.1022 66.5267 13.3586 65.702 13.3586H63.9116V7.04266C63.9116 6.95717 63.8357 6.88236 63.7489 6.88236H61.6655C61.5787 6.88236 61.5028 6.95717 61.5028 7.04266V15.3357C61.5028 15.4212 61.5787 15.496 61.6655 15.496H65.9624C67.2428 15.496 68.4147 15.1327 69.2285 14.3311C70.6174 12.9632 70.4764 11.1892 70.4764 9.36172C70.4655 7.52357 70.6066 5.84572 69.2177 4.48848V4.48848Z" fill="#1F375B"/>
<path d="M7.89991 3.1099C8.26883 2.32975 8.69201 1.59235 9.1803 0.90839C9.37561 0.630529 9.58177 0.374043 9.78794 0.128243C9.82049 0.0748086 9.78794 0 9.72284 0C9.66858 0 9.61433 0 9.56007 0C7.37907 0 5.27402 0.363356 3.32088 1.02595C2.31176 1.36793 1.33519 1.79541 0.402023 2.29769C0.141605 2.43662 -0.0103062 2.70379 0.000544565 2.99234C0.0222461 4.06104 0.141605 5.09767 0.347769 6.11293C0.532232 7.06406 0.792651 7.99383 1.11817 8.89153C1.5088 9.97091 1.99709 11.0075 2.58303 11.9801C3.6464 13.7861 5.00275 15.3999 6.59781 16.7571C6.86908 16.9922 7.1512 17.2167 7.43332 17.4304C7.49843 17.4731 7.58523 17.409 7.55268 17.3449C7.43332 17.0564 7.32481 16.7571 7.22716 16.4579C6.73887 15.0151 6.43505 13.4655 6.3374 11.8625C6.3374 11.7877 6.30484 11.7236 6.27229 11.6701C5.87081 11.1251 5.51274 10.5694 5.18721 9.97091C5.48018 9.81061 5.79486 9.67168 6.10953 9.55412C6.25059 9.50069 6.33739 9.37244 6.34825 9.22283C6.4242 8.15413 6.58696 7.09613 6.84738 6.09155C6.85823 6.03812 6.81483 5.98468 6.76057 5.99537C5.77315 6.2198 4.81829 6.55109 3.93937 6.98926C3.68981 6.15568 3.50534 5.30072 3.39684 4.42439C4.72063 3.86867 6.14208 3.49463 7.61779 3.31295C7.72629 3.31295 7.8348 3.22745 7.89991 3.1099V3.1099Z" fill="#1493FF"/>
<path d="M18.718 2.29767C17.7849 1.79539 16.8191 1.3786 15.7992 1.02593C14.4428 0.566388 13.0322 0.256467 11.5565 0.10685C11.4372 0.0961628 11.3286 0.138911 11.2418 0.213719C10.4497 1.01524 9.74443 1.98775 9.16934 3.09919C9.14764 3.15263 9.18019 3.20606 9.23445 3.20606C9.34295 3.20606 9.44061 3.20606 9.54912 3.20606C11.741 3.20606 13.8352 3.64423 15.7449 4.43506C15.6364 5.31139 15.4519 6.17703 15.2024 6.99992C14.8877 8.03656 14.4645 9.03044 13.9437 9.97089C12.8586 11.9373 11.3503 13.6579 9.54912 14.9938C8.91977 14.5235 8.33383 14.0212 7.79129 13.4655C7.73704 13.4121 7.65023 13.4548 7.66108 13.5296C7.80214 14.3418 7.98661 15.1327 8.22533 15.8808C8.5617 16.9281 8.99573 17.8899 9.51657 18.7662C9.53827 18.7983 9.58167 18.8197 9.62507 18.7983C10.6559 18.1998 11.6325 17.5159 12.5331 16.7464C14.1173 15.3892 15.4845 13.7754 16.5479 11.9693C17.123 10.9862 17.6112 9.96021 18.0127 8.88082C18.3382 7.98312 18.5987 7.05336 18.7831 6.10222C18.9784 5.08696 19.0978 4.03964 19.1304 2.98164C19.1304 2.69309 18.9784 2.42591 18.718 2.29767V2.29767Z" fill="#1493FF"/>
</g>
<defs>
<clipPath id="clip0_17_2050">
<rect width="107" height="18.8069" fill="white"/>
</clipPath>
</defs>
</svg>
