<svg width="107" height="42" viewBox="0 0 107 42" fill="none" xmlns="http://www.w3.org/2000/svg">
<g clip-path="url(#clip0_17_2004)">
<path fill-rule="evenodd" clip-rule="evenodd" d="M13.7602 6.9803C15.3319 4.69977 17.9361 -0.0461969 20.5094 3.00825e-05C23.0827 0.046257 25.5327 4.56109 26.3648 5.71676C27.2431 6.91866 29.5236 10.0467 28.7686 11.341C27.9211 12.7895 22.8823 8.62906 20.7251 8.65988C18.5678 8.70611 13.9143 11.8341 12.6662 11.5105C11.418 11.187 12.9127 8.22843 13.7602 6.9803Z" fill="#EE353B"/>
<path fill-rule="evenodd" clip-rule="evenodd" d="M27.3354 34.1155C25.7637 36.4114 23.1596 41.142 20.5863 41.0957C18.013 41.0495 15.563 36.5347 14.7309 35.379C13.8526 34.1771 11.5721 31.0491 12.3271 29.7547C13.1746 28.3063 18.2133 32.4667 20.3706 32.4359C22.5278 32.3897 27.1814 29.2616 28.4295 29.5852C29.693 29.9088 28.1829 32.8673 27.3354 34.1155Z" fill="#EE353B"/>
<path fill-rule="evenodd" clip-rule="evenodd" d="M34.1155 13.7602C36.4115 15.332 41.142 17.9361 41.0958 20.5094C41.0496 23.0827 36.5347 25.5327 35.3791 26.3648C34.1772 27.2431 31.0491 29.5236 29.7548 28.7686C28.3064 27.9211 32.4668 22.8824 32.436 20.7251C32.3897 18.5678 29.2617 13.9143 29.5853 12.6662C29.9089 11.4027 32.8674 12.9127 34.1155 13.7602Z" fill="#EE353B"/>
<path fill-rule="evenodd" clip-rule="evenodd" d="M6.98036 27.3356C4.69983 25.7639 -0.0461358 23.1597 9.11176e-05 20.5864C0.0463181 18.0131 4.56115 15.5631 5.71682 14.731C6.93413 13.8527 10.0622 11.5722 11.3565 12.3272C12.805 13.1747 8.64453 18.2134 8.67535 20.3707C8.72158 22.528 11.8496 27.1815 11.526 28.4296C11.2024 29.6777 8.22849 28.1831 6.98036 27.3356Z" fill="#EE353B"/>
<path d="M45.0713 10.1083C46.8433 10.0929 48.5999 10.1083 50.3719 10.0929C50.3874 17.52 50.372 24.9472 50.3874 32.3589C48.9081 32.3743 47.4443 32.3589 45.965 32.3743C45.6722 32.3743 45.3641 32.3897 45.0713 32.3435C45.0867 24.9318 45.0713 17.52 45.0713 10.1083Z" fill="black"/>
<path d="M101.746 10.1083C103.487 10.0929 105.243 10.1083 106.985 10.0929C107.015 17.52 106.985 24.9472 107 32.3743C105.243 32.3743 103.502 32.3743 101.746 32.3743C101.746 24.9472 101.746 17.5354 101.746 10.1083Z" fill="black"/>
<path d="M58.8933 15.9175C59.6637 15.7788 60.465 15.825 61.2508 15.825C63.2848 15.9329 65.3034 16.765 66.7056 18.2596C68.1541 19.816 68.8783 21.927 69.017 24.0226C69.0786 24.5157 69.0478 25.0088 69.0632 25.5019C68.7396 25.5481 68.4006 25.5327 68.077 25.5327C64.3943 25.5327 60.6961 25.5327 57.0134 25.5327C56.9825 26.8116 57.5681 28.1522 58.6775 28.8302C59.6329 29.4003 60.8194 29.4003 61.8672 29.1384C62.3911 28.9843 62.8688 28.6607 63.2078 28.2293C63.4235 27.9827 63.5468 27.6745 63.7625 27.4434C65.4113 27.428 67.0754 27.428 68.7242 27.4434C68.4777 28.2139 68.1695 28.9843 67.661 29.6161C66.8289 30.6639 65.7811 31.5576 64.533 32.0661C63.593 32.4667 62.5914 32.6979 61.5744 32.7441C60.9581 32.8366 60.3263 32.8211 59.7099 32.7441C58.2615 32.6516 56.8285 32.2664 55.5803 31.5268C54.2706 30.7563 53.1919 29.6007 52.5756 28.1984C52.1441 27.2739 51.913 26.2723 51.8051 25.2553C51.8051 24.4541 51.7435 23.6528 51.913 22.8669C52.2212 21.0641 53.0532 19.3229 54.3784 18.0439C55.5957 16.8728 57.2137 16.1332 58.8933 15.9175ZM57.9071 20.4477C57.4602 21.0333 57.1675 21.7421 57.0904 22.4817C59.3247 22.4817 61.559 22.4817 63.7779 22.4817C63.6855 21.7729 63.4697 21.0641 63.0383 20.4939C62.576 19.8776 61.8364 19.5232 61.0813 19.3999C60.6345 19.3845 60.1876 19.3691 59.7408 19.4153C59.0474 19.5694 58.3539 19.8776 57.9071 20.4477Z" fill="black"/>
<path d="M87.7235 16.6725C89.403 15.8558 91.3138 15.7017 93.1474 15.8712C94.6113 16.0407 96.0443 16.5646 97.2154 17.4738C98.6331 18.5678 99.6038 20.1703 100.051 21.9116C100.39 23.0981 100.436 24.3308 100.405 25.5481C96.4141 25.5481 92.4078 25.5481 88.4169 25.5481C88.3706 26.5034 88.6942 27.4742 89.3106 28.1984C89.8807 28.8764 90.7744 29.2462 91.6528 29.3079C92.2999 29.3233 92.9625 29.2771 93.5789 29.0459C94.3031 28.7532 94.7654 28.106 95.1352 27.4434C96.784 27.428 98.4481 27.4434 100.112 27.4434C99.7887 28.9535 98.7717 30.2324 97.5544 31.157C95.9519 32.4051 93.8562 32.8673 91.8531 32.8211C89.6188 32.7749 87.292 32.0969 85.6587 30.5252C84.164 29.1384 83.3473 27.1352 83.2394 25.1166C83.0853 23.4833 83.4397 21.8345 84.1486 20.3553C84.8574 18.7681 86.1517 17.443 87.7235 16.6725ZM89.3722 20.3553C88.8637 20.9408 88.5401 21.7112 88.4939 22.4817C90.7282 22.4817 92.9471 22.4971 95.1814 22.4817C95.089 21.8653 94.9195 21.249 94.5805 20.7097C94.149 19.97 93.3169 19.5386 92.5003 19.3999C92.0534 19.3691 91.5911 19.3691 91.1443 19.3999C90.4817 19.5386 89.8345 19.8468 89.3722 20.3553Z" fill="black"/>
<path d="M67.9382 16.2257C69.8797 16.2411 71.8213 16.1948 73.7628 16.2411C74.5179 17.4892 75.2421 18.7373 75.9817 20.0009C75.9971 20.0009 76.0433 20.0163 76.0742 20.0163C76.86 18.7681 77.5688 17.4738 78.3547 16.2257C80.2346 16.2257 82.1145 16.2103 83.9944 16.2257C83.8711 16.5338 83.6554 16.7958 83.4705 17.0732C81.9758 19.292 80.4811 21.5109 78.9864 23.7298C78.8786 23.8531 79.0327 23.9764 79.0789 24.0688C80.8664 26.6884 82.623 29.3387 84.4104 31.9582C84.5029 32.0815 84.5799 32.2048 84.6415 32.3435C82.8233 32.3589 81.005 32.3435 79.1714 32.3589C79.0481 32.3435 78.8632 32.4051 78.8015 32.2664C77.877 30.818 76.9987 29.3541 76.0742 27.9057C76.0433 27.9057 75.9971 27.9211 75.9817 27.9211C75.0572 29.4003 74.148 30.8796 73.2081 32.3435C71.282 32.3281 69.3558 32.3589 67.4143 32.3281C69.2788 29.462 71.2203 26.6421 73.0848 23.7761C71.359 21.2952 69.6486 18.7527 67.9382 16.2257Z" fill="black"/>
</g>
<defs>
<clipPath id="clip0_17_2004">
<rect width="107" height="41.0958" fill="white"/>
</clipPath>
</defs>
</svg>
