<svg width="105" height="20" viewBox="0 0 105 20" fill="none" xmlns="http://www.w3.org/2000/svg">
<path d="M77.1712 0C77.8506 0 78.53 0 79.2094 0C79.2094 0.997451 79.2094 1.9949 79.2094 2.99235C79.8166 2.99235 80.4237 2.99235 81.0309 2.99235C81.0309 3.48385 81.0309 3.97535 81.0309 4.46685C80.4237 4.46685 79.8166 4.46685 79.2094 4.46685C79.2094 5.91243 79.2094 7.35801 79.2094 8.80359C79.2167 9.12162 79.2456 9.51915 79.5708 9.67816C80.0334 9.88055 80.5466 9.73599 81.0309 9.67816C81.0309 10.2347 81.0309 10.7985 81.0309 11.355C80.2069 11.5285 79.3323 11.6514 78.5011 11.4562C78.0313 11.355 77.5832 11.0732 77.3808 10.625C77.2145 10.2853 77.1639 9.895 77.1639 9.51915C77.1639 7.83505 77.1639 6.15095 77.1639 4.46685C76.752 4.46685 76.34 4.46685 75.928 4.46685C75.928 3.97535 75.928 3.48385 75.928 2.99235C76.34 2.99235 76.752 2.99235 77.1639 2.99235C77.1712 1.9949 77.1712 0.997451 77.1712 0Z" fill="black"/>
<path d="M82.5342 0C83.2136 0 83.8929 0 84.5723 0C84.5723 0.693879 84.5723 1.38776 84.5723 2.08164C83.8929 2.08164 83.2136 2.08164 82.5342 2.08164C82.5342 1.38776 82.5342 0.693879 82.5342 0Z" fill="black"/>
<path d="M25.6651 3.85247C26.1927 3.21642 26.9878 2.83334 27.8118 2.7972C28.4912 2.77551 29.2067 2.84779 29.7994 3.20919C30.2403 3.46939 30.5584 3.89584 30.7246 4.38011C30.9053 4.89329 30.9198 5.44261 30.9125 5.97748C30.9125 7.80614 30.9125 9.62757 30.9125 11.4562C30.2331 11.4562 29.5537 11.4562 28.8743 11.4562C28.8743 9.72876 28.8743 8.00129 28.8743 6.27382C28.8743 5.76064 28.6936 5.19686 28.2165 4.94389C27.4865 4.57526 26.4818 4.80656 26.0481 5.50766C25.7518 5.96302 25.6723 6.5268 25.6723 7.06166C25.6723 8.52893 25.6723 9.98897 25.6723 11.4562C24.9929 11.4562 24.3135 11.4562 23.634 11.4562C23.634 8.63735 23.634 5.81847 23.634 2.99235C24.3135 2.99235 24.9929 2.99235 25.6723 2.99235C25.6651 3.28147 25.6651 3.56336 25.6651 3.85247Z" fill="black"/>
<path d="M32.9002 4.27169C33.5724 3.4188 34.6204 2.92007 35.6974 2.81888C36.7454 2.71769 37.873 2.85502 38.7403 3.49108C39.5209 4.05485 39.9618 4.9728 40.1642 5.89074C40.2943 6.48343 40.3377 7.09057 40.3449 7.69771C38.2633 7.69771 36.1744 7.69771 34.0856 7.69771C34.1072 8.36991 34.4614 9.02042 35.0252 9.38904C35.5817 9.77935 36.3045 9.83717 36.955 9.70707C37.6706 9.5842 38.3139 9.16498 38.7186 8.56506C39.2969 8.89754 39.8679 9.23003 40.4461 9.56974C39.8101 10.5527 38.7837 11.2538 37.6417 11.4996C36.3624 11.7742 34.9312 11.702 33.8037 10.9792C32.8207 10.3648 32.2063 9.28062 32.0256 8.14584C31.8015 6.81591 32.0328 5.34865 32.9002 4.27169ZM34.83 4.95834C34.4542 5.25469 34.2084 5.68113 34.0856 6.13649C35.4589 6.13649 36.8394 6.13649 38.2127 6.13649C38.1043 5.37033 37.5116 4.69091 36.7454 4.51744C36.0877 4.38011 35.3577 4.5319 34.83 4.95834Z" fill="black"/>
<path d="M57.2221 2.85503C57.9666 2.72492 58.7616 2.78275 59.4483 3.10078C59.8675 3.29593 60.2144 3.63564 60.4168 4.04763C60.8866 3.4188 61.595 2.96345 62.3756 2.84057C63.0839 2.73215 63.8284 2.78275 64.5006 3.04295C65.021 3.24533 65.4764 3.64287 65.7076 4.15605C65.9245 4.6114 65.9823 5.11736 65.9823 5.61608C65.9823 7.56038 65.9823 9.51192 65.9823 11.4562C65.3029 11.4562 64.6162 11.4562 63.9368 11.4562C63.9368 9.75044 63.9368 8.04465 63.9368 6.33887C63.9368 5.84737 63.8284 5.31251 63.4453 4.9728C62.9827 4.58249 62.2744 4.58972 61.7612 4.87884C61.0673 5.29083 60.7493 6.13649 60.7348 6.9171C60.7348 8.42773 60.7348 9.94559 60.7348 11.4562C60.0554 11.4562 59.3688 11.4562 58.6894 11.4562C58.6894 9.72875 58.6894 8.00129 58.6894 6.27382C58.6894 5.76787 58.5376 5.19686 58.0967 4.90052C57.5907 4.57527 56.8896 4.60418 56.4053 4.95112C55.7621 5.4137 55.4946 6.23768 55.4874 6.99661C55.4874 8.48555 55.4874 9.9745 55.4874 11.4634C54.808 11.4634 54.1285 11.4634 53.4419 11.4634C53.4419 8.64457 53.4419 5.82569 53.4419 2.99958C54.1213 2.99958 54.8007 2.99958 55.4874 2.99958C55.4874 3.27424 55.4874 3.5489 55.4874 3.82356C55.9572 3.3393 56.5499 2.97067 57.2221 2.85503Z" fill="black"/>
<path d="M70.7818 2.84781C71.6708 2.71048 72.6032 2.84058 73.4127 3.23812C74.4319 3.72962 75.2414 4.63311 75.6317 5.69561C76.0437 6.80871 75.9786 8.09528 75.451 9.16501C74.9306 10.2492 73.9476 11.0949 72.8056 11.449C71.1793 11.9839 69.2784 11.4563 68.1581 10.1697C67.3919 9.31679 66.9872 8.14587 67.045 7.00386C67.0956 6.00641 67.4931 5.02341 68.1653 4.27894C68.8375 3.51278 69.7844 2.9996 70.7818 2.84781ZM70.0012 4.79212C69.5603 5.18243 69.4013 5.85462 69.6181 6.40394C69.7338 6.74366 70.0084 6.98218 70.2542 7.2207C70.0229 7.45199 69.7627 7.67606 69.6398 7.98686C69.3941 8.53618 69.5386 9.23006 69.9795 9.64205C70.5433 10.2058 71.5552 10.1625 72.0828 9.56254C72.7333 8.9048 73.3911 8.26152 74.0416 7.60378C74.244 7.41585 74.2656 7.06168 74.0633 6.86653C73.4272 6.22325 72.7839 5.58719 72.1479 4.94391C71.9672 4.75598 71.7648 4.58974 71.5191 4.503C71.0131 4.30062 70.3987 4.41627 70.0012 4.79212Z" fill="black"/>
<path d="M89.2996 2.85497C90.5211 2.63813 91.8221 2.97062 92.7906 3.744C93.8386 4.56075 94.4819 5.869 94.4747 7.19893C94.4892 8.46381 93.9254 9.72147 92.9641 10.5527C92.0606 11.355 90.8174 11.7525 89.6248 11.6296C88.4467 11.5212 87.3264 10.9213 86.5891 9.99613C85.664 8.86135 85.3676 7.24953 85.823 5.86177C86.3 4.31501 87.7022 3.11517 89.2996 2.85497ZM88.7792 4.63303C88.2154 4.97274 87.948 5.71721 88.1648 6.33881C88.2732 6.70744 88.5623 6.96764 88.8298 7.22784C88.5912 7.46636 88.3238 7.69766 88.2009 8.01568C87.9841 8.52886 88.0997 9.16492 88.4828 9.56968C89.0249 10.1913 90.0729 10.1985 90.6295 9.59859C91.28 8.94808 91.9233 8.29034 92.581 7.64706C92.7183 7.51696 92.8195 7.32903 92.7762 7.14111C92.7472 6.96764 92.6171 6.84477 92.5015 6.72912C91.8582 6.09307 91.2222 5.44978 90.5789 4.81373C90.1091 4.34392 89.3285 4.27164 88.7792 4.63303Z" fill="black"/>
<path d="M97.4959 3.85246C98.0163 3.23809 98.7824 2.84779 99.5847 2.80442C100.185 2.77551 100.799 2.8261 101.356 3.07185C101.818 3.267 102.208 3.6284 102.425 4.08376C102.7 4.62585 102.751 5.24022 102.743 5.84014C102.743 7.71216 102.743 9.59141 102.743 11.4634C102.064 11.4634 101.384 11.4634 100.705 11.4634C100.705 9.73597 100.705 8.00851 100.705 6.28104C100.705 5.78954 100.539 5.24022 100.091 4.97279C99.592 4.6909 98.9415 4.72704 98.4427 4.98724C97.9585 5.24022 97.6766 5.76063 97.5754 6.28104C97.467 6.82313 97.5176 7.38691 97.5031 7.93623C97.5031 9.11437 97.5031 10.2853 97.5031 11.4634C96.8237 11.4634 96.1443 11.4634 95.4648 11.4634C95.4648 8.64456 95.4648 5.82568 95.4648 2.99957C96.1443 2.99957 96.8237 2.99957 97.5031 2.99957C97.4959 3.28146 97.4959 3.56335 97.4959 3.85246Z" fill="black"/>
<path d="M40.4388 2.99231C41.1472 2.99231 41.8483 2.99231 42.5494 2.99231C43.0264 4.91493 43.4962 6.84478 43.9805 8.77463C44.5298 6.85201 45.0502 4.92216 45.5851 2.99231C46.1995 2.99231 46.8139 2.99231 47.4282 2.99231C47.9631 4.92216 48.4835 6.85201 49.0256 8.77463C49.5171 6.85201 49.9797 4.92216 50.4639 2.99231C51.1651 2.99231 51.8734 2.99231 52.5745 2.99231C51.765 5.81119 50.9482 8.63007 50.1315 11.4562C49.4593 11.4562 48.7943 11.4562 48.1221 11.4562C47.58 9.55525 47.0524 7.65431 46.5031 5.75337C45.961 7.65431 45.4261 9.55525 44.884 11.4562C44.2118 11.4562 43.5468 11.4562 42.8746 11.4562C42.0651 8.6373 41.2484 5.81119 40.4388 2.99231Z" fill="black"/>
<path d="M82.5342 2.99231C83.2136 2.99231 83.8929 2.99231 84.5723 2.99231C84.5723 5.81119 84.5723 8.63007 84.5723 11.4562C83.8929 11.4562 83.2136 11.4562 82.5342 11.4562C82.5342 8.6373 82.5342 5.81119 82.5342 2.99231Z" fill="black"/>
<path d="M103.878 3.05022C104.362 2.81892 104.977 3.28151 104.876 3.81638C104.825 4.33679 104.146 4.62591 103.734 4.30065C103.285 4.00431 103.372 3.23814 103.878 3.05022ZM103.95 3.17309C103.546 3.31043 103.459 3.90312 103.799 4.16332C104.117 4.44521 104.688 4.2356 104.738 3.80915C104.825 3.3827 104.341 2.9924 103.95 3.17309Z" fill="black"/>
<path d="M44.4432 15.381C44.5443 15.0919 44.8913 15.063 45.1443 15.0991C45.1515 15.2003 45.1587 15.3088 45.1587 15.4099C45.0142 15.4099 44.7829 15.3304 44.7323 15.5184C44.6744 15.8292 44.7106 16.1544 44.7034 16.4724C44.8551 16.4724 45.0069 16.4724 45.1515 16.4724C45.1515 16.5447 45.1515 16.6893 45.1515 16.7543C44.9997 16.7543 44.8479 16.7543 44.7034 16.7543C44.7034 17.2531 44.7034 17.759 44.7034 18.2577C44.6022 18.2577 44.501 18.2577 44.3926 18.2577C44.3926 17.759 44.3926 17.2603 44.3926 16.7616C44.3492 16.7616 44.2697 16.7616 44.2263 16.7616C44.2263 16.6676 44.2263 16.5736 44.2263 16.4797C44.2697 16.4797 44.3492 16.4797 44.3926 16.4797C44.407 16.1183 44.3492 15.7424 44.4432 15.381Z" fill="black"/>
<path d="M47.4572 15.1353C47.5583 15.1353 47.6595 15.1353 47.7607 15.1353C47.7607 15.6484 47.7607 16.1616 47.7607 16.6748C48.0282 16.3423 48.6642 16.3279 48.816 16.776C48.9461 17.2603 48.8522 17.7735 48.8811 18.2722C48.7799 18.2722 48.6787 18.2722 48.5703 18.2722C48.5558 17.8385 48.5992 17.4048 48.5486 16.9784C48.4908 16.6098 47.8764 16.6459 47.8113 16.9928C47.7174 17.4121 47.7824 17.8457 47.7607 18.265C47.6595 18.265 47.5583 18.265 47.4572 18.265C47.4572 17.2241 47.4572 16.1833 47.4572 15.1353Z" fill="black"/>
<path d="M35.7263 18.2649C35.7263 17.2241 35.7263 16.1761 35.7263 15.1353C35.8058 15.1353 35.9576 15.1353 36.0371 15.1353C36.0371 15.6629 36.0443 16.1905 36.0299 16.7182C36.3118 16.4074 36.8105 16.3279 37.1502 16.5881C37.6706 16.9784 37.6272 17.9252 37.0346 18.2288C36.7021 18.4095 36.2829 18.3011 36.0299 18.0336C36.0299 18.0915 36.0371 18.2071 36.0371 18.2649C35.9359 18.2649 35.8275 18.2649 35.7263 18.2649ZM36.3624 16.7688C35.9359 16.9711 35.907 17.6289 36.2612 17.918C36.4925 18.1059 36.8755 18.0626 37.0562 17.8168C37.2297 17.5711 37.2442 17.2241 37.0851 16.9639C36.9334 16.7326 36.6081 16.6531 36.3624 16.7688Z" fill="black"/>
<path d="M54.6129 15.1353C54.7141 15.1353 54.8153 15.1353 54.9165 15.1353C54.9165 15.6484 54.9165 16.1616 54.9165 16.6748C55.1767 16.3423 55.82 16.3206 55.979 16.7688C56.1091 17.253 56.0151 17.7662 56.0441 18.2649C55.9429 18.2649 55.8344 18.2649 55.7333 18.2649C55.7188 17.8313 55.7622 17.3904 55.7043 16.9567C55.6321 16.6025 55.0321 16.6531 54.9671 16.9928C54.8731 17.412 54.9309 17.8457 54.9165 18.2649C54.8153 18.2649 54.7141 18.2649 54.6129 18.2649C54.6129 17.2241 54.6129 16.1833 54.6129 15.1353Z" fill="black"/>
<path d="M58.5088 15.1353C58.61 15.1353 58.7112 15.1353 58.8197 15.1353C58.8197 16.1761 58.8197 17.2241 58.8197 18.2649C58.7184 18.2649 58.6172 18.2649 58.5088 18.2649C58.5088 17.2241 58.5088 16.1833 58.5088 15.1353Z" fill="black"/>
<path d="M59.3109 15.1353C59.4121 15.1353 59.5133 15.1353 59.6144 15.1353C59.6144 16.1761 59.6144 17.2241 59.6072 18.2649C59.506 18.2649 59.4049 18.2649 59.3037 18.2649C59.3109 17.2241 59.3109 16.1833 59.3109 15.1353Z" fill="black"/>
<path d="M24.7977 15.2654C25.2314 16.2701 25.6579 17.2675 26.0843 18.2722C25.9614 18.2722 25.8458 18.2722 25.7229 18.2722C25.6073 18.0048 25.4988 17.7301 25.3832 17.4627C24.9784 17.4627 24.5737 17.4627 24.1689 17.4627C24.0532 17.7301 23.9376 17.9976 23.8219 18.2722C23.7063 18.2722 23.5834 18.2722 23.4678 18.2722C23.9159 17.2675 24.3568 16.2628 24.7977 15.2654ZM24.3062 17.1591C24.6243 17.1591 24.9423 17.1591 25.2675 17.1591C25.1085 16.7833 24.9495 16.4002 24.7905 16.0243C24.6315 16.4002 24.4652 16.776 24.3062 17.1591Z" fill="black"/>
<path d="M27.9129 15.2365C28.2599 16.0388 28.6068 16.8411 28.9538 17.6361C29.3007 16.8338 29.6476 16.0388 29.9946 15.2365C30.1897 16.2484 30.3849 17.2603 30.58 18.265C30.4644 18.265 30.356 18.265 30.2476 18.265C30.1247 17.6217 30.0018 16.9712 29.8789 16.3279C29.5681 17.0145 29.2646 17.7012 28.9538 18.3878C28.643 17.7084 28.3466 17.0218 28.0358 16.3423C27.9057 16.9856 27.7901 17.6289 27.6672 18.265C27.5588 18.265 27.4431 18.265 27.3347 18.265C27.5226 17.2603 27.7178 16.2484 27.9129 15.2365Z" fill="black"/>
<path d="M52.9144 15.4677C53.3191 15.2291 53.8684 15.3882 54.0997 15.7929C54.013 15.8507 53.9263 15.9086 53.8467 15.9664C53.7094 15.7785 53.4998 15.605 53.2541 15.67C52.9577 15.699 52.7337 16.0965 52.9649 16.3278C53.283 16.6097 53.7672 16.6458 54.0491 16.9783C54.3021 17.2963 54.2154 17.795 53.9262 18.0697C53.5938 18.4022 52.9939 18.4022 52.6614 18.0697C52.5168 17.9396 52.4518 17.7517 52.3867 17.5782C52.4879 17.5493 52.5963 17.5132 52.6975 17.4842C52.7698 17.7444 52.9577 18.0119 53.2541 18.0119C53.6588 18.0552 54.0274 17.571 53.7961 17.2096C53.507 16.841 52.9433 16.8482 52.6614 16.4723C52.4301 16.1471 52.5602 15.6411 52.9144 15.4677Z" fill="black"/>
<path d="M61.9418 15.5184C62.5923 15.1714 63.438 15.381 63.8717 15.9665C63.7922 16.0388 63.7199 16.1111 63.6404 16.1906C63.4019 15.887 63.0477 15.6412 62.6502 15.6557C61.9997 15.6412 61.4431 16.2556 61.4865 16.8917C61.5009 17.5928 62.2671 18.1927 62.9465 17.9686C63.3296 17.8675 63.6187 17.5277 63.6621 17.1374C63.373 17.1302 63.0838 17.1302 62.802 17.1302C62.802 17.029 62.802 16.9278 62.802 16.8266C63.1995 16.8266 63.6043 16.8266 64.0018 16.8266C64.0018 17.1663 63.9584 17.535 63.7271 17.8096C63.3513 18.2794 62.6646 18.4385 62.1081 18.2289C61.5804 18.0409 61.1901 17.5277 61.1468 16.9712C61.0889 16.3857 61.4142 15.7858 61.9418 15.5184Z" fill="black"/>
<path d="M46.5754 15.8436C46.6765 15.8436 46.7777 15.8436 46.8789 15.8436C46.8789 16.0605 46.8789 16.2701 46.8789 16.4869C46.9873 16.4869 47.0885 16.4869 47.1969 16.4869C47.1969 16.5592 47.1969 16.7038 47.1969 16.7688C47.0885 16.7688 46.9801 16.7688 46.8789 16.7688C46.8789 17.2675 46.8789 17.7663 46.8789 18.2722C46.7777 18.2722 46.6765 18.2722 46.5754 18.2722C46.5754 17.7735 46.5754 17.2748 46.5754 16.776C46.532 16.776 46.438 16.776 46.3875 16.776C46.3875 16.6821 46.3875 16.5881 46.3875 16.4941C46.4308 16.4941 46.5248 16.4941 46.5754 16.4941C46.5754 16.2701 46.5754 16.0532 46.5754 15.8436Z" fill="black"/>
<path d="M31.0354 16.7037C31.3535 16.3278 32.0256 16.3351 32.322 16.7326C32.481 16.9278 32.5171 17.1952 32.5316 17.441C32.0545 17.441 31.5775 17.4337 31.1005 17.4482C31.1366 17.7373 31.339 18.0192 31.6498 18.0336C31.9172 18.077 32.1124 17.8674 32.2569 17.6722C32.3436 17.7228 32.4231 17.7734 32.5099 17.824C32.2714 18.2577 31.7004 18.4601 31.2595 18.2216C30.7247 17.9397 30.6668 17.1446 31.0354 16.7037ZM31.115 17.1735C31.4836 17.1807 31.8449 17.1807 32.2135 17.1735C32.1268 16.935 31.9244 16.7037 31.6498 16.7254C31.3824 16.7254 31.2017 16.9495 31.115 17.1735Z" fill="black"/>
<path d="M33.1821 16.6531C33.3194 16.5375 33.4784 16.4002 33.6736 16.4291C33.8615 16.4291 34.0061 16.5592 34.1217 16.6893C34.3675 16.3423 35.018 16.3134 35.1625 16.7688C35.2927 17.2531 35.1987 17.7662 35.2276 18.265C35.1264 18.265 35.0252 18.265 34.9168 18.265C34.9023 17.8313 34.9457 17.3904 34.8879 16.9567C34.8662 16.7543 34.6349 16.6604 34.4542 16.7326C34.2663 16.7905 34.2157 17.0145 34.2085 17.1808C34.194 17.5422 34.2085 17.8963 34.2012 18.2577C34.1 18.2577 33.9988 18.2577 33.8977 18.2577C33.8904 17.853 33.9193 17.441 33.8832 17.029C33.876 16.8411 33.717 16.6531 33.5146 16.711C33.2977 16.7399 33.211 16.9784 33.2038 17.1663C33.1893 17.5277 33.2038 17.8891 33.1965 18.2505C33.0954 18.2505 32.9942 18.2505 32.8857 18.2505C32.8857 17.6578 32.8857 17.0579 32.8857 16.4652C32.9869 16.4652 33.0954 16.4652 33.1965 16.4652C33.1965 16.5303 33.1893 16.6098 33.1821 16.6531Z" fill="black"/>
<path d="M38.0175 16.6821C38.35 16.3207 39.0149 16.3424 39.3041 16.7544C39.4486 16.9495 39.4847 17.2025 39.492 17.441C39.0149 17.4482 38.5379 17.441 38.0609 17.4482C38.1115 17.7012 38.2488 17.9686 38.5235 18.0192C38.8126 18.106 39.0728 17.9036 39.2173 17.6723C39.3041 17.7229 39.3908 17.7735 39.4775 17.8241C39.3763 17.9542 39.2751 18.0915 39.1378 18.1782C38.7764 18.4023 38.2416 18.3589 37.9741 18.012C37.6778 17.6362 37.7067 17.0435 38.0175 16.6821ZM38.0825 17.1736C38.4512 17.188 38.8198 17.188 39.1812 17.1736C39.0872 16.9495 38.921 16.7254 38.6536 16.7254C38.3717 16.7038 38.1765 16.935 38.0825 17.1736Z" fill="black"/>
<path d="M39.8535 16.4797C39.9547 16.4797 40.0631 16.4797 40.1643 16.4797C40.1643 16.523 40.1571 16.6098 40.1499 16.6604C40.3161 16.4363 40.598 16.3785 40.8437 16.5014C40.7931 16.5953 40.7498 16.6821 40.6992 16.776C40.5185 16.6748 40.2727 16.7182 40.2149 16.935C40.0993 17.3687 40.1788 17.8241 40.1571 18.265C40.0559 18.265 39.9547 18.265 39.8535 18.265C39.8535 17.6723 39.8535 17.0796 39.8535 16.4797Z" fill="black"/>
<path d="M42.7373 16.5013C43.2288 16.2989 43.8432 16.6025 43.9733 17.1157C44.1323 17.6144 43.7926 18.1927 43.2794 18.2939C42.8024 18.4167 42.2675 18.0915 42.1591 17.6144C42.0362 17.1663 42.2964 16.6531 42.7373 16.5013ZM42.8024 16.776C42.4193 16.9494 42.3254 17.4915 42.5856 17.8024C42.7952 18.077 43.2288 18.1059 43.4818 17.8819C43.7348 17.6578 43.7709 17.2386 43.5686 16.9639C43.4023 16.7326 43.0626 16.6531 42.8024 16.776Z" fill="black"/>
<path d="M49.546 16.6459C49.8929 16.3134 50.529 16.364 50.8037 16.7615C50.9483 16.9567 50.9699 17.2024 50.9916 17.4337C50.5146 17.4409 50.0375 17.4337 49.5605 17.4409C49.6038 17.7156 49.7845 18.0047 50.0881 18.0264C50.3628 18.077 50.5796 17.8746 50.717 17.6722C50.8037 17.7228 50.8904 17.7734 50.9772 17.824C50.7386 18.2432 50.1893 18.4528 49.7484 18.236C49.1629 17.9541 49.1051 17.0795 49.546 16.6459ZM49.5677 17.1735C49.9363 17.188 50.305 17.188 50.6664 17.1735C50.5724 16.9567 50.4134 16.7326 50.1459 16.7254C49.8713 16.6965 49.6689 16.9278 49.5677 17.1735Z" fill="black"/>
<path d="M56.6655 16.6965C56.9908 16.3279 57.6702 16.3496 57.9593 16.7616C58.1111 16.9567 58.14 17.2097 58.1545 17.4482C57.6774 17.4555 57.2004 17.4482 56.7161 17.4555C56.7595 17.7229 56.933 18.012 57.2365 18.0337C57.5112 18.0915 57.7353 17.8891 57.8798 17.6795C57.9666 17.7301 58.0533 17.7807 58.14 17.8313C57.9015 18.2505 57.3522 18.4601 56.9113 18.2433C56.3403 17.9614 56.2752 17.1374 56.6655 16.6965ZM56.7306 17.1736C57.0992 17.188 57.4678 17.188 57.8292 17.1736C57.7425 16.9784 57.6124 16.7688 57.3811 16.7327C57.0847 16.6604 56.8318 16.9061 56.7306 17.1736Z" fill="black"/>
<path d="M64.6957 16.6675C64.862 16.4507 65.1366 16.3712 65.3896 16.4941C65.339 16.588 65.2956 16.682 65.2523 16.7832C65.0643 16.6603 64.8042 16.7398 64.7608 16.9639C64.6596 17.3903 64.7319 17.8384 64.7102 18.2721C64.609 18.2721 64.5078 18.2721 64.3994 18.2721C64.3994 17.6794 64.3994 17.0795 64.3994 16.4868C64.5006 16.4868 64.609 16.4868 64.7102 16.4868C64.7102 16.5302 64.6957 16.6242 64.6957 16.6675Z" fill="black"/>
<path d="M66.0111 16.5013C66.5026 16.2917 67.1242 16.5953 67.2543 17.1157C67.4133 17.6144 67.0664 18.1999 66.5532 18.2938C66.0762 18.4167 65.5485 18.0842 65.4401 17.6072C65.3245 17.1663 65.5847 16.6603 66.0111 16.5013ZM66.0762 16.7832C65.722 16.9494 65.6208 17.4409 65.8304 17.759C65.9967 18.0336 66.3942 18.1204 66.6689 17.9541C67.0013 17.759 67.0736 17.2675 66.8423 16.9711C66.6833 16.7254 66.3364 16.6531 66.0762 16.7832Z" fill="black"/>
<path d="M67.6448 16.4796C67.746 16.4796 67.8472 16.4796 67.9556 16.4796C67.97 16.9061 67.9267 17.3325 67.9845 17.7517C68.0351 18.1203 68.6784 18.1276 68.7289 17.759C68.7795 17.3325 68.7434 16.9061 68.7506 16.4796C68.8518 16.4796 68.9602 16.4796 69.0614 16.4796C69.0542 16.8844 69.0759 17.2891 69.047 17.6867C69.0325 17.9107 68.9241 18.1565 68.7 18.2504C68.3459 18.4022 67.811 18.3155 67.6954 17.8963C67.5942 17.4409 67.6737 16.9567 67.6448 16.4796Z" fill="black"/>
<path d="M69.8492 16.7254C70.1022 16.4363 70.5503 16.3351 70.8828 16.5375C71.4682 16.8772 71.4827 17.8602 70.8972 18.2071C70.5575 18.4095 70.1166 18.3227 69.8564 18.0409C69.8637 18.4528 69.8564 18.8576 69.8564 19.2696C69.7553 19.2696 69.6468 19.2696 69.5457 19.2696C69.5457 18.3372 69.5457 17.412 69.5457 16.4796C69.6252 16.4796 69.7769 16.4796 69.8564 16.4796C69.8564 16.5447 69.8492 16.6603 69.8492 16.7254ZM70.1889 16.7688C69.6468 17.0073 69.7625 17.9975 70.3841 18.0336C70.8611 18.0842 71.1285 17.5132 70.9767 17.1157C70.89 16.7904 70.4853 16.6242 70.1889 16.7688Z" fill="black"/>
<path d="M5.2968 0.664977C7.22665 -0.0144447 9.42393 0.10843 11.267 0.990233C13.0162 1.82144 14.4401 3.31761 15.1773 5.11013C15.7773 6.54848 15.9218 8.17476 15.6038 9.69985C14.7943 10.2781 13.9992 10.8708 13.1897 11.449C13.0668 12.4392 12.9367 13.4294 12.821 14.4197C11.4839 14.4269 10.1539 14.4197 8.81679 14.4197C8.49876 14.6943 8.07954 14.8822 7.65309 14.7883C7.34952 14.7666 7.15437 14.4847 6.86525 14.4269C5.56423 14.4197 4.26321 14.4269 2.95496 14.4269C2.82485 13.4439 2.70198 12.4537 2.58633 11.4707C1.77681 10.878 0.967282 10.2925 0.157757 9.69985C-0.19641 7.96515 0.0493388 6.11481 0.858864 4.53913C1.76958 2.73938 3.38863 1.32272 5.2968 0.664977ZM5.53532 2.13224C6.07018 4.82825 6.63396 7.51702 7.13991 10.213C6.38821 7.63267 5.66542 5.03785 4.92095 2.4575C4.26321 2.67433 3.67775 3.08632 3.24407 3.62841C4.29935 5.91966 5.39799 8.18922 6.43881 10.4877C5.21729 8.41328 4.02469 6.32442 2.81763 4.24279C2.32613 4.69814 1.96473 5.29083 1.79126 5.94134C3.04169 7.47365 4.28489 9.02043 5.52809 10.5527C5.61482 10.6612 5.69433 10.7696 5.77384 10.8852C4.39331 9.51915 3.04169 8.11694 1.66839 6.74364C1.39373 7.4086 1.29977 8.15308 1.47324 8.85418C1.49492 8.94815 1.58888 8.99874 1.66116 9.05656C2.40564 9.59143 3.14288 10.1335 3.88736 10.6684C3.98132 11.449 4.08251 12.2296 4.1837 13.0102C5.07273 13.0102 5.96899 13.0102 6.86525 13.0102C7.27001 12.9741 7.4724 13.4511 7.86993 13.4439C8.27469 13.4728 8.4843 12.9885 8.88184 13.0102C9.78533 13.0102 10.6888 13.0102 11.5851 13.0102C11.679 12.2296 11.7802 11.449 11.8742 10.6684C12.6114 10.1263 13.3415 9.59143 14.0859 9.06379C14.1582 8.99874 14.2594 8.94815 14.2883 8.84696C14.4618 8.14585 14.3678 7.40138 14.0932 6.73641C12.7054 8.11694 11.3466 9.53361 9.95157 10.9069C11.1803 9.35291 12.438 7.82782 13.6812 6.28828C13.7896 6.12927 14.0281 5.97025 13.9197 5.75342C13.7462 5.16796 13.392 4.64755 12.9439 4.22833C11.7079 6.3461 10.4864 8.47111 9.25046 10.5889C10.3346 8.2615 11.4261 5.94134 12.5175 3.62119C12.0983 3.06464 11.4983 2.65265 10.8406 2.43581C10.0889 5.03785 9.35888 7.65435 8.60718 10.2564C9.13481 7.53871 9.69136 4.82102 10.2335 2.11056C9.62631 1.77807 8.92521 1.64074 8.23133 1.69857C8.13014 4.52467 7.9928 7.35801 7.9133 10.1841C7.87716 9.86609 7.85548 9.54083 7.84825 9.21558C7.75428 6.7075 7.65309 4.20665 7.5519 1.69857C6.8508 1.6552 6.14969 1.79253 5.53532 2.13224Z" fill="#DD1D21"/>
<path d="M5.53537 2.13229C6.14251 1.79981 6.84362 1.65525 7.53749 1.7203C7.63146 4.22839 7.73265 6.72925 7.83384 9.23733C7.84107 9.56259 7.86275 9.88784 7.89889 10.2059C7.9784 7.37976 8.11573 4.54642 8.21692 1.7203C8.9108 1.66248 9.6119 1.79981 10.219 2.13229C9.68418 4.84999 9.12041 7.56045 8.59277 10.2782C9.3517 7.6761 10.0817 5.06682 10.8262 2.45755C11.4912 2.67439 12.0838 3.08638 12.5031 3.64293C11.4117 5.96309 10.3202 8.28325 9.23605 10.6106C10.472 8.49286 11.6935 6.36785 12.9295 4.25007C13.3776 4.66929 13.7246 5.1897 13.9053 5.77516C14.0137 5.992 13.7752 6.15101 13.6668 6.31003C12.4236 7.84957 11.1659 9.37466 9.93716 10.9287C11.3321 9.55536 12.691 8.14592 14.0787 6.75816C14.3534 7.4159 14.4474 8.1676 14.2739 8.86871C14.245 8.9699 14.1438 9.02049 14.0715 9.08554C13.3343 9.62041 12.597 10.1553 11.8598 10.6901C11.7658 11.4708 11.6646 12.2514 11.5707 13.032C10.6672 13.032 9.76369 13.032 8.86743 13.032C8.4699 13.0103 8.26029 13.4946 7.85552 13.4657C7.45799 13.4657 7.24838 12.9958 6.85084 13.032C5.95458 13.032 5.06555 13.032 4.16929 13.032C4.0681 12.2514 3.97414 11.4708 3.87295 10.6901C3.1357 10.148 2.39123 9.60595 1.64675 9.07832C1.57447 9.02049 1.48774 8.9699 1.45883 8.87594C1.28536 8.17483 1.37932 7.42313 1.65398 6.76539C3.02728 8.13869 4.3789 9.53368 5.75943 10.907C5.67992 10.7913 5.60042 10.6829 5.51368 10.5745C4.26325 9.03495 3.02005 7.4954 1.77685 5.96309C1.9431 5.31257 2.30449 4.71989 2.80322 4.26453C4.01751 6.34617 5.21011 8.43503 6.4244 10.5094C5.38358 8.21097 4.27771 5.9414 3.22966 3.65015C3.66334 3.10806 4.2488 2.69607 4.90654 2.47923C5.65101 5.06683 6.3738 7.65442 7.1255 10.2348C6.63401 7.51709 6.07023 4.82108 5.53537 2.13229Z" fill="#FBCE07"/>
<path d="M103.885 4.01869V3.39709H104.153C104.218 3.39709 104.269 3.40432 104.298 3.41155C104.326 3.41878 104.348 3.44046 104.37 3.46937C104.391 3.49829 104.399 3.5272 104.399 3.57056C104.399 3.61393 104.384 3.6573 104.355 3.68621C104.326 3.71512 104.29 3.73681 104.232 3.74403C104.261 3.75849 104.283 3.78017 104.298 3.79463C104.312 3.80908 104.341 3.84522 104.37 3.89582L104.442 4.01869H104.29L104.196 3.88136C104.167 3.83077 104.138 3.80186 104.131 3.7874C104.124 3.77295 104.11 3.76572 104.095 3.75849C104.081 3.75126 104.059 3.75126 104.03 3.75126H104.001V4.01147H103.885V4.01869ZM104.016 3.66453H104.11C104.167 3.66453 104.211 3.66453 104.225 3.6573C104.24 3.65007 104.254 3.64284 104.261 3.62839C104.269 3.61393 104.276 3.59948 104.276 3.58502C104.276 3.56334 104.269 3.54888 104.261 3.53443C104.254 3.51997 104.232 3.51274 104.211 3.51274C104.204 3.51274 104.167 3.51274 104.117 3.51274H104.016V3.66453V3.66453Z" fill="black"/>
</svg>
