<svg width="107" height="39" viewBox="0 0 107 39" fill="none" xmlns="http://www.w3.org/2000/svg">
<g clip-path="url(#clip0_17_1928)">
<path d="M100.289 0H101.774C103.084 0.13102 104.452 0.538639 105.399 1.51401C106.665 2.72231 107.029 4.57116 106.986 6.25986C106.884 8.8366 106.025 11.326 104.962 13.6552C102.909 18.0663 99.9978 22.026 96.7077 25.6072C93.1847 29.4068 89.1959 32.8133 84.7266 35.4483C81.8151 37.1079 78.6706 38.5491 75.2932 38.8694H73.7646C72.4107 38.7384 71.0423 38.258 70.1106 37.2389C69.1643 36.2781 68.8149 34.9388 68.6548 33.6431C68.8586 34.3128 69.0187 35.0116 69.4118 35.6084C69.9941 36.5547 70.984 37.1952 72.0468 37.4718C73.5899 37.8503 75.2204 37.6611 76.7635 37.2826C79.3111 36.6275 81.684 35.4483 83.9259 34.0944C88.3515 31.3721 92.2821 27.9219 95.7469 24.0641C98.9933 20.3955 101.905 16.3484 103.783 11.8064C104.627 9.68095 105.311 7.39537 105.122 5.08068C105.006 3.66857 104.365 2.21279 103.142 1.44122C101.832 0.582313 100.202 0.509524 98.7021 0.684218C96.3583 1.00449 94.1164 1.90707 92.0347 2.98435C89.6763 4.16354 87.5508 5.70667 85.4254 7.26435C87.9876 5.25537 90.6953 3.40653 93.6506 2.02354C95.7323 1.01905 97.9742 0.276599 100.289 0Z" fill="#098095"/>
<path d="M62.5696 19.7986C62.8462 20.381 62.7006 21.0361 62.6423 21.6475C60.3277 21.7203 57.9984 21.662 55.6837 21.6912C54.9121 21.6912 54.126 21.7057 53.3545 21.6329C53.1506 21.6475 53.0342 21.4728 52.9177 21.3418C53.3836 21.5019 53.8785 21.5601 54.3589 21.5456C57.0813 21.531 59.8036 21.5601 62.5259 21.531C62.5404 20.9487 62.5404 20.381 62.5696 19.7986Z" fill="#D3FBFD"/>
<path d="M14.8782 21.4437C15.5624 21.5747 16.2757 21.531 16.9599 21.531C18.5031 21.531 20.0462 21.531 21.5893 21.531C21.6767 21.5456 21.8514 21.5747 21.9387 21.5892C20.1918 21.7931 18.4157 21.6329 16.6542 21.6912C16.0574 21.6766 15.3877 21.8367 14.8782 21.4437Z" fill="#D4FCFD"/>
<path d="M63.8652 11.6608C64.2 11.6754 64.5348 11.6608 64.8842 11.6608C64.957 13.7572 64.8842 15.8535 64.9133 17.9498C64.9279 18.7942 65.8013 19.391 66.5875 19.391C68.4218 19.4056 70.2415 19.391 72.0758 19.391C72.6872 19.4056 73.3714 19.2309 73.7354 18.7068C73.9392 18.4593 73.9537 18.1245 73.9537 17.8188C73.9392 16.3339 73.9537 14.8344 73.9537 13.3495C73.9537 12.8109 73.9101 12.2723 74.0411 11.7482C74.405 11.7482 74.7835 11.7482 75.1475 11.7482C75.2348 12.2723 75.1911 12.8109 75.2057 13.3495C75.2057 14.9655 75.2057 16.5814 75.2057 18.1973C75.2203 19.3474 74.6234 20.5557 73.5607 21.0506C72.9638 21.4 72.2505 21.3272 71.5808 21.3418C69.7465 21.3272 67.9122 21.3709 66.0925 21.3127C64.7241 21.138 63.7924 19.7695 63.7341 18.4448C63.705 16.4067 63.7341 14.354 63.7196 12.3159C63.6905 12.0976 63.7778 11.8792 63.8652 11.6608Z" fill="#008896"/>
<path d="M12.811 11.7481C13.1749 11.7336 13.5534 11.7336 13.9174 11.7336C14.0338 13.466 13.9174 15.1983 13.961 16.9307C14.0047 17.5276 13.8009 18.2118 14.2085 18.7068C14.587 19.2163 15.2567 19.4201 15.8681 19.391C17.7024 19.3764 19.5221 19.4056 21.3564 19.3764C22.0843 19.3764 22.9869 18.896 22.9723 18.0662C22.9869 16.5377 22.9723 15.0091 22.9723 13.4805C22.9723 12.9128 22.9141 12.3305 23.0597 11.7627C23.4382 11.7481 23.8167 11.7481 24.2098 11.7627C24.2389 13.7426 24.2098 15.7079 24.2243 17.6877C24.2243 18.2264 24.268 18.765 24.0642 19.2745C23.7294 20.3955 22.6812 21.3272 21.4729 21.3272C19.4785 21.3417 17.4695 21.3417 15.4751 21.3272C14.7181 21.3563 14.0047 20.9632 13.5098 20.41C12.9566 19.7695 12.7236 18.896 12.7382 18.0662C12.7382 16.4503 12.7382 14.8344 12.7382 13.2185C12.7527 12.7235 12.7091 12.2285 12.811 11.7481Z" fill="#008896"/>
<path d="M25.6218 14.3686C25.6218 12.8691 27.0484 11.6899 28.4896 11.7336C31.1974 11.7336 33.9052 11.7336 36.6275 11.7336C36.7003 12.3741 36.6857 13.0147 36.6566 13.6552C33.9488 13.7426 31.2265 13.6552 28.5042 13.6989C27.7618 13.7571 26.8883 14.1793 26.8009 15.0091C26.7718 15.9845 26.7864 16.9744 26.8009 17.9498C26.8009 18.8087 27.689 19.4056 28.4896 19.391C31.1974 19.4056 33.8906 19.3764 36.5984 19.4056C36.7148 20.0316 36.6566 20.6575 36.6711 21.2835C36.0743 21.4 35.4628 21.3272 34.866 21.3418C32.6095 21.3272 30.3676 21.3563 28.1111 21.3272C26.699 21.2981 25.68 19.9151 25.6218 18.5758C25.6072 17.1782 25.6072 15.7661 25.6218 14.3686Z" fill="#008896"/>
<path d="M38.3598 11.7481C38.5928 11.5734 38.913 11.6753 39.1896 11.6608C39.408 11.6462 39.539 11.8792 39.5245 12.0684C39.539 14.0483 39.5099 16.0427 39.539 18.0226C39.5681 18.8815 40.4562 19.3764 41.2423 19.3764C44.0811 19.3764 46.9053 19.3764 49.7441 19.3764C49.7586 20.0315 49.7732 20.6721 49.7441 21.3272C46.9926 21.3417 44.2412 21.3272 41.5043 21.3417C40.9948 21.3272 40.4416 21.3709 39.9758 21.1234C38.8694 20.6284 38.2725 19.3619 38.3453 18.1972C38.3744 16.0427 38.2871 13.8881 38.3598 11.7481Z" fill="#008896"/>
<path d="M78.1463 12.0102C79.0634 11.5298 80.1261 11.6754 81.1306 11.6608C83.4308 11.6608 85.7455 11.6463 88.0456 11.6754C88.0747 12.345 88.0893 13.0147 88.0019 13.6843C85.8328 13.7135 83.6637 13.6843 81.5091 13.6989C80.592 13.728 79.6603 13.6116 78.7577 13.8154C78.3646 13.8882 78.0153 14.223 78.0007 14.6306C78.1463 15.2275 78.7868 15.4458 79.34 15.4458C81.2471 15.4458 83.1542 15.4458 85.0758 15.4458C85.6144 15.4604 86.1968 15.4458 86.6772 15.737C88.1038 16.5522 88.5697 18.5758 87.7399 19.9733C87.2595 20.8322 86.3132 21.4 85.3378 21.3709C83.3871 21.4582 81.4218 21.3854 79.471 21.4145C78.5539 21.3854 77.6222 21.5019 76.7196 21.3272C76.705 20.6866 76.705 20.0461 76.7342 19.4056C79.6021 19.3619 82.47 19.4056 85.3378 19.391C85.76 19.3764 86.2113 19.3182 86.5316 19.0271C86.881 18.7213 86.8955 18.0808 86.517 17.7751C86.2841 17.6004 86.0221 17.4548 85.7309 17.4694C83.9403 17.4403 82.1642 17.513 80.3736 17.4111C79.5293 17.4403 78.6412 17.4257 77.8697 17.0035C77.0544 16.5377 76.5304 15.5914 76.6031 14.6306C76.5012 13.5388 77.1418 12.4469 78.1463 12.0102Z" fill="#008896"/>
<path d="M0.975364 12.476C1.48489 12.0102 2.16911 11.7336 2.86788 11.7482C4.73128 11.7482 6.60924 11.7482 8.47265 11.7482C9.60816 11.719 10.7146 12.4469 11.1804 13.466C11.5735 14.2521 11.4424 15.1692 11.4716 16.0282C11.4424 17.8042 11.5298 19.5657 11.4279 21.3418C11.0494 21.3418 10.6709 21.3418 10.2924 21.3418C10.1759 19.2454 10.2778 17.12 10.2341 15.0237C10.2196 14.5724 9.91387 14.1793 9.50625 14.0046C9.08407 13.7571 8.57455 13.7863 8.09414 13.7863C6.3472 13.7863 4.60026 13.7863 2.86788 13.7863C2.28557 13.7571 1.67414 14.0337 1.38298 14.5433C1.2374 14.8053 1.26652 15.111 1.25196 15.3876C1.26652 17.0909 1.25196 18.7941 1.26652 20.4974C1.26652 20.774 1.25196 21.0652 1.20829 21.3418C0.829786 21.3563 0.436724 21.3418 0.0582205 21.3418C-0.0291265 19.2309 0.0582205 17.12 0.014547 15.0091C-0.0582421 14.0774 0.305704 13.1166 0.975364 12.476Z" fill="#008896"/>
<path d="M51.2289 14.354C51.2726 12.9564 52.5973 11.8064 53.9803 11.85C56.8045 11.8646 59.6433 11.8209 62.4675 11.8646C62.4675 12.4324 62.4675 13.0001 62.4675 13.5679C59.5996 13.6698 56.7318 13.5679 53.8639 13.6261C53.3107 13.6989 52.7284 13.9609 52.4081 14.4413C52.1897 14.7471 52.2625 15.1401 52.2771 15.4895C55.1013 15.4749 57.9255 15.4895 60.7497 15.4895C61.2883 15.4895 61.8415 15.4749 62.3802 15.5477C62.4675 16.1155 62.4675 16.6978 62.3802 17.2656C61.7542 17.3529 61.1137 17.3092 60.4877 17.3238C57.7508 17.3238 55.0139 17.3384 52.2771 17.3238C52.2625 17.7314 52.2043 18.1536 52.3207 18.5612C52.6265 19.1581 53.3252 19.4929 53.9803 19.522C56.8045 19.5366 59.6433 19.5075 62.4675 19.5366C62.4821 20.1189 62.4675 20.6867 62.4821 21.269C59.7015 21.3563 56.9065 21.2835 54.1114 21.3126C53.1505 21.3563 52.1024 20.905 51.6511 20.017C51.4036 19.5366 51.2144 19.0125 51.2144 18.4593C51.2289 17.0909 51.2144 15.7224 51.2289 14.354Z" fill="#008896"/>
<path d="M82.6302 25.8983C82.339 25.3597 82.0333 24.8211 81.7421 24.2824L81.713 24.2242H81.6402C81.4364 24.2242 81.2472 24.2242 81.0434 24.2242H80.9415L80.9123 24.2824C80.6503 24.7337 80.3883 25.185 80.1262 25.6509C79.5585 26.6262 78.9761 27.6453 78.423 28.6498L78.321 28.8245L79.3546 28.8099L79.3838 28.7371C79.5293 28.4314 79.704 28.1111 79.937 27.7326C80.7522 27.7472 81.6257 27.7472 82.5865 27.7326C82.7757 28.0675 82.9504 28.4023 83.1251 28.7371L83.1542 28.8099H84.2024L84.1151 28.6352C83.6346 27.7181 83.1251 26.7864 82.6302 25.8983ZM82.1934 27.0339C81.5674 27.0339 80.9415 27.0339 80.3155 27.0339C80.563 26.568 80.8104 26.1021 81.0725 25.6509C81.1453 25.5198 81.218 25.4034 81.2763 25.2724C81.5238 25.7091 81.7567 26.1749 81.9751 26.6117C82.0624 26.7427 82.1206 26.8883 82.1934 27.0339Z" fill="black"/>
<path d="M88.0312 28.0966C87.2597 28.082 86.4444 28.082 85.571 28.0966C85.5855 26.8446 85.571 25.5781 85.571 24.3406V24.2242H84.6684V24.3406C84.6538 25.7673 84.6684 27.2377 84.6829 28.708V28.8245H84.7994C85.3089 28.8245 85.8184 28.8245 86.328 28.8245C86.8957 28.8245 87.4489 28.8245 88.0167 28.8245L88.1331 28.8099V28.6934C88.1331 28.5333 88.1477 28.3732 88.1477 28.2276V28.1111L88.0312 28.0966Z" fill="black"/>
<path d="M51.6222 24.2097C53.0925 23.9331 54.49 24.4863 54.7521 24.9375C54.5628 25.0686 54.3736 25.1559 54.1698 25.2578C53.4855 24.7046 52.5684 24.7628 51.7532 24.8793C51.1563 25.0686 50.6031 25.5053 50.443 26.1167C50.2246 26.7864 50.5886 27.5288 51.1709 27.8782C52.1317 28.446 53.471 28.4314 54.3008 27.6453C54.5628 27.7909 54.8249 27.9656 55.0287 28.1839C54.5337 28.4605 54.0387 28.7371 53.4855 28.8682C52.5538 28.9992 51.5639 28.941 50.7341 28.4605C49.9189 28.0384 49.2492 27.1358 49.4239 26.175C49.6277 25.1414 50.6177 24.4135 51.6222 24.2097Z" fill="black"/>
<path d="M56.9066 28.082C56.9066 27.6598 56.9066 27.2377 56.9066 26.8009C57.8529 26.7718 59.0175 26.8155 59.9638 26.7718V26.1458C59.0175 26.1022 57.8529 26.1458 56.9066 26.1167C56.8921 25.7091 56.8921 25.2869 56.9066 24.8793C57.8529 24.8502 59.0175 24.8793 59.9638 24.8648V24.2097C58.7118 24.2097 57.2415 24.1951 55.9895 24.2097C55.9895 25.7382 55.9604 27.2813 56.004 28.8099C57.2415 28.8245 58.7118 28.8099 59.9638 28.8245V28.0966C59.0175 28.1111 57.8529 28.1111 56.9066 28.082Z" fill="black"/>
<path d="M67.6064 24.2097L72.4979 24.2242V24.8502C72.4979 24.8502 71.1731 24.8648 70.5035 24.8793C70.4744 26.1895 70.4744 28.8245 70.4744 28.8245H69.63C69.63 28.8245 69.6009 26.2041 69.5863 24.8939C68.9312 24.8502 67.621 24.8648 67.621 24.8648L67.6064 24.2097Z" fill="black"/>
<path d="M73.2694 24.2388C73.2694 24.2388 74.9145 24.2097 75.7443 24.2097C76.3994 24.2097 77.1709 24.4717 77.4766 25.1122C77.6222 25.3888 77.5931 25.7237 77.4184 25.9857C77.1564 26.4661 76.1373 26.8301 76.1373 26.8301L77.7532 28.8245C77.7532 28.8245 77.0399 28.8536 76.6905 28.7954C76.0645 28.213 75.6715 27.4415 75.0746 26.8301C74.798 26.7864 74.2448 26.8009 74.2448 26.8009L74.2303 28.7954H73.2549L73.2694 24.2388ZM74.2448 24.8502C74.2303 25.2869 74.2303 25.7237 74.2448 26.1604C74.8271 26.1604 75.3949 26.1895 75.9772 26.1313C76.312 26.1167 76.6177 25.7819 76.5741 25.4471C76.5304 25.0977 76.181 24.8793 75.8607 24.8793C75.3221 24.8356 74.7835 24.8648 74.2448 24.8502Z" fill="black"/>
<path d="M66.7621 24.2679H65.845C65.845 25.2578 65.8304 27.7472 65.8304 27.7472L62.453 24.2679H61.2593L61.2738 28.8099L62.2492 28.8245L62.2783 25.316L65.6121 28.7954L66.7476 28.8391C66.7476 28.8099 66.7476 25.8692 66.7621 24.2679Z" fill="black"/>
</g>
<defs>
<clipPath id="clip0_17_1928">
<rect width="107" height="38.8694" fill="white"/>
</clipPath>
</defs>
</svg>
