<svg width="107" height="22" viewBox="0 0 107 22" fill="none" xmlns="http://www.w3.org/2000/svg">
<g clip-path="url(#clip0_17_1973)">
<path d="M3.97011 10.7178C3.97011 7.95821 5.62585 5.4657 8.18958 4.41528C10.7533 3.36487 13.6731 3.95239 15.6315 5.89299C17.5899 7.85139 18.1596 10.7712 17.1092 13.3349C16.0588 15.8986 13.5663 17.5366 10.8067 17.5366C8.99075 17.5366 7.26379 16.8244 5.98193 15.5426C4.68226 14.2607 3.95231 12.5338 3.97011 10.7178ZM10.7711 0.0355835C6.44482 0.0355835 2.54582 2.63492 0.890081 6.64074C-0.76566 10.6466 0.142327 15.2399 3.20456 18.2843C6.26679 21.3288 10.8601 22.2546 14.8482 20.5988C18.8362 18.9431 21.4533 15.0441 21.4533 10.7178C21.4711 4.80697 16.6819 0.0355835 10.7711 0.0355835Z" fill="url(#paint0_linear_17_1973)"/>
<path d="M26.2247 10.7178C26.1891 9.72082 26.5808 8.75941 27.2752 8.06507C27.9339 7.38853 28.8597 7.01466 29.8033 7.01466C30.8003 6.97905 31.7617 7.35293 32.4738 8.06507C33.186 8.77722 33.5599 9.73862 33.5242 10.7356C33.5599 11.7326 33.186 12.6762 32.4916 13.3884C31.7973 14.0827 30.8359 14.4744 29.8567 14.4388C28.8775 14.4744 27.9339 14.0827 27.2396 13.3884C26.563 12.6584 26.1891 11.697 26.2247 10.7178ZM29.8745 8.45675C29.3048 8.42115 28.7707 8.6526 28.3968 9.07988C28.0051 9.54278 27.8093 10.1481 27.8449 10.7534C27.8271 11.3409 28.0229 11.9285 28.4146 12.3736C28.7707 12.783 29.3048 13.0323 29.8567 13.0145C30.4086 13.0323 30.9427 12.8008 31.3166 12.3736C31.7083 11.9107 31.9041 11.3231 31.8863 10.7178C31.9041 10.1303 31.7083 9.56058 31.3344 9.09769C30.9605 8.6882 30.4264 8.45675 29.8745 8.45675ZM36.088 7.08587H38.5805C39.168 7.06807 39.7555 7.26391 40.2006 7.67339C40.6101 8.06508 40.8416 8.63479 40.8237 9.20451C40.8237 9.61399 40.7169 10.0235 40.5211 10.3974C40.3252 10.7712 40.0048 11.0739 39.6131 11.2341C39.2926 11.3944 38.9366 11.5012 38.5805 11.519H37.6725V14.3498H36.1236L36.088 7.08587ZM37.6191 8.38554V10.2371H38.2244C38.4737 10.2371 38.7229 10.1303 38.901 9.95226C39.079 9.77422 39.1858 9.54278 39.1858 9.27572C39.2036 9.00867 39.079 8.75942 38.8653 8.58138C38.5983 8.40335 38.2956 8.31432 37.9752 8.33213L37.6191 8.38554ZM43.5299 7.08587H47.6247V8.52797H45.0966V9.98787H47.6247V11.4122H45.0966V12.9077H47.6247V14.3498H43.5299V7.08587ZM56.0103 7.08587H57.5414V14.3498H56.0103L52.6988 9.6496V14.3498H51.1321V7.08587H52.6988L56.0281 11.7504L56.0103 7.08587ZM64.7163 7.29952H65.6777V10.0057H69.0426V7.29952H69.9862V14.332H69.0426V10.9493H65.6777V14.332H64.7163V7.29952ZM73.2976 7.29952H77.1966V8.26091H74.2412V10.0235H77.1966V10.9671H74.2412V13.3884H77.1966V14.332H73.2976V7.29952ZM82.8226 7.03246L86.1697 14.3498H85.1549L84.3537 12.5516H81.3271L80.5259 14.3498H79.5289L82.8226 7.03246ZM82.8226 9.22231L81.701 11.7326H83.962L82.8226 9.22231ZM88.6266 7.29952H89.5702V13.3884H91.8669V14.332H88.6444L88.6266 7.29952ZM94.1813 7.29952H98.4898V8.26091H96.8163V14.332H95.8549V8.26091H94.1813V7.29952ZM101.641 7.29952H102.602V10.0057H105.967V7.29952H106.911V14.332H105.967V10.9493H102.602V14.332H101.641V7.29952Z" fill="black"/>
</g>
<defs>
<linearGradient id="paint0_linear_17_1973" x1="0.0867171" y1="10.7226" x2="21.4656" y2="10.7226" gradientUnits="userSpaceOnUse">
<stop stop-color="#EC008C"/>
<stop offset="0.25" stop-color="#AE108E"/>
<stop offset="0.51" stop-color="#771E90"/>
<stop offset="0.72" stop-color="#4F2891"/>
<stop offset="0.89" stop-color="#372F92"/>
<stop offset="1" stop-color="#2E3192"/>
</linearGradient>
<clipPath id="clip0_17_1973">
<rect width="107" height="21.5424" fill="white"/>
</clipPath>
</defs>
</svg>
