<svg xmlns="http://www.w3.org/2000/svg" width="134" height="30" viewBox="0 0 134 30">
    <g fill="none" fill-rule="evenodd">
        <path fill="#1A1919" d="m0 27.243.412-4.419c2.636 1.825 6.054 2.757 9.514 2.757 3.666 0 5.313-1.419 5.313-3.892 0-2.432-1.894-3.283-5.52-4.418l-2.47-.73C3.213 15.325.206 13.014.206 8.27.206 3.528 3.583.163 10.668.163c3.46 0 6.425.73 8.937 2.068l-.453 4.378c-2.554-1.378-5.478-2.027-8.526-2.027-3.583 0-4.983 1.378-4.983 3.486 0 1.865 1.112 3.244 4.489 4.176l2.348.648c5.848 1.622 8.196 4.338 8.196 8.635C20.676 26.23 17.34 30 9.596 30 5.973 30 2.555 29.068 0 27.243m31.785-1.54c1.441 0 2.677-.284 3.83-.81l-.37 4.093c-1.36.568-2.884.852-4.284.852-4.613 0-7.496-2.27-7.496-6.892V3.771l5.148-.689v5.513h7.043l-.37 3.77h-6.673v9.973c0 2.554 1.483 3.365 3.172 3.365m18.876-1.987v-4.824c-.66.325-1.4.568-2.307.811l-2.018.486c-2.76.69-4.077 1.42-4.077 3.325 0 1.784 1.441 2.554 3.253 2.554 2.224 0 4.078-.852 5.149-2.352zm.494 5.635-.37-2.432c-1.483 1.905-3.666 3-6.467 3-4.036 0-6.92-2.392-6.92-5.878 0-3.487 1.771-5.473 7.167-6.77l3.295-.77c1.936-.487 2.554-.973 2.554-2.23 0-1.379-.783-2.149-3.79-2.149-2.718 0-5.354.568-8.031 1.987l.412-4.257c2.389-1.257 5.148-1.824 7.949-1.824 6.137 0 8.69 2.27 8.69 6.77v9c0 1.986.247 3.81.495 5.553h-4.984zm22.983-5.432v-9.891c-1.235-1.297-2.842-1.906-4.819-1.906-3.79 0-5.725 2.797-5.725 6.851 0 4.095 1.936 6.851 5.643 6.851 2.018 0 3.624-.608 4.901-1.905zM79.245.812v28.54h-4.613l-.247-2.23c-1.482 1.824-3.707 2.797-6.384 2.797-5.601 0-9.514-4.257-9.514-10.946s3.954-10.945 9.967-10.945c2.43 0 4.284.81 5.684 2.31V.813h5.107zm3.963 8.315 5.025-.521v20.745h-5.025V9.127m23.971 9.846c0-4.459-1.69-6.932-5.396-6.932-3.666 0-5.436 2.473-5.436 6.932 0 4.46 1.77 6.892 5.436 6.892 3.624 0 5.396-2.433 5.396-6.892zm-15.94 0c0-6.486 3.79-10.945 10.544-10.945 6.714 0 10.544 4.459 10.544 10.945 0 6.608-3.83 10.946-10.544 10.946-6.754 0-10.544-4.46-10.544-10.946zm42.68-3.486v13.864h-5.067V16.257c0-2.513-1.194-4.013-3.954-4.013-1.812 0-3.254.81-4.366 2.31v14.797h-5.148V8.595h4.53l.371 2.676c1.277-2.027 3.46-3.243 6.302-3.243 4.53 0 7.331 2.676 7.331 7.459"/>
        <path fill="#EB8C2F" d="m84.133 6.348-1.801-2.439 1.246-2.756 3.048-.315 1.801 2.44-1.247 2.755-3.047.315"/>
    </g>
</svg>
