<svg width="108" height="44" viewBox="0 0 108 44" fill="none" xmlns="http://www.w3.org/2000/svg">
<path d="M6.75629 0.529785H8.72685C9.86409 0.735664 11.0209 1.00037 12.0013 1.63761C12.315 1.75526 12.3739 2.06898 12.315 2.3925C12.364 3.72582 12.3248 5.05913 12.2954 6.39244C11.1778 6.0199 10.1484 5.37285 8.97194 5.2454C8.40332 5.2454 7.80529 5.33364 7.3151 5.62775C6.54061 6.12774 6.07003 7.0493 6.14846 7.97085C6.09944 8.863 6.57982 9.66691 7.09942 10.3434C8.74646 12.1865 10.9131 13.5492 12.315 15.6276C13.1287 16.8335 13.4523 18.304 13.4032 19.7452C13.4131 21.0785 13.266 22.4412 12.717 23.6667C12.2072 24.9118 11.2366 25.9412 10.0994 26.6372C8.3347 27.7353 6.12885 27.8333 4.12888 27.5588C3.09948 27.4117 2.14851 26.9902 1.24657 26.5C1.23676 24.7157 1.23676 22.9216 1.26617 21.1373C2.53086 21.853 3.79555 22.8432 5.35435 22.6863C6.94256 22.804 8.42293 21.1961 8.01117 19.6275C7.72686 18.2942 6.62884 17.3629 5.64846 16.5099C4.03084 15.1472 2.49165 13.608 1.54068 11.6963C0.677947 9.84337 0.687751 7.73556 1.08971 5.77481C1.51127 4.00032 2.58968 2.35329 4.1779 1.41213C4.94259 0.892525 5.86415 0.716057 6.75629 0.529785Z" fill="#6D8EA3"/>
<path d="M58.432 0.529785H60.8928C61.6084 0.667038 62.3143 0.843506 63.0104 1.05919C63.0006 2.69642 63.0006 4.32385 62.9908 5.95127C62.03 5.69638 61.0692 5.37285 60.0692 5.45128C58.8732 5.45128 57.7065 5.90226 56.8046 6.67675C54.9811 8.42183 54.2262 11.0002 54.187 13.461C54.1281 15.6178 54.4419 17.9021 55.6673 19.7256C56.5791 21.2452 58.2457 22.4118 60.0692 22.3628C61.079 22.4314 62.0398 22.1079 63.0006 21.8726C63.0104 23.6373 63.0202 25.402 62.981 27.1666C60.3928 28.0196 57.5006 27.7843 55.0497 26.6274C53.3046 25.7549 51.8733 24.3432 50.7851 22.7451C49.4616 20.7452 48.8047 18.3727 48.6184 16.0001C48.5106 13.2257 48.6576 10.3728 49.6478 7.75517C50.4909 5.59834 51.8733 3.60817 53.785 2.27486C55.1281 1.28468 56.7752 0.755272 58.432 0.529785Z" fill="#6D8EA3"/>
<path d="M72.9417 0.529785H75.1966C76.5299 0.706253 77.8338 1.14742 78.9024 1.98074C80.4514 3.13759 81.5102 4.83364 82.2161 6.60813C83.1572 9.09829 83.4709 11.7943 83.4023 14.4511C83.4219 17.2256 83.0984 20.0883 81.8239 22.5883C80.9808 24.3137 79.6965 25.8824 77.9906 26.7941C75.2652 28.1666 71.7456 28.0098 69.2457 26.2255C66.4614 24.0981 65.3143 20.5393 64.9516 17.1864C64.7163 13.8335 64.7457 10.3826 65.7849 7.14733C66.5594 4.84345 67.9712 2.61799 70.1574 1.43173C71.0005 0.902329 71.9809 0.706253 72.9417 0.529785ZM73.5299 5.57873C72.3535 5.7552 71.4515 6.70616 71.0201 7.77478C69.9908 10.4022 69.9613 13.2845 70.1182 16.059C70.2947 17.6766 70.4123 19.3824 71.2358 20.8334C71.6182 21.5687 72.2162 22.2157 73.0103 22.4902C74.324 23.0098 75.9515 22.5099 76.7259 21.3236C77.7848 19.7354 78.0299 17.7746 78.1769 15.9217C78.2357 13.6668 78.2259 11.3728 77.6965 9.16691C77.3828 8.1081 77.0299 6.96106 76.1181 6.23558C75.4024 5.63755 74.4417 5.40226 73.5299 5.57873Z" fill="#6D8EA3"/>
<path d="M14.315 0.863117C16.2562 0.745472 18.2071 0.853313 20.1581 0.823902C22.5992 0.853313 25.0404 0.765079 27.4815 0.853313C27.5011 0.882725 27.5599 0.941547 27.5795 0.970959C27.658 2.48074 27.6678 4.00033 27.5893 5.51011C27.5599 5.52972 27.5109 5.57873 27.4815 5.60815C26.3443 5.68658 25.2168 5.61795 24.0796 5.63756C23.2659 5.34344 23.5698 6.32382 23.4914 6.70617C23.4816 13.559 23.5306 20.4119 23.4717 27.2647C23.4423 27.2843 23.3835 27.3333 23.3541 27.3627C21.6777 27.4608 19.9816 27.4117 18.3052 27.3235C18.2954 21.4314 18.3052 15.5394 18.3052 9.6473C18.2954 8.3532 18.364 7.0591 18.2659 5.77481C18.2463 5.7454 18.1973 5.68658 18.1777 5.65716C16.8836 5.58854 15.5993 5.67677 14.3052 5.61795C14.0209 4.33365 14.2268 2.94152 14.1778 1.6082C14.3248 1.45134 14.0111 0.961155 14.315 0.863117Z" fill="#6D8EA3"/>
<path d="M29.5991 0.853305C31.2559 0.774875 32.9127 0.804286 34.5598 0.833698C34.6578 1.34349 34.648 1.8729 34.6676 2.3925C34.648 7.29439 34.6578 12.1963 34.648 17.0982C34.6676 18.5295 34.6284 19.9805 34.9911 21.3726C35.148 21.9706 35.5401 22.5393 36.1186 22.7844C36.8146 23.1373 37.6185 23.0687 38.3734 23.0687C39.0597 23.0098 39.7754 22.7059 40.1577 22.1177C40.442 21.6079 40.5597 21.0197 40.6479 20.4413C40.8636 18.5197 40.8146 16.5786 40.8244 14.6374C40.8244 10.0296 40.8244 5.42187 40.8244 0.81409C42.5204 0.81409 44.2165 0.81409 45.9223 0.81409C45.9125 7.35321 45.9321 13.8923 45.9125 20.4216C45.8145 22.0001 45.5792 23.6667 44.5498 24.9314C43.5008 26.4314 41.7067 27.2353 39.942 27.4902C37.8048 27.7745 35.5303 27.7745 33.501 26.951C31.5108 26.1863 30.0304 24.3039 29.7167 22.1961C29.3049 19.3628 29.4716 16.5001 29.4422 13.6472C29.4716 9.412 29.3932 5.17677 29.4716 0.941539C29.5206 0.931735 29.5794 0.882717 29.5991 0.853305Z" fill="#6D8EA3"/>
<path d="M87.4218 0.823933C89.6767 0.823933 91.9316 0.814129 94.1864 0.823933C94.7845 4.68662 95.255 8.56892 95.7844 12.4414C96.0884 14.7453 96.2354 17.0688 96.4707 19.3923C96.6864 17.8335 96.804 16.2551 96.9707 14.6865C97.4315 10.0297 98.4119 5.46112 99.1177 0.84354C101.353 0.804325 103.588 0.823933 105.824 0.823933C106.588 9.23557 107.216 17.657 108 26.0687V27.3922C106.255 27.3922 104.52 27.3922 102.775 27.3922C102.402 20.2256 102.059 13.059 101.853 5.88268C100.598 13.0394 99.5981 20.2452 98.3334 27.402C97.0883 27.3922 95.8531 27.3922 94.608 27.3628C93.7551 22.1471 93.0394 16.9217 92.2257 11.7061C91.9021 9.70616 91.6865 7.67677 91.2845 5.68661C91.0884 12.9218 90.461 20.1472 90.01 27.3628C88.2944 27.3922 86.5787 27.3922 84.863 27.353C84.9709 25.3726 85.2454 23.4118 85.412 21.4413C86.0885 14.5786 86.7552 7.70618 87.4218 0.823933Z" fill="#6D8EA3"/>
<path d="M1.16821 31.1372C21.2562 31.0882 41.3441 31.1274 61.432 31.1176C76.8142 31.1372 92.2061 31.0784 107.588 31.147C107.608 35.2548 107.657 39.3626 107.559 43.4703H1.17802C1.25645 39.3626 1.27605 35.245 1.16821 31.1372ZM6.10932 35.0097C4.7564 36.2646 4.7564 38.6077 6.10932 39.8626C7.15832 40.8527 8.76614 41.0488 10.07 40.4606C10.0602 40.0194 10.0602 39.5782 10.0504 39.1371C9.82495 39.2645 9.58966 39.392 9.36417 39.5194C8.71712 39.9214 7.85439 39.6959 7.24655 39.3234C6.04069 38.4998 6.01128 36.5293 7.12891 35.6273C7.92302 34.8234 9.25633 35.0489 10.0798 35.696C10.07 35.245 10.07 34.7842 10.07 34.3332C8.74653 33.8528 7.1093 33.9509 6.10932 35.0097ZM18.6876 33.9901C18.6778 36.2057 18.6778 38.4116 18.6778 40.6273C19.0993 40.6273 19.5209 40.6273 19.9523 40.6273C19.9523 39.1959 19.9424 37.7744 20.0013 36.343C21.364 37.6469 22.462 39.1861 23.7757 40.539C24.0208 40.8331 24.4424 40.8233 24.7757 40.9116C24.913 38.6567 24.8934 36.4018 24.7953 34.1568C24.5012 34.1568 23.913 34.1568 23.6287 34.1568C23.56 35.6175 23.5993 37.0783 23.5404 38.539C22.1679 37.1665 21.0209 35.5783 19.6483 34.196C19.413 34.147 18.9327 34.0391 18.6876 33.9901ZM68.7751 34.147C67.7163 34.4019 67.0594 35.7352 67.5986 36.7155C68.177 37.6175 69.4123 37.5783 70.128 38.3038C70.6966 38.8234 70.0103 39.7253 69.3731 39.7449C68.7162 39.8233 68.2162 39.3626 67.7751 38.9508C67.5398 39.1861 67.2947 39.4214 67.0594 39.6665C67.2849 39.8822 67.5006 40.0978 67.7457 40.2939C68.6966 41.1174 70.2946 40.9704 71.1084 40.0292C71.6966 39.2057 71.7554 37.7253 70.726 37.2351C70.0692 36.7744 69.177 36.6861 68.6574 36.0293C68.7358 35.794 68.6378 35.3332 68.9809 35.245C69.5496 34.8038 70.2554 35.2548 70.8044 35.4803C70.9613 35.2156 71.1378 34.9509 71.2946 34.6764C70.5201 34.2548 69.6672 33.8921 68.7751 34.147ZM100.539 34.245C99.6079 34.6568 99.2256 35.8724 99.6962 36.7744C100.333 37.6077 101.529 37.6175 102.275 38.3136C102.667 38.9116 102.098 39.7253 101.431 39.7449C100.794 39.8233 100.373 39.2645 99.8628 38.9998C99.5883 39.1567 99.353 39.3822 99.1079 39.5684C99.5393 40.0782 100.049 40.6174 100.735 40.7351C101.304 40.9214 101.922 40.7939 102.48 40.5978C103.539 40.0978 103.961 38.6371 103.343 37.6371C102.686 36.892 101.628 36.7842 100.863 36.1959C100.569 35.9312 100.706 35.4116 101.069 35.2548C101.588 34.7646 102.333 35.1764 102.824 35.5097C103.02 35.245 103.196 34.9607 103.353 34.6666C102.539 34.1175 101.471 33.8724 100.539 34.245ZM12.6092 34.1568C12.6092 36.3136 12.6092 38.4704 12.6092 40.6273C13.7857 40.6273 14.9621 40.6273 16.1386 40.6273C16.1386 40.3822 16.1386 39.892 16.1386 39.6469C15.3641 39.6469 14.5994 39.6469 13.8347 39.6469C13.7955 39.0292 13.7857 38.4018 13.7759 37.7842C14.5308 37.7842 15.2857 37.7842 16.0405 37.7842C16.0405 37.5097 16.0405 36.9802 16.0405 36.7057C15.2857 36.7057 14.5308 36.7057 13.7857 36.7057C13.7857 36.343 13.7857 35.6077 13.7857 35.245C14.5602 35.2352 15.3445 35.2744 16.1092 35.1371C16.1288 34.892 16.168 34.4019 16.1778 34.1568C14.9915 34.1568 13.7955 34.1568 12.6092 34.1568ZM27.0208 34.1666C26.9031 34.4803 26.9031 34.8234 26.8541 35.1567C27.3639 35.2254 27.8737 35.2352 28.3933 35.2646C28.3933 37.0489 28.3933 38.843 28.3933 40.6273C28.7855 40.6273 29.1776 40.6273 29.5698 40.6273C29.5698 38.8528 29.5698 37.0685 29.5698 35.294C30.109 35.2352 30.6384 35.196 31.1776 35.1371C31.1286 34.8136 31.0991 34.4803 31.0207 34.1666C29.6874 34.1175 28.3541 34.1273 27.0208 34.1666ZM33.2952 34.147C33.2952 36.3038 33.2952 38.4704 33.2952 40.6273C33.6775 40.6273 34.0697 40.6273 34.4618 40.6273C34.4716 39.7351 34.4913 38.8528 34.5501 37.9704C35.2854 38.7743 35.8344 39.7351 36.4422 40.6371C36.8147 40.6371 37.55 40.6273 37.9226 40.6273C37.2461 39.7449 36.5697 38.8724 35.9422 37.9606C36.2657 37.8136 36.6089 37.6861 36.8638 37.4214C37.6089 36.7352 37.5794 35.4214 36.8736 34.7156C35.8344 33.9313 34.4716 34.1862 33.2952 34.147ZM40.1578 34.1568C40.1578 36.3136 40.1578 38.4704 40.1578 40.6273C41.3343 40.6273 42.5107 40.6273 43.6872 40.6273C43.6872 40.3822 43.6872 39.9018 43.6872 39.6567C42.9029 39.6371 42.1088 39.7057 41.3343 39.5488C41.2853 38.99 41.3049 38.4312 41.3343 37.8822C42.05 37.6469 42.8441 37.8332 43.5892 37.7645C43.5892 37.4998 43.5892 36.9704 43.5892 36.7057C42.8343 36.7057 42.0892 36.7057 41.3343 36.7057C41.3343 36.343 41.3343 35.6077 41.3343 35.245C42.1088 35.2352 42.8931 35.2744 43.6578 35.1371C43.6774 34.892 43.7068 34.4019 43.7264 34.1568C42.5402 34.1568 41.3441 34.1568 40.1578 34.1568ZM50.2949 34.147C50.2361 36.2548 50.1969 38.3724 50.2949 40.49C50.3145 40.5194 50.3538 40.588 50.3832 40.6174C51.7753 40.6371 53.4518 40.892 54.5498 39.8233C55.9321 38.5979 55.9713 36.1763 54.54 34.9803C53.3635 33.9803 51.7165 34.1372 50.2949 34.147ZM57.785 34.1568C57.8438 35.0391 57.9027 35.9214 57.9713 36.8038C58.1576 36.8038 58.5203 36.794 58.6968 36.794C58.7752 35.9116 58.834 35.0293 58.8929 34.1568C58.6183 34.1568 58.0595 34.1568 57.785 34.1568ZM61.4026 34.1568C61.4418 36.3038 61.4614 38.4508 61.383 40.5978C62.5693 40.6273 63.7653 40.6273 64.9614 40.6273C64.9614 40.3822 64.9614 39.892 64.9614 39.6469C64.1771 39.6469 63.3928 39.6469 62.6085 39.6469C62.6085 39.0292 62.6085 38.4116 62.6085 37.794C63.3242 37.794 64.03 37.8038 64.7457 37.7645C64.9712 37.4998 64.8241 37.0881 64.883 36.794C64.1379 36.6175 63.3634 36.7253 62.6085 36.6861C62.6085 36.3234 62.6085 35.5979 62.6085 35.2352C63.3732 35.2352 64.1379 35.2352 64.9124 35.2352C64.9516 34.892 64.9614 34.5489 64.9908 34.2156C63.7849 34.147 62.5889 34.1568 61.4026 34.1568ZM73.324 34.1568C73.3436 34.4019 73.3926 34.892 73.4221 35.1371C73.8828 35.3038 74.3828 35.2254 74.8632 35.2842C74.8632 37.0587 74.8632 38.843 74.8632 40.6273C75.2554 40.6273 75.6475 40.6273 76.0397 40.6273C76.0397 38.843 76.0397 37.0489 76.0397 35.2646C76.52 35.2352 77.0004 35.2156 77.4808 35.1371C77.5004 34.892 77.5298 34.4019 77.5494 34.1568C76.1377 34.1568 74.7358 34.1568 73.324 34.1568ZM79.7063 34.1568C79.6474 35.6567 79.5886 37.1763 79.7455 38.6763C79.7847 39.4802 80.2749 40.2449 81.0396 40.539C81.9807 41.0096 83.1572 40.8723 84.0297 40.2939C84.5689 39.892 84.8238 39.2351 84.8631 38.5881C84.9023 37.0979 84.8631 35.6077 84.8631 34.1273C84.4709 34.1764 84.0788 34.2058 83.6964 34.2842C83.6474 35.6175 83.7356 36.9606 83.667 38.294C83.7846 39.1469 82.8925 39.9214 82.0592 39.7155C81.5004 39.6861 81.0298 39.2351 80.9415 38.6861C80.7455 37.1959 80.8533 35.6763 80.8337 34.1764C80.5592 34.1568 79.9906 34.1568 79.7063 34.1568ZM87.8238 34.1764C87.8042 34.2058 87.7552 34.2646 87.7356 34.3038C87.6277 36.4116 87.7258 38.5292 87.6963 40.6371C88.6473 40.6371 89.6081 40.6665 90.5591 40.5586C91.559 40.3625 92.412 39.5979 92.7845 38.6567C93.4414 37.2253 92.8433 35.2842 91.3924 34.5979C90.2944 34.0195 89.0101 34.1077 87.8238 34.1764ZM95.5982 34.1568C95.5002 36.3136 95.5492 38.4704 95.5492 40.6273C95.9511 40.6273 96.3629 40.6273 96.7746 40.6273C96.8531 38.4704 96.8629 36.3136 96.7452 34.1568C96.4609 34.1568 95.8923 34.1568 95.5982 34.1568Z" fill="#6D8EA3"/>
<path d="M34.4717 35.0783C34.9521 35.1861 35.5893 35.0881 35.9619 35.4999C36.2854 35.9312 36.1678 36.5881 35.805 36.9606C35.4031 37.1861 34.9129 37.1567 34.4619 37.2253C34.4619 36.5195 34.4619 35.8038 34.4717 35.0783Z" fill="#6D8EA3"/>
<path d="M51.4322 35.1959C52.1185 35.294 52.942 35.1175 53.5302 35.5783C54.6185 36.392 54.6773 38.2253 53.6675 39.137C53.344 39.49 52.8342 39.539 52.393 39.6272C52.1087 39.5782 51.6773 39.7939 51.4519 39.5194C51.3832 38.0782 51.4322 36.6371 51.4322 35.1959Z" fill="#6D8EA3"/>
<path d="M88.9316 35.1959C89.3532 35.2253 89.7944 35.1959 90.2159 35.2744C91.1473 35.49 91.863 36.4312 91.8041 37.392C91.8924 38.0292 91.5296 38.6076 91.1277 39.0488C90.5787 39.637 89.6767 39.5488 88.9512 39.6762C88.9512 38.1861 88.9807 36.6959 88.9316 35.1959Z" fill="#6D8EA3"/>
</svg>
