<svg width="107" height="20" viewBox="0 0 107 20" fill="none" xmlns="http://www.w3.org/2000/svg">
<g clip-path="url(#clip0_17_1847)">
<path d="M13.8082 9.81684C12.7722 10.6321 11.2945 10.683 10.1396 10.0886C9.2055 9.61303 8.20344 9.12049 7.13344 9.18843C6.06344 9.18843 5.11233 9.85081 4.53487 10.717C3.02328 10.717 1.51169 10.717 0.0170898 10.717V4.33097C1.47772 4.31398 2.93836 4.33097 4.39899 4.31398C4.39899 2.87033 4.39899 1.42668 4.39899 -0.0169678H10.7511C10.768 1.15494 10.7511 3.227 10.7511 4.58573C10.7171 4.60271 10.7001 4.6197 10.6831 4.63668C10.6322 4.67065 10.4284 4.84049 10.3604 4.89144C10.1566 5.09525 9.93582 5.29906 9.81693 5.57081C9.83391 4.04224 9.81693 2.0551 9.81693 0.815254C8.30534 0.849223 6.79375 0.764302 5.29915 0.866207C5.21423 2.27589 5.33312 3.70256 5.2482 5.11224C3.82153 5.11224 2.39487 5.11224 0.968201 5.11224C0.951217 6.67478 0.985185 8.22033 0.951217 9.78287C2.30995 9.81684 3.66868 9.78287 5.02741 9.79986C5.75772 9.01859 6.7428 8.44113 7.82979 8.42414C9.96979 8.2543 11.6342 10.3603 13.8082 9.81684Z" fill="#00B3AA"/>
<path d="M75.7662 16.4916C75.3755 15.3537 75.8341 14.0459 76.7682 13.2986C77.5835 13.6892 78.2289 14.5045 78.2459 15.4386C78.2628 16.4576 78.2459 17.4767 78.2459 18.4957C77.1079 18.3768 76.0889 17.5786 75.7662 16.4916Z" fill="#00B3AA"/>
<path d="M100.291 14.8271C100.461 14.8271 100.614 14.8271 100.784 14.8271C100.767 16.033 100.784 17.2559 100.767 18.4618C100.648 18.4618 100.427 18.4618 100.308 18.4787C100.291 17.2729 100.308 16.05 100.291 14.8271Z" fill="#00B3AA"/>
<path d="M106.711 14.8271C106.592 14.8271 106.355 14.8271 106.236 14.8271C106.236 15.1838 106.236 15.5405 106.236 15.8971C105.607 15.7103 104.724 15.7273 104.418 16.4237C104.248 16.9841 104.248 17.6805 104.622 18.156C105.183 18.6656 106.015 18.4278 106.694 18.3429C106.711 17.171 106.694 15.9991 106.711 14.8271ZM106.219 18.0202C105.794 18.0541 105.251 18.224 104.945 17.8164C104.707 17.4087 104.656 16.8652 104.928 16.4576C105.251 16.067 105.794 16.2198 106.202 16.2878C106.236 16.8652 106.236 17.4427 106.219 18.0202Z" fill="#00B3AA"/>
<path d="M95.1112 15.9651C95.5358 15.7443 96.0453 15.8122 96.5039 15.8462C96.7926 15.7952 96.8946 16.05 96.8776 16.3047C96.3511 16.2538 95.6207 15.9481 95.2301 16.4576C95.1452 17.103 95.9434 16.8652 96.3171 16.9501C96.8945 16.9841 97.1323 17.7314 96.8266 18.156C96.5379 18.5127 96.0283 18.4957 95.6207 18.4787C95.264 18.4447 94.7205 18.4957 94.8734 17.9522C95.332 18.0541 95.8415 18.19 96.3001 18.0201C96.5209 17.9182 96.5209 17.5955 96.368 17.4257C95.8925 17.2559 95.2301 17.5276 94.8904 17.0351C94.7205 16.6954 94.7205 16.1689 95.1112 15.9651Z" fill="#00B3AA"/>
<path d="M99.561 16.3217C99.1873 15.6254 98.2192 15.7782 97.5908 15.9311C97.5908 16.033 97.5738 16.2198 97.5738 16.3047C98.1513 16.1689 99.2553 15.9651 99.1533 16.8992C98.6948 16.8822 98.2192 16.7973 97.7776 16.9671C97.1832 17.1879 97.1832 18.19 97.7776 18.4108C98.2362 18.5806 98.7457 18.4617 99.1703 18.2409C99.2722 18.3768 99.4081 18.4787 99.578 18.5466C99.6119 17.7993 99.6629 17.052 99.561 16.3217ZM99.0854 17.8843C98.8137 18.0541 98.474 18.122 98.1513 18.0881C97.8286 18.0541 97.7776 17.6465 97.9135 17.4087C98.2532 17.12 98.7287 17.2898 99.1364 17.2728C99.1024 17.4597 99.2043 17.6974 99.0854 17.8843Z" fill="#00B3AA"/>
<path d="M101.446 15.8292C101.565 15.8122 101.803 15.7952 101.922 15.7783C101.973 16.4746 101.82 17.2049 102.007 17.8843C102.363 18.2919 102.975 18.0541 103.315 17.7314C103.281 17.086 103.298 16.4576 103.298 15.8122C103.416 15.8122 103.637 15.7952 103.739 15.7783C103.756 16.6954 103.756 17.6125 103.739 18.5127C103.535 18.4957 103.399 18.3938 103.332 18.173C102.788 18.4787 101.871 18.6995 101.531 18.0032C101.361 17.3068 101.514 16.5425 101.446 15.8292Z" fill="#00B3AA"/>
<path d="M10.6661 4.89145C12.1098 3.97431 13.995 3.71955 15.5406 4.53479C16.6955 5.1632 18.0372 5.82558 19.362 5.31606C18.6487 5.74066 17.8334 6.01241 16.9842 5.94447C15.3538 5.87653 14.063 4.55177 12.3985 4.65368C11.3455 4.61971 10.5303 5.35003 9.78296 6.01241C9.83391 5.63876 10.1226 5.40098 10.3604 5.1632C10.4114 5.11225 10.6152 4.92542 10.6661 4.89145Z" fill="#FF3C52"/>
<path d="M79.2818 14.2327C79.5366 13.961 79.7574 14.3856 79.8593 14.5724C80.3518 15.4386 79.7913 16.6954 78.7723 16.7973C78.8572 15.9311 78.5005 14.8441 79.2818 14.2327Z" fill="#FF3C52"/>
<path d="M79.2818 13.9779C79.5366 13.7062 79.7574 14.1308 79.8593 14.3176C80.3518 15.1838 79.7913 16.4406 78.7723 16.5425C78.8572 15.6764 78.5005 14.5894 79.2818 13.9779Z" fill="#FF3C52"/>
<path d="M23.3702 6.74268C24.1685 6.18221 25.2215 6.26713 26.1046 6.57284C26.0537 6.7257 26.0027 6.89554 25.9518 7.0484C25.2045 6.26713 23.6929 6.45395 23.3023 7.50697C22.9965 8.40713 23.0305 9.68093 23.9477 10.2074C24.644 10.5981 25.4762 10.3773 26.0537 9.90173C26.0197 10.1225 25.9858 10.3943 25.714 10.4452C24.7629 10.8698 23.4721 10.649 22.8607 9.73189C22.3002 8.81474 22.4191 7.38808 23.3702 6.74268Z" fill="#474D52"/>
<path d="M45.4326 6.42002C46.2988 6.19923 47.3518 6.36907 47.9633 7.06542C48.7615 8.03351 48.5577 9.78287 47.3858 10.3603C46.4517 10.8359 45.1609 10.734 44.4136 9.93573C43.4455 8.84875 43.9041 6.74272 45.4326 6.42002ZM45.5515 6.6578C44.4306 7.06542 44.3287 8.52605 44.6853 9.49414C45.1269 10.6491 46.9612 10.734 47.5726 9.68097C47.9293 9.01859 47.9123 8.18637 47.6745 7.49002C47.3349 6.67478 46.3328 6.38605 45.5515 6.6578Z" fill="#474D52"/>
<path d="M54.1284 9.62999C54.7399 8.50904 55.3003 7.3711 55.9627 6.28412C56.1665 7.71078 56.3024 9.15443 56.4892 10.5811C56.3534 10.5811 56.0646 10.5811 55.9288 10.5811C55.8099 9.57904 55.7419 8.57697 55.64 7.57491C54.9946 8.52602 54.5191 9.57904 54.0265 10.6151C53.4661 9.59602 52.9905 8.52602 52.43 7.50697C52.2942 8.52602 52.1753 9.56205 52.1073 10.5981C52.0054 10.5981 51.8016 10.5981 51.6997 10.5981C51.8865 9.17142 52.0903 7.74475 52.2942 6.31809C53.0075 7.33713 53.4661 8.54301 54.1284 9.62999Z" fill="#474D52"/>
<path d="M69.2782 6.77664C70.0594 6.1822 71.1294 6.26712 72.0126 6.55585C71.9786 6.72569 71.9447 6.89553 71.9277 7.06537C71.1804 6.31807 69.7028 6.45395 69.2782 7.47299C68.9215 8.39013 68.9724 9.7149 69.9236 10.2414C70.6199 10.6151 71.4182 10.3773 72.0126 9.93569C71.9617 10.1225 71.9786 10.3603 71.7578 10.4282C70.7388 10.9378 69.2782 10.649 68.7347 9.57902C68.2931 8.66188 68.4289 7.38807 69.2782 6.77664Z" fill="#474D52"/>
<path d="M74.6282 6.40303C75.3075 6.25018 76.0718 6.31811 76.6662 6.70875C77.9231 7.52399 77.8382 9.73192 76.4624 10.3943C75.5453 10.8359 74.3055 10.751 73.5582 10.0037C72.5391 8.88272 73.0316 6.6578 74.6282 6.40303ZM74.6112 6.69176C73.5582 7.13335 73.4562 8.50907 73.7789 9.46018C74.1866 10.6321 75.9869 10.768 76.6323 9.74891C77.0399 9.03557 77.0399 8.10145 76.7002 7.37113C76.3436 6.60684 75.3415 6.40303 74.6112 6.69176Z" fill="#474D52"/>
<path d="M92.8182 6.28412C93.8882 7.35412 94.8903 8.49205 95.9433 9.57904C95.9433 8.52602 95.9093 7.48999 95.9093 6.43698L96.249 6.45396C96.249 7.86364 96.1981 9.29031 96.215 10.7C95.162 9.59602 94.143 8.45808 93.1239 7.32015C93.1069 8.40713 93.1069 9.49412 93.1409 10.5641C93.039 10.5641 92.8182 10.5641 92.7163 10.5641C92.8352 9.15443 92.8012 7.71078 92.8182 6.28412Z" fill="#474D52"/>
<path d="M99.2723 6.386C99.9176 6.25013 100.614 6.31807 101.191 6.67473C102.516 7.43902 102.465 9.71489 101.073 10.3773C100.121 10.8528 98.8307 10.7339 98.1004 9.93569C97.1153 8.78077 97.6588 6.6068 99.2723 6.386ZM99.2213 6.67473C98.1343 7.09934 98.0324 8.50902 98.3721 9.46013C98.7288 10.4622 100.138 10.7 100.92 10.0546C101.633 9.42616 101.633 8.32219 101.361 7.48997C101.056 6.65775 100.003 6.36902 99.2213 6.67473Z" fill="#474D52"/>
<path d="M27.3784 6.40305C28.0918 6.43702 28.8051 6.42003 29.5184 6.36908C29.5014 6.47098 29.4844 6.65781 29.4675 6.75971C28.9579 6.74273 28.4484 6.70876 27.9389 6.67479C27.9219 7.2013 27.9049 7.71082 27.9219 8.23733C28.3975 8.22035 28.873 8.20336 29.3486 8.18638C29.3486 8.2713 29.3656 8.45813 29.3825 8.56003C28.907 8.52606 28.4144 8.50908 27.9389 8.50908C27.9389 9.10352 27.9219 9.69797 27.9389 10.2924C28.4994 10.2924 29.0598 10.2584 29.6203 10.2584C29.5864 10.3434 29.5014 10.5132 29.4675 10.5811C28.7711 10.5981 28.0748 10.5642 27.3954 10.5811C27.4294 9.18844 27.4294 7.79575 27.3784 6.40305Z" fill="#474D52"/>
<path d="M31.03 6.28412C32.1 7.33713 33.0851 8.50904 34.1551 9.56205C34.1211 8.54301 34.1211 7.50697 34.1041 6.48793C34.206 6.48793 34.4098 6.48793 34.5117 6.50491C34.3589 7.89761 34.4608 9.30729 34.4268 10.717C33.3568 9.613 32.3717 8.45809 31.3187 7.35412C31.3017 8.4411 31.3017 9.52808 31.3357 10.5981L30.9451 10.6151C31.013 9.15443 31.047 7.71078 31.03 6.28412Z" fill="#474D52"/>
<path d="M35.7345 6.40303C36.7535 6.437 37.7726 6.437 38.7916 6.38605C38.7916 6.48795 38.7916 6.69176 38.7916 6.77668C38.367 6.74271 37.9424 6.72573 37.5178 6.72573C37.5178 7.99954 37.4669 9.29033 37.5688 10.5641C37.4159 10.5641 37.1102 10.5641 36.9574 10.5641C37.0083 9.29033 36.9913 7.99954 36.9913 6.72573C36.6007 6.58986 35.6156 7.11636 35.7345 6.40303Z" fill="#474D52"/>
<path d="M39.9976 6.40302C40.7109 6.64079 41.4752 6.21619 42.1715 6.57286C42.6641 6.77667 42.715 7.42206 42.5112 7.86365C42.2904 8.27127 41.8149 8.39016 41.4242 8.56C41.9677 9.23936 42.5112 9.90174 43.0377 10.5811C42.7999 10.5811 42.5622 10.5811 42.3244 10.5811C41.8318 9.88476 41.3733 9.17143 40.7618 8.59397L40.5411 8.56C40.5411 9.23936 40.575 9.91873 40.558 10.5981C40.3712 10.5981 40.1844 10.5811 40.0145 10.5811C40.0485 9.18841 40.0485 7.79571 39.9976 6.40302ZM40.575 6.67476C40.558 7.21825 40.5411 7.76175 40.5411 8.30524C40.9487 8.27127 41.3733 8.30524 41.7299 8.08444C42.1206 7.88063 42.1885 7.30317 41.9677 6.94651C41.628 6.53889 41.0336 6.65778 40.575 6.67476Z" fill="#474D52"/>
<path d="M61.3635 6.40302C62.3656 6.52191 63.4356 6.14826 64.3697 6.6408C65.185 7.13334 65.2869 8.23731 65.0831 9.08652C64.8962 9.95271 64.0131 10.4962 63.1808 10.5472C62.5864 10.5641 61.975 10.5132 61.3635 10.5472C61.4315 9.18842 61.4315 7.79572 61.3635 6.40302ZM61.941 6.74271C61.907 7.91461 61.907 9.1035 61.941 10.2754C62.7562 10.4113 63.8092 10.3943 64.3188 9.63001C64.6754 8.93366 64.6924 8.0335 64.3527 7.32017C63.8262 6.52191 62.7562 6.6408 61.941 6.74271Z" fill="#474D52"/>
<path d="M66.5779 6.50495C66.7307 6.48796 67.0194 6.454 67.1723 6.43701C67.1044 7.81273 67.1213 9.20542 67.1723 10.5811C67.0364 10.5811 66.7477 10.5811 66.5949 10.5811C66.6288 9.22241 66.6458 7.86368 66.5779 6.50495Z" fill="#474D52"/>
<path d="M80.6577 6.42C81.6938 6.45397 82.7298 6.43698 83.7489 6.40302C83.7489 6.50492 83.7489 6.69175 83.7489 6.77667C83.3242 6.75968 82.8996 6.7427 82.475 6.7427C82.4411 8.03349 82.458 9.3073 82.509 10.5981C82.3052 10.5981 82.1184 10.5981 81.9315 10.5981C81.9655 9.3073 81.9995 8.03349 81.9485 6.7427C81.5239 6.75968 81.0993 6.77667 80.6747 6.79365C80.6577 6.67476 80.6577 6.50492 80.6577 6.42Z" fill="#474D52"/>
<path d="M84.9546 6.40305C85.668 6.43702 86.3813 6.42003 87.0776 6.36908C87.0607 6.47098 87.0267 6.65781 87.0097 6.75971C86.5002 6.74273 86.0076 6.70876 85.4981 6.67479C85.4811 7.2013 85.4641 7.71083 85.4641 8.23733C85.9397 8.22035 86.4153 8.20336 86.8908 8.1694C86.8908 8.25432 86.9078 8.45813 86.9248 8.54305C86.4322 8.50908 85.9567 8.4921 85.4641 8.4921C85.4641 9.08654 85.4472 9.68098 85.4641 10.2584C86.0076 10.2584 86.5511 10.2415 87.0946 10.2075L87.0776 10.5472C86.3643 10.5472 85.651 10.5472 84.9207 10.5472C85.0056 9.18844 85.0056 7.79575 84.9546 6.40305Z" fill="#474D52"/>
<path d="M88.4873 6.50492C88.6402 6.48794 88.9289 6.45397 89.0817 6.42C89.0478 7.0654 89.0308 7.72778 89.0478 8.37317C89.7441 7.77873 90.3386 7.09936 90.933 6.40302C91.0349 6.43698 91.2557 6.48794 91.3576 6.5219C90.7292 7.08238 90.1348 7.65984 89.5743 8.28825C90.2367 9.05254 90.916 9.79984 91.5614 10.5811C91.3916 10.5811 91.0519 10.5811 90.8651 10.5811C90.2706 9.85079 89.6762 9.12047 89.0478 8.40714C89.0138 9.13746 89.0648 9.85079 89.0817 10.5811C88.9289 10.5811 88.6571 10.5811 88.5043 10.5811C88.5383 9.22238 88.5722 7.86365 88.4873 6.50492Z" fill="#474D52"/>
<path d="M103.569 6.25018C104.639 7.33717 105.641 8.4751 106.694 9.56209C106.694 8.54304 106.66 7.50701 106.643 6.48796C106.728 6.48796 106.915 6.47098 107.017 6.47098V10.7C105.913 9.63002 104.928 8.44114 103.858 7.32018C103.841 8.40717 103.841 9.49415 103.875 10.5811H103.484C103.569 9.13748 103.569 7.69383 103.569 6.25018Z" fill="#474D52"/>
<path d="M86.2285 14.997C86.3814 14.997 86.5512 14.98 86.7041 14.98C86.7041 15.0989 86.7041 15.3197 86.721 15.4386C86.5512 15.4386 86.3814 15.4216 86.2285 15.4216C86.2115 15.3197 86.2285 15.0989 86.2285 14.997Z" fill="#474D52"/>
<path d="M89.965 15.7613C90.016 15.6763 90.1349 15.5235 90.1858 15.4386C90.3387 15.4386 90.6444 15.4216 90.7802 15.4216C90.6953 15.5235 90.5255 15.7103 90.4406 15.7952C91.4596 15.999 91.6464 17.3578 91.1029 18.0881C90.4745 18.7844 88.946 18.5636 88.8611 17.5106C88.6742 16.7124 89.0988 15.8292 89.965 15.7613ZM89.7612 16.2368C88.98 16.6105 89.1838 18.224 90.1858 18.0881C90.8991 18.0881 91.035 17.1879 90.8482 16.6614C90.7293 16.2028 90.1518 16.084 89.7612 16.2368Z" fill="#474D52"/>
<path d="M80.5218 16.1519C81.0823 15.6084 81.9315 15.8292 82.6109 15.8971C82.6109 17.1709 82.6109 18.4278 82.6109 19.7016H82.1353C82.1353 19.26 82.1353 18.8354 82.1353 18.3938C81.5579 18.4957 80.8276 18.5806 80.4369 18.0371C80.1142 17.4766 80.1142 16.6784 80.5218 16.1519ZM80.8445 16.4916C80.6407 16.8482 80.6577 17.3238 80.7936 17.7144C81.0484 18.207 81.6937 18.1051 82.1353 17.9692C82.1353 17.3917 82.1353 16.8143 82.1183 16.2368C81.6937 16.2028 81.1503 16.084 80.8445 16.4916Z" fill="#474D52"/>
<path d="M83.2393 15.8292C83.3582 15.8292 83.579 15.8122 83.6809 15.7953C83.7149 16.4576 83.596 17.137 83.7319 17.7994C84.0036 18.3089 84.666 18.0372 85.0227 17.7824C85.0397 17.103 85.0227 16.4407 85.0397 15.7613C85.1586 15.7783 85.3963 15.7953 85.5152 15.7953C85.4982 16.6784 85.5152 17.5786 85.5152 18.4788C85.2605 18.5127 85.1076 18.3938 85.0906 18.1391C84.666 18.3938 84.1395 18.5807 83.6469 18.3768C83.2393 18.19 83.1714 17.6975 83.1714 17.2899C83.2223 16.8143 83.1374 16.3048 83.2393 15.8292Z" fill="#474D52"/>
<path d="M86.2284 15.7783C86.3473 15.7783 86.5681 15.7783 86.687 15.7783C86.704 16.6784 86.687 17.5786 86.687 18.4787C86.5681 18.4787 86.3303 18.4618 86.2114 18.4618C86.2284 17.5786 86.2284 16.6784 86.2284 15.7783Z" fill="#474D52"/>
<path d="M87.4172 15.7443C87.6211 15.7612 87.7739 15.8801 87.8588 16.067C88.1136 15.8971 88.3854 15.7952 88.6911 15.7782C88.827 16.3387 88.0966 16.1349 87.8928 16.5255C87.8588 17.1709 87.8928 17.8333 87.8758 18.4957C87.7739 18.4957 87.5531 18.4617 87.4342 18.4617C87.3833 17.5616 87.4342 16.6614 87.4172 15.7443Z" fill="#474D52"/>
<path d="M91.9352 15.7443L92.2069 15.8122C92.2409 15.8801 92.3088 16.033 92.3258 16.1179C92.8523 15.6933 93.9053 15.6254 94.1601 16.3727C94.262 17.069 94.1941 17.7824 94.2111 18.4787C94.0922 18.4787 93.8714 18.4787 93.7695 18.4787C93.7185 17.8163 93.8374 17.1539 93.7015 16.5085C93.4638 15.982 92.7504 16.2198 92.3938 16.4916C92.3768 17.1539 92.4107 17.7993 92.3938 18.4447C92.2749 18.4617 92.0371 18.4787 91.9182 18.4957C91.9352 17.5785 91.9182 16.6614 91.9352 15.7443Z" fill="#474D52"/>
<path d="M65.4567 16.067C65.8644 15.9651 66.4928 15.982 66.6117 16.4746C66.238 16.4066 65.8304 16.1858 65.4397 16.3557C64.8453 16.6614 64.8113 17.6635 65.3718 18.0201C65.6096 18.173 65.9153 18.105 66.1871 18.105C66.204 17.8503 66.204 17.6125 66.221 17.3577C66.0682 17.3577 65.7794 17.3577 65.6436 17.3577L65.6266 17.103C65.9323 17.103 66.221 17.103 66.5267 17.103C66.5437 17.4766 66.5437 17.8503 66.5437 18.2239C66.1021 18.4277 65.5586 18.5296 65.134 18.2579C64.3528 17.7484 64.5226 16.3047 65.4567 16.067Z" fill="#474D52"/>
<path d="M66.9853 16.6445C67.1042 16.6954 67.2231 16.7464 67.3589 16.7973C67.5627 16.6105 67.9364 16.5595 67.9873 16.9162C67.1042 16.8313 67.308 17.8164 67.291 18.3938C67.2231 18.4108 67.0872 18.4278 67.0023 18.4448C66.9683 17.8334 66.9683 17.2389 66.9853 16.6445Z" fill="#474D52"/>
<path d="M68.1573 16.6445C68.2252 16.6615 68.3611 16.6784 68.446 16.6954C68.497 17.12 68.446 17.5446 68.4969 17.9692C68.6328 18.3089 69.0744 18.1221 69.2273 17.9013C69.2782 17.4937 69.2443 17.0861 69.2612 16.6784H69.55C69.567 17.2899 69.5839 17.9013 69.516 18.4957C69.4311 18.4278 69.2782 18.3089 69.2103 18.241C68.9216 18.4957 68.3781 18.5467 68.2082 18.1221C68.0893 17.6295 68.1573 17.137 68.1573 16.6445Z" fill="#474D52"/>
<path d="M69.9746 16.6445C70.1105 16.6954 70.2463 16.7464 70.3822 16.7973C70.62 16.6275 70.9597 16.5426 71.2144 16.7634C71.5541 17.12 71.5371 17.7145 71.3163 18.1391C71.0955 18.5297 70.569 18.4788 70.2633 18.224C70.2633 18.4957 70.2633 18.7675 70.2803 19.0392C70.2124 19.0222 70.0595 19.0053 69.9746 18.9883C69.9406 18.207 70.0255 17.4257 69.9746 16.6445ZM70.2803 17.154C70.2293 17.5616 70.2633 18.173 70.8238 18.173C71.2484 18.0032 71.2144 17.4257 71.0786 17.0691C70.8578 16.7294 70.5011 16.9842 70.2803 17.154Z" fill="#474D52"/>
<path d="M72.1995 16.6784C72.8109 16.3897 73.4733 17.0351 73.3034 17.6635C73.3034 18.3938 72.2674 18.6995 71.8428 18.1391C71.5541 17.6805 71.639 16.8992 72.1995 16.6784ZM72.4202 16.8992C71.8258 17.0011 71.8598 18.19 72.5052 18.173C73.2355 18.173 73.1675 16.7464 72.4202 16.8992Z" fill="#474D52"/>
<path d="M60.0049 10.5811C59.9879 10.4962 59.9709 10.3263 59.9539 10.2244C59.4274 10.2414 58.9009 10.2924 58.3744 10.2754C58.3744 9.68095 58.3744 9.0865 58.3744 8.49206C58.867 8.49206 59.3425 8.52603 59.8351 8.56V8.18634C59.3425 8.20333 58.867 8.22031 58.3744 8.2373C58.3744 7.72777 58.3744 7.20127 58.3914 6.69174C58.9179 6.72571 59.4614 6.74269 59.9879 6.75968C59.9709 6.65777 59.937 6.47095 59.92 6.36904C59.5633 6.38603 59.1387 6.47095 58.833 6.30111C59.1217 6.18222 59.903 5.26507 59.903 5.26507C59.7501 5.04428 59.5463 5.07825 59.2916 5.28206C58.9179 5.60476 58.6122 5.97841 58.4254 6.42C58.2725 6.42 57.9668 6.40301 57.814 6.40301C57.8819 7.79571 57.8819 9.18841 57.814 10.5811C58.5613 10.5811 59.2746 10.5811 60.0049 10.5811Z" fill="#474D52"/>
</g>
<defs>
<clipPath id="clip0_17_1847">
<rect width="107" height="19.7016" fill="white"/>
</clipPath>
</defs>
</svg>
