<svg width="107" height="31" viewBox="0 0 107 31" fill="none" xmlns="http://www.w3.org/2000/svg">
<g clip-path="url(#clip0_17_1946)">
<path d="M8.11048 3.44561C8.32252 3.63114 8.64057 3.73716 9.06465 3.73716C9.64776 3.73716 10.1513 3.49862 10.1513 3.15405C10.1513 2.57095 8.56106 1.69629 5.88407 1.69629C2.14689 1.72279 0 3.33959 0 5.32745C0 7.2358 1.85534 9.03813 5.93708 9.03813C8.58756 9.03813 9.99232 8.18997 9.99232 7.76589C9.99232 7.58036 9.72727 7.44784 9.40921 7.44784C9.19718 7.44784 9.11766 7.47434 8.72009 7.63337C8.42854 7.73939 7.6599 8.05745 6.54669 8.05745C4.42631 8.05745 2.62398 6.97075 2.62398 5.0359C2.62398 3.44561 4.00223 2.54444 5.69854 2.54444C7.05028 2.54444 7.60689 3.02153 8.11048 3.44561Z" fill="#282929"/>
<path d="M22.4497 5.22148C22.3172 3.36614 20.3293 1.72284 16.6716 1.72284C12.961 1.72284 10.8406 3.33963 10.8406 5.40701C10.8406 7.81895 13.5441 9.06468 16.6716 9.06468C20.1438 9.09118 22.6087 7.42138 22.4497 5.22148ZM19.8787 5.24798C19.9052 5.93711 19.7462 6.70575 19.1896 7.26235C18.5005 7.89846 17.4933 8.1105 16.6981 8.1105C16.009 8.1105 14.1007 7.92497 13.5706 6.30817C13.4911 6.04313 13.4381 5.72507 13.4381 5.30099C13.4381 4.77089 13.5176 3.33963 15.2934 2.78303C15.7175 2.65051 16.1946 2.5975 16.6716 2.5975C17.0427 2.5975 18.2089 2.624 19.1101 3.39264C19.7727 3.97575 19.8787 4.71788 19.8787 5.24798Z" fill="#282929"/>
<path d="M26.3989 2.06735C26.2133 1.90832 26.1338 1.88181 25.8158 1.88181H24.4375C24.199 1.88181 24.0134 1.90832 24.0134 2.09385V8.72006C24.0134 8.90559 24.1194 8.90559 24.4375 8.90559H25.5772C25.8688 8.90559 25.9483 8.85258 25.9483 8.69355V3.89618L32.2564 8.72006C32.442 8.87909 32.495 8.90559 32.7335 8.9321H33.7672C34.0323 8.9321 34.1383 8.90559 34.1383 8.74656V2.06735C34.1383 1.90832 34.0588 1.85531 33.7672 1.88181H32.601C32.3094 1.88181 32.2299 1.93482 32.2299 2.06735V6.52016L26.3989 2.06735Z" fill="#282929"/>
<path d="M43.8656 3.44561C44.0776 3.63114 44.3957 3.73716 44.8198 3.73716C45.4029 3.73716 45.9065 3.49862 45.9065 3.15405C45.9065 2.57095 44.3162 1.69629 41.6392 1.69629C37.8755 1.69629 35.7551 3.31308 35.7551 5.30095C35.7551 7.20929 37.6105 9.01162 41.6922 9.01162C44.3427 9.01162 45.7474 8.16347 45.7474 7.73939C45.7474 7.55386 45.4824 7.42133 45.1643 7.42133C44.9523 7.42133 44.8728 7.44784 44.4752 7.60687C44.1837 7.71289 43.415 8.03094 42.3018 8.03094C40.1814 8.03094 38.3791 6.94425 38.3791 5.00939C38.3791 3.4191 39.7574 2.51794 41.4537 2.51794C42.7789 2.54444 43.3355 3.02153 43.8656 3.44561Z" fill="#282929"/>
<path d="M54.0433 5.72504C54.3349 5.72504 54.4674 5.69853 54.4674 5.5395V5.03591C54.4674 4.87688 54.3614 4.85038 54.0964 4.85038H50.4387V2.783H54.759C55.0505 2.783 55.183 2.7565 55.183 2.57096V2.06737C55.2096 1.88184 55.024 1.88184 54.759 1.88184H48.4243C48.1063 1.88184 48.0002 1.93485 48.0002 2.14688V8.66707C48.0002 8.87911 48.1328 8.87911 48.4243 8.87911H54.759C55.0505 8.87911 55.13 8.85261 55.183 8.74659V8.16348C55.183 7.97795 55.0505 7.97795 54.759 7.97795H50.4122V5.69853H54.0433" fill="#282929"/>
<path d="M59.5564 2.06735C59.3709 1.90832 59.2914 1.88181 58.9733 1.88181H57.6216C57.383 1.88181 57.1975 1.90832 57.1975 2.09385V8.72006C57.1975 8.90559 57.3035 8.90559 57.6216 8.90559H58.7613C59.0528 8.90559 59.1324 8.85258 59.1324 8.69355V3.89618L65.414 8.72006C65.5996 8.87909 65.6526 8.90559 65.8911 8.9321H66.9248C67.1898 8.9321 67.2959 8.90559 67.2959 8.74656V2.06735C67.2959 1.90832 67.2163 1.85531 66.9248 1.88181H65.7851C65.4935 1.88181 65.414 1.93482 65.414 2.06735V6.52016L59.5564 2.06735Z" fill="#282929"/>
<path d="M77.2615 2.78298C77.5796 2.78298 77.6856 2.72997 77.6856 2.57095V2.09386C77.6856 1.93483 77.5531 1.90833 77.2615 1.90833H69.2571C68.992 1.90833 68.833 1.93483 68.833 2.12036V2.59745C68.833 2.75648 68.9125 2.80949 69.2571 2.80949H72.0136V8.69356C72.0136 8.87909 72.1196 8.9056 72.4377 8.9321H74.081C74.3725 8.9321 74.452 8.85259 74.452 8.69356V2.78298H77.2615Z" fill="#282929"/>
<path d="M79.1965 8.69359C79.1965 8.87913 79.3291 8.90563 79.6206 8.90563H81.2109C81.582 8.90563 81.635 8.85262 81.635 8.66709V6.14913C81.635 6.06962 81.635 5.88408 82.006 5.88408C82.3771 5.88408 82.5892 6.04311 82.6422 6.14913L85.3722 8.69359C85.5577 8.85262 85.5842 8.87913 85.9553 8.87913H87.8106C87.9431 8.87913 88.1817 8.87913 88.1817 8.7466C88.1817 8.69359 88.1022 8.61408 88.0492 8.56107L84.6565 5.64554C85.9288 5.4335 87.4926 4.85039 87.4926 3.73719C87.4926 3.15408 87.1215 2.62399 86.2998 2.27943C85.2131 1.80234 83.5963 1.74933 82.5361 1.74933C81.3434 1.74933 79.9387 1.82884 79.5146 1.90836C79.2761 1.96137 79.223 2.01438 79.223 2.22642V8.69359H79.1965ZM81.6085 2.62399C81.794 2.62399 82.0326 2.59748 82.4036 2.59748C83.0927 2.59748 85.0011 2.59748 85.0011 3.94923C85.0011 4.85039 83.8614 5.22146 82.7747 5.30098C82.4831 5.32748 82.2446 5.32748 81.582 5.30098V2.62399H81.6085Z" fill="#282929"/>
<path d="M92.2103 2.12036C92.2103 1.93483 92.1043 1.90833 91.8392 1.90833H90.1164C89.7984 1.90833 89.7454 1.98784 89.7454 2.12036V8.72007C89.7454 8.9056 89.8779 8.9321 90.1694 8.9321H91.8658C92.1043 8.9321 92.2898 8.9056 92.2898 8.72007V2.12036" fill="#282929"/>
<path d="M100.877 8.69358C101.063 8.87911 101.116 8.87911 101.461 8.87911H103.21C103.342 8.87911 103.581 8.87911 103.581 8.74659C103.581 8.69358 103.528 8.64057 103.475 8.58756L99.8703 5.03591L102.945 2.17339C102.998 2.12038 103.051 2.06737 103.051 2.01436C103.051 1.88184 102.839 1.88184 102.733 1.88184H101.487C101.169 1.88184 101.116 1.88184 100.904 2.06737L98.8366 4.02873L96.8222 2.06737C96.6367 1.90834 96.5837 1.88184 96.1861 1.88184H94.5428C94.4368 1.88184 94.4898 1.88184 94.4898 2.01436C94.4898 2.04086 94.5163 2.09387 94.5693 2.14688L97.4053 5.32746L94.1717 8.61406C94.0392 8.72008 94.0127 8.77309 94.0127 8.7996C94.0127 8.90562 94.2512 8.90562 94.3838 8.90562H95.3379C95.6295 8.90562 95.709 8.87911 95.868 8.72008L98.4125 6.36115L100.877 8.69358Z" fill="#282929"/>
<path d="M104.164 0.212039H103.581V0H104.986V0.212039H104.402V1.90835H104.164V0.212039Z" fill="#282929"/>
<path d="M106.788 1.06019C106.762 0.795145 106.762 0.477087 106.762 0.265048C106.709 0.477087 106.629 0.742135 106.523 1.00718L106.205 1.90835H106.019L105.728 1.00718C105.648 0.742135 105.569 0.477087 105.516 0.265048C105.516 0.503592 105.489 0.795145 105.489 1.1132L105.436 1.90835H105.198L105.33 0H105.622L105.94 0.901164C106.019 1.13971 106.072 1.32524 106.125 1.53728C106.178 1.35175 106.231 1.1132 106.311 0.901164L106.629 0H106.921L107.027 1.90835H106.788V1.06019Z" fill="#282929"/>
<path d="M96.9811 11.9537C97.1137 11.9007 97.2197 11.7417 97.3787 11.7947C100.003 13.3054 102.6 14.8162 105.224 16.327C105.251 19.375 105.224 22.4231 105.224 25.4977C102.6 27.0349 99.9497 28.5457 97.2992 30.083C94.6752 28.5457 92.0247 27.0349 89.3743 25.4977C89.3743 22.4496 89.3743 19.4016 89.3743 16.3535C91.9452 14.8692 94.4632 13.4115 96.9811 11.9537ZM90.1694 16.7511C90.1429 19.11 90.1694 21.4954 90.1694 23.8544C92.2103 20.3027 94.2776 16.7511 96.3185 13.1994C94.2511 14.3921 92.2103 15.6114 90.1694 16.7511ZM98.3594 13.2259C100.4 16.7776 102.468 20.3292 104.508 23.8809C104.508 21.5219 104.508 19.163 104.508 16.7776C102.441 15.5849 100.4 14.4186 98.3594 13.2259ZM96.9546 13.5705C94.7547 17.4402 92.5018 21.2834 90.2754 25.1531C92.5018 26.4253 94.7282 27.7241 96.9546 28.9963C96.9546 23.8544 96.9546 18.7124 96.9546 13.5705ZM97.6968 13.544C97.7233 15.5584 97.6968 17.5992 97.7233 19.6136C97.7233 22.5026 97.7498 25.3651 97.7233 28.2542C99.128 25.8157 100.559 23.3773 101.964 20.9123C100.506 18.4739 99.075 16.0089 97.6968 13.544ZM98.7039 27.9891C98.5714 28.2012 98.4919 28.4132 98.3064 28.5987C98.3064 28.5987 98.3329 28.5987 98.3594 28.5987C100.347 27.459 102.362 26.2928 104.349 25.1266C103.687 23.9604 102.998 22.8207 102.335 21.6545C101.142 23.7748 99.9232 25.8952 98.7039 27.9891Z" fill="#171717"/>
<path d="M67.4282 11.7947C67.9848 11.7947 68.5149 11.7947 69.0715 11.7947C69.0715 14.4187 69.0715 17.0161 69.0715 19.6136C70.3438 18.1823 71.563 16.6981 72.8617 15.2933C73.5243 15.2933 74.2135 15.2933 74.9026 15.2933C73.3653 16.9101 71.934 18.6064 70.3703 20.1967C71.9075 21.8665 73.4448 23.5363 75.0086 25.2326C74.3195 25.1796 73.5243 25.3917 72.8882 25.1266C71.563 23.7219 70.3703 22.2111 69.098 20.7533C69.098 22.2641 69.098 23.7484 69.098 25.2591C68.5414 25.2591 67.9848 25.2591 67.4282 25.2591C67.4282 20.7533 67.4282 16.274 67.4282 11.7947Z" fill="#282929"/>
<path d="M1.51078 12.8018C2.06738 12.8018 2.62398 12.8018 3.15407 12.8018C3.15407 13.65 3.15407 14.4716 3.15407 15.3198C4.02873 15.3198 4.87689 15.3198 5.75155 15.3198C5.75155 15.7704 5.75155 16.2474 5.75155 16.698C4.90339 16.698 4.02873 16.698 3.15407 16.698C3.15407 18.5799 3.12757 20.4352 3.15407 22.3171C3.12757 22.8471 3.3131 23.4833 3.86971 23.6953C4.47932 23.8543 5.11543 23.8013 5.75155 23.8278C5.75155 24.3049 5.75155 24.782 5.75155 25.2591C4.66485 25.2061 3.44563 25.3386 2.49145 24.729C1.69631 24.2254 1.53728 23.1917 1.51078 22.3171C1.48427 20.4352 1.51078 18.5534 1.51078 16.6715C1.00718 16.6715 0.503592 16.6715 0 16.6715C0 16.2209 0 15.7439 0 15.2933C0.503592 15.2933 1.00718 15.2933 1.51078 15.2933C1.51078 14.4716 1.51078 13.6235 1.51078 12.8018Z" fill="#282929"/>
<path d="M19.534 15.2933C19.534 16.0884 19.534 16.9101 19.5605 17.7052C19.2425 17.1486 18.9244 16.592 18.4473 16.1679C16.592 14.4716 13.1994 14.9487 11.9006 17.0956C10.7344 18.9775 10.7344 21.5749 11.9536 23.4568C13.1994 25.3916 16.0354 25.8687 17.9702 24.7025C18.7124 24.2519 19.1629 23.4833 19.5605 22.7411C19.428 24.3314 19.9316 26.1338 18.8979 27.512C17.3871 29.3673 13.915 28.8638 13.1728 26.5048C12.6162 26.5048 12.0861 26.5048 11.5295 26.5048C11.8211 27.3 12.1127 28.1481 12.7753 28.7312C14.233 30.136 16.5655 30.3745 18.4208 29.7119C20.1701 29.1023 21.2303 27.247 21.2038 25.4181C21.2038 22.0255 21.2038 18.6329 21.2038 15.2403C20.6472 15.2933 20.0906 15.2933 19.534 15.2933ZM18.4208 23.0857C17.4136 23.9869 15.9028 24.1459 14.6836 23.6688C11.9006 22.4761 12.0596 17.5992 15.0282 16.7776C16.0619 16.486 17.2546 16.6185 18.1558 17.2546C19.9581 18.5799 20.0376 21.5749 18.4208 23.0857Z" fill="#282929"/>
<path d="M32.9189 20.5943C32.9454 19.4546 32.9189 18.2353 32.2828 17.2547C30.507 14.3656 25.5771 14.4716 23.9603 17.4402C22.8471 19.5341 23.0326 22.4761 24.8085 24.1724C26.5578 25.6832 29.3143 25.7362 31.2226 24.4905C32.1503 23.8809 32.6539 22.8207 32.9454 21.787C32.3623 21.787 31.8057 21.787 31.2226 21.787C30.7455 23.7748 28.3071 24.6495 26.5843 23.6953C25.3916 23.1652 24.9145 21.84 24.835 20.6208C27.4854 20.5678 30.2154 20.5943 32.9189 20.5943ZM24.782 19.7991C24.9145 19.0835 25.047 18.3149 25.4976 17.7317C26.6903 16.1945 29.3143 16.0354 30.5865 17.5197C31.1431 18.1293 31.2491 19.004 31.3286 19.7991C29.1552 19.8256 26.9553 19.8256 24.782 19.7991Z" fill="#282929"/>
<path d="M36.6033 17.2546C37.3454 15.8764 38.7767 15.1077 40.3139 15.0812C40.3139 15.6908 40.3139 16.274 40.3139 16.8836C39.3598 16.9101 38.3526 16.9631 37.5574 17.5727C36.8153 18.1028 36.6033 19.057 36.6033 19.9316C36.6033 21.7074 36.6033 23.4833 36.6033 25.2326C36.0467 25.2326 35.5166 25.2326 34.96 25.2326C34.96 21.9195 34.9865 18.6064 34.96 15.2933C35.5166 15.2933 36.0467 15.2933 36.6033 15.2933C36.6033 15.9559 36.6033 16.592 36.6033 17.2546Z" fill="#282929"/>
<path d="M42.6993 15.7969C43.9451 15.0018 45.6149 14.9753 46.9666 15.5319C48.1328 16.0354 48.7955 17.2017 49.0605 18.3944C48.5569 18.3944 48.0268 18.3944 47.5232 18.3944C47.2582 16.7776 45.4028 15.8764 43.9716 16.5655C43.0174 16.9896 42.7789 18.4739 43.733 19.057C45.0053 19.8256 46.5955 19.7196 47.8943 20.4352C48.8485 20.9123 49.3255 22.052 49.1135 23.0857C48.9545 24.2254 47.9208 25.0471 46.8341 25.2591C45.4028 25.5507 43.8125 25.3121 42.6463 24.3845C41.9572 23.8544 41.6922 22.9797 41.4536 22.1846C41.9572 22.1846 42.4873 22.1846 43.0174 22.1581C43.3355 23.5363 44.6872 24.411 46.0655 24.1724C47.3907 24.2254 48.2123 22.3436 47.0991 21.5219C45.7474 20.6208 43.9186 20.8063 42.5668 19.9052C41.1621 18.9775 41.3476 16.6451 42.6993 15.7969Z" fill="#282929"/>
<path d="M60.4575 17.1221C59.2118 15.0812 56.1372 14.5777 54.2024 15.9294C53.5397 16.38 53.1687 17.0956 52.7976 17.7847C52.7976 16.9631 52.7976 16.1414 52.7976 15.3198C52.241 15.3198 51.6844 15.3198 51.1543 15.3198C51.1543 20.1967 51.1543 25.0736 51.1543 29.9505C51.7109 29.9505 52.2675 29.9505 52.7976 29.9505C52.7976 27.565 52.7711 25.1796 52.7976 22.8207C53.1687 23.4303 53.4867 24.0929 54.0698 24.5435C56.0312 26.0277 59.2383 25.4976 60.484 23.3508C61.5972 21.4689 61.5972 18.9509 60.4575 17.1221ZM59.1058 22.3966C57.966 24.3844 54.6794 24.4109 53.4602 22.5026C52.2145 20.7268 52.7181 17.7317 54.812 16.8571C56.3758 16.1944 58.4696 16.7245 59.2383 18.3148C59.7949 19.6136 59.7949 21.1774 59.1058 22.3966Z" fill="#282929"/>
<path d="M84.8684 20.5678C84.9214 19.4281 84.8419 18.2088 84.2058 17.2547C82.4565 14.3656 77.5001 14.4716 75.8833 17.4402C74.6906 19.5871 74.9556 22.6351 76.8905 24.2784C78.5338 25.6037 80.9987 25.6567 82.8275 24.676C83.9142 24.0929 84.5504 22.9267 84.8684 21.7605C84.2853 21.7605 83.7022 21.7605 83.1456 21.7605C82.6685 23.9339 79.753 24.7025 78.0832 23.4038C77.1555 22.7677 76.8905 21.628 76.7579 20.5943C79.4349 20.5678 82.1649 20.5943 84.8684 20.5678ZM76.7314 19.7991C76.8905 19.0835 76.9965 18.3149 77.4471 17.7052C78.6398 16.168 81.2638 16.0354 82.536 17.5197C83.0926 18.1293 83.1456 19.004 83.2781 19.7991C81.1047 19.8256 78.9048 19.8256 76.7314 19.7991Z" fill="#282929"/>
<path d="M7.42139 15.2933C7.97799 15.2933 8.50808 15.2933 9.06469 15.2933C9.06469 18.6064 9.06469 21.9195 9.06469 25.2326C8.50808 25.2326 7.97799 25.2326 7.42139 25.2326C7.42139 21.9195 7.44789 18.6064 7.42139 15.2933Z" fill="#282929"/>
<path d="M63.2405 15.2933C63.7971 15.2933 64.3272 15.2933 64.8838 15.2933C64.8838 18.6064 64.8838 21.9195 64.8838 25.2326C64.3272 25.2326 63.7971 25.2326 63.2405 25.2326C63.2405 21.9195 63.267 18.6064 63.2405 15.2933Z" fill="#282929"/>
<path d="M8.26956 13.4645C8.86973 13.4645 9.35626 12.9779 9.35626 12.3778C9.35626 11.7776 8.86973 11.2911 8.26956 11.2911C7.66939 11.2911 7.18286 11.7776 7.18286 12.3778C7.18286 12.9779 7.66939 13.4645 8.26956 13.4645Z" fill="#282929"/>
<path d="M63.9031 13.4645C64.5033 13.4645 64.9898 12.9779 64.9898 12.3778C64.9898 11.7776 64.5033 11.2911 63.9031 11.2911C63.3029 11.2911 62.8164 11.7776 62.8164 12.3778C62.8164 12.9779 63.3029 13.4645 63.9031 13.4645Z" fill="#282929"/>
</g>
<defs>
<clipPath id="clip0_17_1946">
<rect width="107" height="30.1095" fill="white"/>
</clipPath>
</defs>
</svg>
