<svg width="107" height="21" viewBox="0 0 107 21" fill="none" xmlns="http://www.w3.org/2000/svg">
<g clip-path="url(#clip0_17_1828)">
<path d="M98.2511 4.21708C98.8176 4.03725 99.5549 4.24406 99.7887 4.82851C99.9236 5.23313 99.9236 5.72767 99.6808 6.09633C99.1952 6.78868 97.9723 6.73473 97.5677 5.97943C97.4238 5.68271 97.4238 5.34103 97.4778 5.01733C97.5407 4.63069 97.8734 4.31599 98.2511 4.21708Z" fill="#143B96"/>
<path d="M69.0465 5.55682C69.595 5.51186 70.1524 5.53884 70.7099 5.52985C70.8718 5.52985 71.1505 5.53884 71.0966 5.78161C71.1055 9.14447 71.0966 12.4983 71.0966 15.8612C71.0966 16.1489 71.1235 16.4456 71.0246 16.7154C70.5211 16.7334 69.9996 16.7783 69.496 16.6974C69.3072 16.3557 69.3342 15.9421 69.2083 15.5824C68.8127 16.2838 68.0754 16.7154 67.3021 16.8682C66.331 17.0121 65.279 16.8413 64.4787 16.2388C63.4807 15.5015 62.9592 14.2607 62.9052 13.0468C62.8063 11.815 63.0401 10.5022 63.8134 9.50413C64.5237 8.54203 65.7466 8.01152 66.9334 8.09245C67.7247 8.1464 68.471 8.53304 68.9655 9.13547C68.9835 8.31724 68.9655 7.499 68.9745 6.68077C68.9835 6.31211 68.9386 5.92548 69.0465 5.55682ZM66.6547 10.0886C66.0523 10.1875 65.5667 10.6461 65.315 11.1856C64.8744 12.0937 64.8744 13.2087 65.3869 14.0898C65.7106 14.6114 66.304 14.98 66.9244 14.953C67.4909 14.989 68.0754 14.7462 68.462 14.3236C69.2713 13.3345 69.2533 11.797 68.498 10.7809C68.0664 10.2324 67.3381 9.9627 66.6547 10.0886Z" fill="#143B96"/>
<path d="M101.218 5.52081C101.911 5.78157 102.549 6.15022 103.224 6.47392C103.242 9.24333 103.224 12.0127 103.233 14.7912C103.224 15.4565 103.251 16.1309 103.215 16.8053C102.549 16.8143 101.893 16.8143 101.227 16.8053C101.2 13.0378 101.209 9.2793 101.218 5.52081Z" fill="#143B96"/>
<path d="M93.27 6.19522C94.0702 6.18623 94.8975 6.35707 95.5539 6.82463C96.1383 7.24724 96.462 7.95757 96.498 8.66791C96.5429 9.27035 96.435 9.89976 96.0933 10.4123C95.7697 10.8439 95.3201 11.1766 94.8076 11.3654C95.3111 11.5992 95.8146 11.9049 96.1113 12.3994C96.525 13.0828 96.5789 13.928 96.426 14.7013C96.2372 15.5555 95.5539 16.2478 94.7266 16.5086C93.8544 16.8323 92.9193 16.7873 92.0112 16.7873C90.8692 16.7873 89.7273 16.7873 88.5854 16.7873C88.3696 16.8053 88.1448 16.6255 88.1808 16.4007C88.1808 13.1277 88.1718 9.8548 88.1808 6.59085C88.1538 6.36606 88.3516 6.16825 88.5854 6.19522C90.1499 6.19522 91.7055 6.19522 93.27 6.19522ZM90.4646 8.33522C90.4646 9.02757 90.4646 9.71993 90.4646 10.4123C91.4267 10.3943 92.3888 10.4572 93.3509 10.3763C94.0433 10.3044 94.4119 9.45917 94.1062 8.87472C93.9534 8.47909 93.4858 8.3532 93.0992 8.34421C92.218 8.32623 91.3368 8.33522 90.4646 8.33522ZM90.4556 12.4174C90.4646 13.1637 90.4646 13.919 90.4556 14.6653C91.3368 14.6563 92.209 14.6653 93.0902 14.6563C93.4139 14.6473 93.7825 14.6114 94.0163 14.3596C94.4389 13.901 94.367 13.1008 93.8904 12.7141C93.6476 12.4983 93.3239 12.4084 93.0003 12.4174C92.155 12.4174 91.3008 12.4174 90.4556 12.4174Z" fill="#143B96"/>
<path d="M29.924 6.2042C30.4095 6.2042 31.3356 6.19521 31.7762 6.18622C31.8661 6.18622 31.9561 6.22218 32.01 6.28513C32.1449 6.45597 32.1539 6.70773 32.1988 6.91454C32.6574 8.9826 33.053 11.0687 33.5026 13.1367C33.5835 13.5503 33.6375 13.9639 33.7634 14.3596C34.3388 12.0757 34.8334 9.77387 35.3909 7.49C35.4808 7.11235 35.5167 6.71672 35.6696 6.35706C35.7595 6.15924 36.0023 6.19521 36.1821 6.18622C36.9914 6.19521 37.8006 6.17723 38.6099 6.19521C38.8976 6.17723 38.9246 6.51891 38.9875 6.71672C39.4461 8.56899 39.9226 10.4123 40.3812 12.2645C40.588 12.9569 40.6689 13.6852 40.9477 14.3506C41.4602 11.725 42.0357 9.11748 42.5572 6.50092C42.5662 6.42899 42.6021 6.36605 42.6471 6.3121C42.719 6.23118 42.8269 6.18622 42.9348 6.18622C43.5283 6.19521 44.1127 6.17723 44.7062 6.19521C44.922 6.21319 45.0568 6.47395 44.9669 6.67176C44.2836 9.58504 43.6092 12.4983 42.9258 15.4026C42.8359 15.8342 42.746 16.2658 42.6021 16.6884C42.5482 16.7154 42.4403 16.7693 42.3863 16.7873C41.4782 16.7873 40.57 16.7873 39.6709 16.7873C39.509 16.7963 39.3562 16.7424 39.2123 16.6884C38.5919 13.9729 37.9715 11.2665 37.3331 8.56C36.7036 11.2215 36.1102 13.892 35.4718 16.5535C35.4358 16.7693 35.1751 16.7873 34.9952 16.7783C34.0871 16.7693 33.1879 16.7873 32.2798 16.7693C32.037 16.7513 32.001 16.4726 31.9561 16.2928C31.2907 13.4514 29.9959 7.89462 29.6722 6.51891C29.6362 6.36605 29.7621 6.21319 29.924 6.2042Z" fill="#143B96"/>
<path d="M104.977 7.23822C105.202 7.2652 105.381 7.40906 105.588 7.49898C106.056 7.72377 106.523 7.96654 106.991 8.20032C107 11.0956 107.009 13.9909 106.982 16.8862C106.317 16.9042 105.651 16.8862 104.995 16.8952C104.896 16.3467 104.986 15.7892 104.977 15.2317C104.968 13.1637 104.977 11.0956 104.959 9.03654C105.022 8.4341 104.878 7.83167 104.977 7.23822Z" fill="#143B96"/>
<path d="M48.3478 8.3622C49.4718 8.11044 50.7126 8.34422 51.6388 9.04556C53.2482 10.2145 53.7158 12.4714 53.1493 14.3056C52.8436 15.2408 52.2232 16.086 51.351 16.5535C50.3889 17.111 49.211 17.1919 48.141 16.9582C46.7114 16.6525 45.5604 15.4296 45.2367 14.0089C44.994 12.894 45.0389 11.6801 45.5335 10.6371C46.037 9.50413 47.107 8.59598 48.3478 8.3622ZM47.9612 10.745C47.0351 11.7251 46.9272 13.3705 47.7364 14.4495C47.9162 14.6114 48.0871 14.7822 48.2939 14.8991C48.6985 15.1419 49.193 15.1329 49.6426 15.0609C50.3889 14.8721 50.9644 14.2247 51.1622 13.4874C51.4319 12.4804 51.1712 11.2665 50.326 10.5921C49.6516 10.0616 48.5726 10.1246 47.9612 10.745Z" fill="#143B96"/>
<path d="M57.6542 8.45213C58.4904 8.1644 59.4165 8.23633 60.2348 8.54205C60.8732 8.81179 61.4217 9.31532 61.6734 9.96272C61.9072 10.4842 61.9432 11.0687 61.9342 11.6262C61.9342 13.3166 61.9342 15.007 61.9342 16.6974C61.7723 16.9672 61.4397 16.9042 61.1789 16.9042C60.8012 16.8952 60.4146 16.9312 60.037 16.8862C59.8122 16.8323 59.8122 16.5715 59.8032 16.3917C59.8032 14.8631 59.8122 13.3346 59.8032 11.806C59.8122 11.2935 59.6593 10.736 59.2097 10.4393C58.4634 10.0347 57.3934 10.2235 56.9169 10.9518C56.5302 11.4823 56.4133 12.1567 56.4403 12.7951C56.4403 13.991 56.4403 15.1868 56.4403 16.3827C56.4493 16.5536 56.3954 16.7154 56.3414 16.8683C55.8559 16.9222 55.3613 16.8952 54.8758 16.9042C54.7139 16.8862 54.5251 16.9312 54.3992 16.7963C54.3093 16.6435 54.3183 16.4636 54.3183 16.2928C54.3273 13.8021 54.3183 11.3204 54.3183 8.82978C54.2913 8.64994 54.3992 8.45213 54.606 8.44314C55.0736 8.43415 55.5591 8.3802 56.0177 8.50608C56.1076 8.84776 56.1346 9.20742 56.1886 9.56709C56.5572 9.09053 57.0428 8.63196 57.6542 8.45213Z" fill="#143B96"/>
<path d="M73.8838 8.97364C75.3405 7.92163 77.5075 8.04751 78.8292 9.25238C79.8903 10.2055 80.3578 11.6801 80.2499 13.0828C80.2409 13.2806 80.0521 13.3975 79.8723 13.3795C78.1639 13.3885 76.4644 13.3705 74.765 13.3885C74.5492 13.3615 74.3424 13.5863 74.4143 13.7931C74.5582 14.5574 75.2506 15.1239 76.0059 15.2138C77.0489 15.3397 78.1099 14.7822 78.6764 13.91C78.7123 13.91 78.7753 13.91 78.8113 13.919C79.054 14.4495 79.3597 14.9531 79.6295 15.4746C79.6745 15.5825 79.7644 15.7173 79.7014 15.8432C79.3418 16.2928 78.8472 16.6075 78.3257 16.8413C77.2377 17.2819 75.9879 17.3988 74.8639 17.0121C73.731 16.6794 72.8228 15.7623 72.4362 14.6653C72.0945 13.7032 72.0406 12.6422 72.2474 11.6352C72.4362 10.5921 73.0027 9.59406 73.8838 8.97364ZM75.844 10.2954C75.2146 10.3853 74.6122 10.8978 74.5222 11.5452C74.6032 11.6172 74.6751 11.6891 74.756 11.761C75.7181 11.779 76.6802 11.761 77.6423 11.77C77.7502 11.6441 77.957 11.4733 77.8222 11.2845C77.4715 10.5652 76.6263 10.1336 75.844 10.2954Z" fill="#143B96"/>
<path d="M84.0174 8.41615C84.6378 8.12842 85.3392 8.30826 85.9506 8.53305C86.3013 8.66792 86.652 8.82078 86.9217 9.09052C86.9577 9.25237 86.9217 9.42321 86.9037 9.58506C86.8048 10.1066 86.7509 10.6371 86.652 11.1496C86.616 11.1406 86.5531 11.1316 86.5171 11.1316C86.1394 10.763 85.6719 10.5022 85.1773 10.3224C84.6468 10.1156 84.0084 10.3224 83.6667 10.772C83.2801 11.2665 83.1182 11.9139 83.1182 12.5433C83.1182 13.8561 83.1182 15.1778 83.1182 16.4996C83.1182 16.6794 83.0463 16.9402 82.8215 16.9222C82.309 16.9402 81.7965 16.9402 81.2929 16.9222C81.0771 16.9312 80.9962 16.6794 81.0052 16.5086C80.9962 14.1078 81.0052 11.7161 81.0052 9.31531C81.0052 9.09952 80.9962 8.88372 81.0232 8.67691C81.0592 8.51506 81.248 8.4791 81.3919 8.4701C81.7515 8.46111 82.1112 8.45212 82.4709 8.4701C82.5877 8.4701 82.7136 8.55103 82.7406 8.67691C82.8035 8.98263 82.8125 9.29733 82.8845 9.60304C83.1362 9.09952 83.4779 8.61397 84.0174 8.41615Z" fill="#143B96"/>
<path d="M97.8644 8.40713C97.9903 8.3262 98.1522 8.34419 98.296 8.33519C98.7186 8.33519 99.1412 8.3262 99.5638 8.34419C99.7347 8.3262 99.8875 8.49704 99.8606 8.67688C99.8695 11.0776 99.8606 13.4694 99.8606 15.8702C99.8606 16.1129 99.8785 16.3557 99.8426 16.5985C99.7617 16.8862 99.42 16.7963 99.1952 16.8143C98.7276 16.7783 98.2421 16.8952 97.8015 16.7154C97.7206 16.2838 97.7565 15.8522 97.7475 15.4206C97.7475 13.2356 97.7475 11.0417 97.7475 8.85671C97.7565 8.69486 97.7655 8.52402 97.8644 8.40713Z" fill="#143B96"/>
<path d="M24.5021 3.25496V3.26395L24.4302 3.35387L24.4032 3.33588L20.4289 0.197815L16.4456 3.39882L12.3724 0.161849L8.26328 3.39882L4.12714 0.161849L0.107899 3.35387L0.0719328 3.37185L0 3.28193V3.27294L4.12714 0L8.26328 3.23697L12.3724 0L16.4456 3.23697L20.4289 0.0359664L24.5021 3.25496Z" fill="#143B96"/>
<path d="M8.33521 9.71993L8.27227 20.9055L4.08219 17.6325L4.10916 12.0847L0 8.85673V3.27295L0.107899 3.35387L8.33521 9.71993Z" fill="#143B96"/>
<path d="M12.3634 6.45599V17.7315L8.27222 20.9055L8.33516 9.71994L12.3634 6.45599Z" fill="#00B3F5"/>
<path d="M16.4367 20.9055L12.3635 17.7315V6.45599L16.4367 9.69297V20.9055Z" fill="#143B96"/>
<path d="M20.4288 17.7134L16.4365 20.9054V9.69291L20.4108 6.50989L20.4198 12.1117L20.4288 17.7134Z" fill="#AF7FB9"/>
<path d="M24.4032 3.3359L20.411 6.50994L16.4367 9.69296L12.3635 6.45599L8.33523 9.71994L0.10791 3.35388L4.12716 0.161865L8.26329 3.39884L12.3725 0.161865L16.4457 3.39884L20.4289 0.197832L24.4032 3.3359Z" fill="white"/>
<path d="M24.5021 3.25494V8.82074L20.4199 12.1117H20.4109V6.5099L24.4032 3.33587L24.5021 3.25494Z" fill="#FCC433"/>
</g>
<defs>
<clipPath id="clip0_17_1828">
<rect width="107" height="20.9055" fill="white"/>
</clipPath>
</defs>
</svg>
