<svg width="107" height="14" viewBox="0 0 107 14" fill="none" xmlns="http://www.w3.org/2000/svg">
<g clip-path="url(#clip0_17_2048)">
<path d="M10.7173 6.77914L17.8779 13.1152H14.0652L8.95041 8.54578L3.84894 13.1152H0.0361328L7.17021 6.77914L0.0361328 0.416563H3.84894L8.95041 4.98593L14.0652 0.416563H17.8779L10.7173 6.77914ZM34.0061 3.25913C34.564 4.20223 34.843 5.38443 34.843 6.77914C34.843 8.1473 34.564 9.32948 34.0061 10.2726C33.448 11.229 32.6908 11.9463 31.7476 12.4111C30.8176 12.876 29.7548 13.1152 28.6123 13.1152H19.5918V0.416563H28.6123C29.7548 0.416563 30.8176 0.655659 31.7476 1.12057C32.6775 1.59876 33.448 2.31604 34.0061 3.25913ZM22.169 10.7906H27.4698C28.5725 10.7906 29.4758 10.6711 30.1401 10.4453C30.791 10.2194 31.2826 9.82095 31.6147 9.26307C31.9468 8.6919 32.1196 7.85507 32.1196 6.77914C32.1196 5.70321 31.9468 4.8531 31.6147 4.28193C31.2826 3.71076 30.791 3.31226 30.1401 3.09973C29.4758 2.87392 28.5725 2.75438 27.4698 2.75438H22.169V10.7906ZM36.4372 13.1152H49.7887V10.8438H39.0013V7.9082H49.4299V5.6368H39.0013V2.71453H49.7754V0.416563H36.4372V13.1152ZM66.488 7.03152C65.8636 6.52677 65.0266 6.1814 63.9904 6.00872C62.9674 5.83605 61.453 5.67665 59.4735 5.54381C58.0652 5.45084 57.0025 5.34457 56.325 5.22503C55.6607 5.10547 55.1957 4.94609 54.9565 4.73356C54.7174 4.54759 54.6111 4.26865 54.6111 3.91C54.6111 3.55136 54.7307 3.27242 54.9565 3.0466C55.1957 2.82079 55.6341 2.63483 56.2585 2.51529C56.9095 2.38245 57.8129 2.32932 58.9687 2.32932C60.244 2.32932 61.2803 2.40902 62.0507 2.55513C62.8081 2.70125 63.3527 2.92706 63.6848 3.23257C64.017 3.52479 64.1632 3.91 64.1632 4.40147V4.56087H66.8998V4.40147C66.8866 2.96691 66.1957 1.8777 64.8274 1.14713C63.4988 0.429847 61.6256 0.0712052 59.261 0.0712052C56.9095 0.0712052 55.0894 0.350149 53.8274 0.908037C52.5254 1.4792 51.8612 2.46216 51.8612 3.80374C51.8612 4.74684 52.1268 5.50397 52.6582 6.04858C53.1763 6.59318 53.9867 7.00496 55.0495 7.27061C56.099 7.53627 57.5471 7.70895 59.354 7.81521C60.988 7.92148 62.1837 8.02774 62.9011 8.13401C63.6051 8.24027 64.0834 8.38639 64.3358 8.58564C64.575 8.77159 64.6945 9.06383 64.6945 9.4756C64.6945 10.0468 64.3491 10.4585 63.6318 10.7508C62.8744 11.0563 61.6256 11.2157 59.8854 11.2157C57.7331 11.2157 56.2053 11.0164 55.3418 10.6179C54.5049 10.2327 54.1063 9.68813 54.1063 8.94427V8.78488H51.3431L51.3563 8.95755C51.4361 10.6047 52.2331 11.7736 53.6944 12.4642C55.1293 13.1285 57.215 13.4738 59.8986 13.4738C62.2235 13.4738 64.0701 13.1815 65.372 12.5971C66.7271 11.9994 67.418 10.9102 67.418 9.35605C67.4445 8.33326 67.1257 7.54956 66.488 7.03152ZM69.2114 13.1152H71.7888V0.416563H69.2114V13.1152ZM81.2876 6.35409V8.54578H86.6547V10.2859C85.8975 10.6047 85.1668 10.8438 84.4759 10.9766C83.7585 11.1227 82.8685 11.1891 81.819 11.1891C80.3576 11.1891 79.2018 10.9367 78.3781 10.4585C77.5677 9.96707 77.0098 9.3959 76.7042 8.74503C76.3987 8.08087 76.2525 7.43001 76.2525 6.79243C76.2525 6.64631 76.2525 6.51348 76.2791 6.36737C76.3189 5.86261 76.4518 5.34457 76.6643 4.82653C76.7042 4.73356 76.744 4.64057 76.7972 4.56087C77.0894 4.02956 77.581 3.53807 78.2453 3.12631C79.0291 2.63483 80.1583 2.39573 81.6064 2.39573C83.0545 2.39573 84.2103 2.63483 85.034 3.09973C85.6982 3.47166 86.1366 3.94985 86.3757 4.56087H89.1921C89.0195 3.79046 88.674 3.08645 88.1426 2.46216C87.5182 1.73158 86.6547 1.13385 85.5387 0.708792C84.4361 0.283734 83.1076 0.0579224 81.5931 0.0579224C79.9192 0.0579224 78.4711 0.336866 77.2622 0.868188C76.0533 1.41279 75.1101 2.19649 74.459 3.206C74.1934 3.61778 73.9808 4.0694 73.8346 4.54759C73.6486 5.10547 73.5423 5.7165 73.5025 6.35409C73.4892 6.48691 73.4892 6.61974 73.4892 6.76586C73.4892 8.12073 73.8213 9.3162 74.4989 10.3124C75.1631 11.3087 76.1329 12.0924 77.3817 12.6369C78.6173 13.1815 80.1051 13.4473 81.7923 13.4473C83.1341 13.4473 84.3829 13.3011 85.4989 12.9957C86.6149 12.7034 87.8504 12.1853 89.1656 11.468L89.2453 11.4282V6.32752H81.2876V6.35409ZM104.404 0.416563V10.4054L94.7454 0.456414L94.6922 0.403281H91.2381V13.1018H93.8154V3.11303L103.474 13.062L103.527 13.1152H106.968V0.416563H104.404Z" fill="#090821"/>
</g>
<defs>
<clipPath id="clip0_17_2048">
<rect width="107" height="13.5487" fill="white"/>
</clipPath>
</defs>
</svg>
