<svg width="104" height="31" viewBox="0 0 104 31" fill="none" xmlns="http://www.w3.org/2000/svg">
<g clip-path="url(#clip0_17_1976)">
<path d="M30.299 18.4534C30.299 15.8065 32.439 13.6664 35.086 13.6664C37.7329 13.6664 39.873 15.8065 39.873 18.4534C39.873 19.7112 39.3849 20.8563 38.5777 21.7011L45.6549 23.4657C46.3683 21.9451 46.7813 20.2368 46.7813 18.4534C46.7813 11.9957 41.5437 6.75812 35.086 6.75812C28.7971 6.75812 23.6722 11.7141 23.4094 17.9466L30.4867 19.7112C30.3553 19.2982 30.299 18.8852 30.299 18.4534Z" fill="#8CCDCC"/>
<path d="M88.9445 7.02093V7.79061C87.4802 7.13357 85.8658 6.75812 84.1575 6.75812C77.6997 6.75812 72.4622 11.9957 72.4622 18.4534C72.4622 24.9112 77.6997 30.1487 84.1575 30.1487C85.8658 30.1487 87.4802 29.7733 88.9445 29.135V29.8296H95.8528V7.02093H88.9445ZM84.1575 23.2404C81.5105 23.2404 79.3705 21.1004 79.3705 18.4534C79.3705 15.8065 81.5105 13.6664 84.1575 13.6664C86.8044 13.6664 88.9445 15.8065 88.9445 18.4534C88.9445 21.1004 86.8044 23.2404 84.1575 23.2404Z" fill="#8CCDCC"/>
<path d="M104 0.0563354H97.0918V29.8296H104V0.0563354Z" fill="#8CCDCC"/>
<path d="M71.2795 18.5097C71.2795 18.491 71.2795 18.4722 71.2795 18.4534C71.2795 11.9957 66.042 6.75812 59.5842 6.75812C57.8759 6.75812 56.2614 7.13357 54.7972 7.77184V7.00216H47.8701V24.0289L54.7784 25.756V18.4722C54.7784 15.8253 56.9185 13.6852 59.5654 13.6852C62.2123 13.6852 64.3524 15.8253 64.3524 18.4534H64.3712V18.5097H64.3524V28.1213L71.2607 29.8484V18.5097H71.2795Z" fill="#8CCDCC"/>
<path d="M22.9964 6.96464H23.0151H22.9964V0.0563354H0.150146V6.96464H13.8729L7.77181 14.0607L15.2808 15.9379L22.9964 6.96464Z" fill="#8CCDCC"/>
<path d="M38.5588 21.7199C37.6953 22.6585 36.4563 23.2405 35.0671 23.2405C32.8519 23.2405 31.0122 21.7387 30.4491 19.7112L23.3718 17.9466C23.3718 18.1155 23.353 18.2845 23.353 18.4535C23.353 24.9112 28.5906 30.1488 35.0483 30.1488C39.7039 30.1488 43.74 27.408 45.6173 23.4657L38.5588 21.7199Z" fill="#3B3B3A"/>
<path d="M47.8701 29.8296H54.7972V25.7559L47.8701 24.0289V29.8296Z" fill="#3B3B3A"/>
<path d="M64.3523 28.1213V29.8484H71.2794L64.3523 28.1213Z" fill="#3B3B3A"/>
<path d="M15.2808 15.9379L7.77181 14.0607L0.150146 22.9213H0.168919H0.150146V29.8296H22.9964V22.9213H9.27361L15.2808 15.9379Z" fill="#3B3B3A"/>
</g>
<defs>
<clipPath id="clip0_17_1976">
<rect width="104" height="30.2238" fill="white"/>
</clipPath>
</defs>
</svg>
